<mxfile host="app.diagrams.net" modified="2024-04-07T12:50:36.219Z" agent="Mozilla/5.0 (Windows NT 10.0; Win64; x64) AppleWebKit/537.36 (KHTML, like Gecko) Chrome/123.0.0.0 Safari/537.36" version="24.2.2" etag="LfIajgOO5RDE0qWkLsvb" type="device">
  <diagram id="SbNZ4SnGWJdB-B-pO4nY" name="PaginÄƒ-1">
    <mxGraphModel dx="3225" dy="1325" grid="1" gridSize="10" guides="1" tooltips="1" connect="1" arrows="1" fold="1" page="1" pageScale="1" pageWidth="1600" pageHeight="900" math="0" shadow="0">
      <root>
        <mxCell id="0" />
        <mxCell id="1" parent="0" />
        <mxCell id="47Xff3hiiZissVyK6eDY-1" value="" style="shape=image;verticalLabelPosition=bottom;labelBackgroundColor=default;verticalAlign=top;aspect=fixed;imageAspect=0;image=data:image/png,iVBORw0KGgoAAAANSUhEUgAAAnYAAALfCAYAAADsR4/fAAAAAXNSR0IArs4c6QAAAARnQU1BAACxjwv8YQUAAAAJcEhZcwAAFxEAABcRAcom8z8AAP+lSURBVHhe7J0FnBZVG8UH6W6kU7o7BJFSSpHYIKREUFFUUkQFRFFBRFFMTBS7O7ADBBs/CzFQlJRudr7zv3cv+7IuSOwuG/fs79npmTvxzj3zZODhkQlQR/KwJE4SevHixYsXLxlQvpdcIfHwyPBoIrlV8pBkqOQsL168ePHiJQPJVZIHJFMkHh4ZHi0kMyQXS3Ixw8PDw8PDIwOhsWSq5Goz5eGRwdFccqPkMkkpZnh4eHh4eGQgtJdcL/HEziNTwBG7iZLSzPDw8PDw8MhA6CDxxM4j08ARu8slZZjh4eHh4eGRgeCJnUemgid2Hh4eHh4ZGZ7YeWQqeGLn4eHh4ZGR4YmdR6aC97Hz8PDw8MjI8MTOI1PBEzsPDw8Pj4wMT+w8MhW8KdbDw8PDIyPDEzuPTAWvsfPw8PDwyMjwxM4jU8ETOw+PgyOHpIDkREl5SVVJPUkzySmSTpKukh6S3pIYST/J2ZJBkiESSvWdIzlXMkJyfoScJxkuGSZhPdYfLBkoGSDpK4mW9JKcIeksIdnqyRKy6deSVJagbS8qySs5QeLh4ZEAT+w8MhU8sfPIjMguyScpLiknOUkCSaovaSo5VXKmBHJ1Qa5cuS4rXLjw9FKlSt1WrVq1BfXq1XulUaNGHzRr1uzzFi1afN+qVatfTz755L9btmy5QeNbNdyp+XsloZPmzZuHWj9s2rTpfmGa+ZHrSeIke7SPHZLN2t86Df+U/Kz5y7TNpw0bNlxYt27dZytVqnRf8eLFb8qfP//UbNmyjVZbIYgQQQgg5K+RBCJaQ1JJwm+8sCS3xBNAj8wCT+w8MhW8j51HRgXEBQJHDWQ0WfklJSQNJBCfwYUKFbqyQoUK91SsWPEFySdly5b9vkiRIqskazT/z/r16/9+6qmnrjzrrLP+HDx48JrRo0dvnDZt2o7Zs2fvnTdv3r4FCxaEzz//fPj666+H77//fvjpp5+GX331Vfj999+HK1asCFeuXBn+9ddf4erVq8O1a9ceUv7+++/wzz//DH/99dfwp59+Cr/99tvwiy++CD/55JPw7bffDl955ZXwqaeeCh966KG422+/fd/MmTN3X3HFFVtHjhy5vl+/fn937tz5TxG/lTVq1FgpAvqXzm1NiRIlfi1fvvxXOrd3RAIfL1my5OwcOXJconOPkrSVoIEsKIHk5pHklGSTZJF4eGQUeGLnkangiZ1HRgNErooEk+U5efPmnZ47d+4HNf6a5P2cOXN+VLly5U/btGnz9YABA1aOGzduy/XXX7/n7rvvDp9++unwrbfeCj/88MNw0aJF4dKlSw1R++6778Lly5cbogZJW79+fbhp06Zw27Zt4a5du8I9e/aEcXFxYUph37594e7du8MdO3aEW7duDTdu3BiuW7cuXLVqlSGCP/74Y7hs2TJDBCGXH3/8sSGakEHI55w5c8KpU6fugAT26NFjeaNGjT4vXrz4Il2PDyXvZMuW7dn8+fPfgWZS05A+tJaYnz08MgI8sfPIVPCmWI/0DMyK+Jr1kVwqmS65Q/JwpUqVXu7YseMXQ4YMWTdmzJi46dOnG4Jzzz33hI899lj42muvGRIEKUJbBknLiIAUQgR///13Q/4gfGgZH3roofCOO+4Ib7rppnDy5MnhqFGjdsTExPzWrFmzD4oVK/aMruF9kpslkyX4B54mqSZBo+fhkZ7giZ1HpoIndh7pBZgJCRTAd4xgBYIOJpctW/bBU045ZcmZZ575T2xsbCgiF1566aXhjTfeGPfkk08arRuaLY+DA1KLRvKdd94J77vvvripU6eG559/fnj22WeHvXv3juvSpctvDRs2fCNfvny36pqPlRAccrqkoaSkxMMjLcMTO49MBU/sPNIqIHKYAwlswDTYHx+x+vXrvydZJwlFOHaOHj1627333rsX0ym+ah7JB8y/+Api0hVR3jV06FACQ+Lq1q27t1GjRstr1qz5dJ48eXh3dJHUllSQFJJ4Hz2PtARP7DwyFbyPnUdaQlYJhI7UImeWKlXqxhNPPPH9QoUK/VKrVq1f+/fv/9fs2bN3vPvuu8bfDRPqP//8E27fvt2YHD1SBhC8LVu27Pfr++GHH8InnnginDRp0sZOnTr9rvv0u+7R92XLln26cOHCROfyXsFMTvCKJ3kexxue2HlkKniNnUdaQZWcOXMOzZIly10af7NMmTJLROT+nDVrlvEJI6CBSNE1a9bE0w2P4wnI9G+//RZ+9tlnJmr3kUceCSdOnLizQ4cO32XPnv0j3cPncufOfa2GaPOIvPXwOF7wxM4jU8ETO4/jCaJXScJ7neSRVq1afTZ8+PB91113XXj//feb6E4c/z3SB3755Zfw5ZdfDm+99dbwiiuuCGNiYtZWrFjxDd3buyXjsmbNSgdLwmcPj9SEJ3YemQqe2HmkNtDeULkhNleuXDeLzP2vS5cu4bnnnguZ2/Pzzz/H0wSP9Iy9e/eaCNxrr712nwhe2L59+101a9Z8Xfd9nITAi+oSD4/UgCd2HpkK3sfOI7WAz1WV7NmzD69YseLb9erVW9+zZ8+td999974//vjD+8hlUJDfDx89UstMmDBh1ymnnLJJBO+34sWL36PnoaOE9w6VMDw8Ugqe2HlkKnhi55HSyJI/f/5qhQsXnlaoUKFP6tSps0Id/LYPPvjAVFog4a5HxgcEj8TOpFV59NFHw+jo6NWlSpX6oWDBgi8WLVq0v54Tql94eKQEPLHzyFTwpliPlAR558blzJnzxdatW68gSfCbb75pqiV4ZF4QePHll1+Gjz/+eDh8+PBdFStWXJIlS5Z79az0klA5xMMjOeGJnUemgid2HsmOIkWKFMiRIwfVIO5o2rTpH+PGjTPlujZs2BDftXt4WHzzzTfh3LlzTTLkE088kRJnV+j54b3k4ZFc8MTOI1PBEzuP5MZJJ5xwwpg6dep82bt3790PPvhguHnz5vhu3MMjafzvf/8jL16ID165cuUoadZdgl+mh8exwhM7j0wF72PnkSxo3LgxyWgbZ82a9b66detunDx58nbqk/qgCI/DxZ49e8KFCxfuiY6O3lmqVKnv9TxdLCmlRT7JscexwBM7j0wFr7HzOGa0bds2W8mSJbtq9OVWrVptpcj+6tWrbW/t4XEEgNwtW7bM5MErXrz4Kj1TM2rUqFHNPGgeHkcHT+w8MhU8sfM4JtSqVStH1qxZT9Poaz169NhLcMSOHTviu2kPj6MDKXBuueWWsFq1amv0bN0gkkcyaw+Po4Endh6ZCp7YeRwreIZe6969+27Kfh0KmGXxpbrjjjvCBQsWmDqviUEdUioXPPnkk+le60ct2+eeey6cNm2a8R+7/PLLjaCNeuihh8xyj4OD6FmehRo1avyhZ+waSSEeOA+PI4Qndh6ZCt7HzuNYULFQoUJ3NmvWzFQZ+C+QqPbee+8NK1WqFLZo0SIklx35zRwoNH/bbbeFpUuXDk877bTwk08+iV+SPvHRRx+FPXv2DEuVKhU2aNAgbNKkiZH69euHXbt2PSi59UgA5O76668Py5Qp81vOnDkH65nLYR89D4/Dhid2HpkKnth5HC2ySkaIoK2jADwd8H9h586d4X333UcNURLUhnfdddcBCYrR1l122WWGDI0YMcIQPwfWW7VqVUhABkNIoCOFu3btMtOIW2fNmjVmfiQ2bdpkliF//fVXuG3btvglFrQPLRpmQJLpsj/mUR7LgW3cMVg3clliUBx/5MiR4TXXXBP+9NNP4bp164z8+OOP4Z133hmOGjUqfOedd+LXtmW42KdrX+JrSluYz3KSOyduP/5pa9eu3b880iTOMnc+7rpBtIlY5jpxbNYnJQ1tYD9ue5a5/bIssak98rpCVCMDZjgW+3TLua6HumZJgaTGpMwRQX5Pz1xNiQ+m8DgSeGLnkangTbEeR4W8efPWy50790NDhgzZR8d+OIAQQOyuvPLK8NJLLw2nTJkSrly5Mn5pGL733nvhhRdeaEyVV111Vfjuu++a+Rs3bgxvv/126o2GdevWDdu0aRPOmjXLkAzw8ccfhzfeeGM4e/Zso+ljHcjhCy+8sJ9EQNYwibIM6dChg2mLI5aQkeeffz7s3r172Lp16/CSSy4x7XjmmWcMGQMQrQceeCA8/fTTzT66det2SK0ixG7MmDHh3XffbYhVJNDmUR8Xk7PD4sWLwzPOOMPsm/PgWI68sT3tQ9PH8lNPPdUsjyTGEGHywbG8ZcuWxtwLmQPfffddePPNN4dvvPHG/m2++uqr8IYbbjDbQRifeuqpcNiwYWHv3r3Diy++eP+5kUyY+e6cabM7H0gbxJVl9erVC0ePHh1+++23ZhmAlI0dO9ZoKVnOfjHHHwkghxDgBg0a/J4zZ84L9fgVs0+hh8dhwRM7j0wFT+w8jgp5suc5t23btssXLFhw2PlMHLGDTECa6PCXLFliyBcE5tlnnzUaO8yx1113nSE/aIruv//+8LzzzjPLMMtBiPr06RO+/vrrRuv0yiuvGA3g0KFDDWmEFEK+mEYLiPYK4te3b19DJtnHgAEDjDYNUsg+SJQLCRs8eLAhiBwLkzEED2KJZuvFF180xIVltI/90RbaGWlSdnDEbt68efFzEvDyyy+H55xzjtkn+Pzzz8Px48eb86R9F1xwgWk/1wTyRDsnT55srhsVPPDV41whPGjcvv766/Ciiy4K+/XrR+F9o/Hs1auXqe4ACeM6s0/IHucDIM6DBg0y5JVqIOy/cePG1HQ1CaV/++03Q/443tSpU0270DKyHH9Kriv3k/OgLbSJ6+o0lGg28aecOHFiePXVV5trz7ZoK1l2JIDEjxs3bnvVqlVf1ePX1D6FHh6HBU/sPDIVPLHzOHxEBQWDgUHt4Iygc5Z8WV4aPnx4+MfKP+K73v+GI3YzZ8402iOIBHVD0fhBBCBwCOQDMgF5gNihqYo0Wa5YsSI8//zzw4cfftgQwoULFxqCAvlwpAVyiObJ1aQlBQvrOUB0IBzM5xj4/kFMli5dapZ/9tlnRisGEUHrRQoOSM2cOXPMcvDFF18YszJtTsoUTfshZ2i5CJ6A8HDunBskjjai0eL8MUujFWMaQCQhwGyHhgsyBEnExOwA2Vu0aJHZHu0dBAstJeCcIakQU64XBI1zgeg5DSuEFHL70ksvGc0pxAsyiHYPoMXkXkAIMR8DCBnH4NwghmxP2x0g2RBMgka4xtwn7p8DmtPXXnvNaAiPBJBvtqtTp85GPYmUHvPwOFx4YueRqeB97DwOjgFB3qCPnouYoGYQG3SSXBr0Cx5Ut/pF9trZ/542Y9rO8N+KqoMCYgeBmjFjhtESQUYY/+WXX4z2DdIDEYN8YDZ1RAyN0/fff29MtWjBIDn9+/c3pIx90uFDJp544on9ZkbGIR2ffvqpmYZ4YSKEILJftHKYBdGIQVogPZS2cmZXNEQQReZBpggOQUsIIUPbRjsgqRAh0nIkFcEL6YL4EQxSu3ZtY4okkKJYsWKGLOFzBjh/zjcqKsqQRPaNJg9SB1ljPxAmtF74M7711luGNDmCRvu4jhBBZ+Z0JBoyCAFDo5eY2EEMMX1D7NDYodWEiEEEAWQPAo6W0LXVAS0h5A0NIQSZNnNtMTtjDuYeQRBvuukmE9nK+XAN3b6PBto2rnv37quLFi3aI/4J9fA4HHhi55Gp4DV2HgloG2QLBgW5jGYuNqin4dAgOrhN8pHI3V+SrZK9mg6LRhdd+fAbDx+R2sURO8yYkDSEcXy5IAKYUCEgmAEhVRAStEaQs4EDB5LTLKxSpUpYvnx5YyalXBlm3FdffdWYdSEXLmACAgPZQwOHtgfiCAlje6RcuXJhp06dDEnjmJhUIXuuni1EDQ0bvn2M4/925plnmmO7fSAnnXSSMX0mZVqk/Wj5IGQQLme65Fw4X6ddhDRBjiB9FStW3L/f6tWrG9Mm2kPILeeADx7L8TeEvHJubA/5oh2YngHz0awxHyLriB3buBJvkRo7CBckFpOqOxfaTNuTInaYntHEnXzyyYa4Rl4P/Pvuuececy/Q0LFPiG2tWrWMGfvnn38+4gAKsGXLlr3z5s17p2/fvi3jn1gPj8OBJ3YemQqe2HmALEHfoKoIW2/JVMnzmv5Mw19E5DaK5IVBf8mAeNF0ju45dk57eNqO8AgqhjliBwGBrEBCIHZoeSAPaHcgAhAGzIKY+9CmQfIgBJheIWJogNAUQd7YJ8SOqEmIoiN2aPPQyKHtghhCLtBeoTlC+4V2ENKF1oljoImL1NhB5iA1zEN7h3ZryJAhhuy5fZCMGXKEtssdNxIQTY6JqdIRGUgVJlg0jgQyALZH24Z/HefIvtFCcj5ovZwWknOFYLJ8/vz5pi1oPvGFI5iEc3JmVNZFIwrhRZPmiB0BEm5/XDdIJtcbrSH+cFxrZyZlv2jsuHaJiR3EkWuHhg/TMm1y1wRtYqSpFSLHuULY0W6iXTzSAAqg6xTXo0ePv0qUKHFm/HPr4XE48MTOI1PBm2IzK6KC8iJuHSUXSGaJwD2r4VINVwf9RN4GSc6Ol4ESCF10sNMQvl7B00HdYNm548/d99efh6+0c8QOQgLRgDxhgiQKFX84NFIQHzRN+N9BptDm4XuGCdIBDVPbtm0NcUGT5TR2LpAAQOyIvGUfEBc0U5AmB7R9aOk4Fj52aJgwfeI3B9D0oRWDDNEmzLiQRzRuDvje4YMGuSONSGLQHtoAmSHNhwP7hsShoYQ8QbQIsGBdtHoO7BcSCfHD/Mr1ccC0DCmGJNJ+dz4QXwCxwr8PHzv89ohsxfwLeXaRthBkom8hexA3tJNcd6exw2TLOpiDIWcAsy9kknZB1rgmkfcG8y3mbYg75nPnw+jAORCAwvIjAUSS49WtW3eznt4+9iH28DgseGLnkangiV3mQJagZ1BKxKyR5IwgNrhIBG6u5G0RvL8NkXMkzhE5NHQxwTatv1zDDySPavwarRulfTXKViDbhFPbnvq9Ou7D9rKDjEAeIFB07EyjrStUqJAJMIAUQDowF0IYIEaQGrRI+KoxJNgC7RoJf9EmOSKI5oiO3xE7iA6EBHIEqSEwIjY21hAb/NgggkTSQjQhnETFQjggQ5hJ0X41bdrUmEhdVCyEBfJF+zHbsn/MsxAjR5YiQXsIMEEb5zSBgONBwDgniBn7h+yh3YOAsm/OEa0kmjg0m2i72BfnwTmg9SKQA+0Y5wwhZVv822g746R84XpBitCE4kOHnyDnDpHleO3atTPpSzDFsl+uO+sCSDNaR/zw0H66djEOuWMb9sM1g6wTNUvABsfm3nFNaS/T7Jvj0zbub1I+iYcC61922WXbq1ev/oqeZx8V63Ek8MTOI1PBE7uMiMnBCcZPLiYoF/QO6omQJZhYY4I/gr4ibZA5BAKHMB4T7NI660T8Vmi4SNP3aHyk1m9t9ncgauXIluMBkRvy2B0WuUOrBSGAzGGKw08LQgIpg6RAUCA9+IRBAJ1WB3KB9gwfLUyYkAmEfdHhQ94gQJhcITEALR4mQjRt7Bfy1bFjR5NvjQhapiF1aNzcNpg/0RySyw4SScoQzJPOrIhmjW3IgUdbIEWRps3EoD0QMDSFzp/OAU0dBBEyhBkUoJ3s0qWL2TfVPNBmulx9EEuILMsQfO3QmkUCMkUKFpZDStEuRh4XMy0kjeWQRq4xx+D6QeYwbTMvMvIWEzImVrSqbAcBRwvnCDSEFbO5axdklfsFuL+cE9uwjHPiuh5pqhP8LPFXbNSo0e967s6XFDFPoIfH4cETO49MBe9jl1EQFWSV5Ai6BYVFyE4N+gSjRc4e0fiXkjUiaFs03LufzDHEdy462Kf5OzSEzD2t8Uma31nLK2sfRYLuQR5DFP8N5o1s3rz5+kceeWRfUhqrxKCjZz1IiiMGaIUIWHCJdFkHTR5mQGfeZF20eZgUISBszzrsi+1ZDwITWVWB5VRBcKSNabcPzJ1MQ8jYF9tAYDAZQjhJDYJ2Dp86CCTrONBOSBnpWTBfQkQPBtcutomsxgCY5rwx0bo2ci60kX1D9hKXG+Oa0H53bM4hEuwHEuq2T3xPOCbniFmV68j+3HXj2FwP5iUObGA5mlP267SqkeA8aBcCaXP3FkSeExo+iKC7R4eLH3/8MW7s2LH7Spcu/aGeudoSX3nC40jgiZ1HpoIndukdZwb5RciaipCdI5mj8ddFzL7UcKVkhyFwLujBCRo7NHcxwWtad6bWGyg5WdM1ReaKa6+H23FWKVSo0D0idybQIb0CcobmDW0XPmcIGip82CAriUmZR+qBe4Mpu0yZMr/nyZPnHD1zOe2j5+Fx2PDEziNTwZti0xtIR9InqCtydpaIGFq5O0TOXtHwf5resd9HLrG/XHSwWut9JHkwiAqmaDhA67eRlIvf89Hi5GzZsr1z1lln7XUlqNIb0DBBTPETw4cOwbzoIkw9jg8gdfg71qpVa7Wes5kSb4L1OBp4YueRqeCJXVpHnyC3pJKkpUhYD5GyCRrOl3wu2WZIGwQOTZwbYmKNCdZLvtX6b4vU3a/xy4J+QXezr2TEoEGDcuXJk6e7Rt/o3bv3HnyhnGnRw+NogUmZVDM1atRYo2drVrVq1WqYB87D48jhiZ1HpoI3xaY1dA5yinwVEWErq2EzEbLBEkysH0k2adwSt8jAB0vktmu4Ruv8LHlD0zdK+gW9AjrEpHzkkg2NGzfOLnLXTaOvtWvXbjvpRSLTe3h4HC727NkTR15BtKelSpWC1M0sVqxYVfOgeXgcHTyx88hU8MQubSCLCVBAm2YjWK+RvChi9qPI2mqNU/Ehgci5wAdH6KKN9u4eyflBVNBaw3KGHGK2TSXUqlUrhwYtc+TI8XDDhg03T5s2beuqVauOzEveI1MDX8YPPvhgV9++fXeUL19+uZ6n8ZKyPF8eHscAT+w8MhW8KfZ4or/JLXe6iNhokbR5Gi7U9DIN10jiDjCvumF0sEfLvpU8rm2ukPTUeCtJlaBzUCB+z8cT1SXjRfS+jI6O3kOqj4OlA/HwcCBXH36Np5566qYyZco8q2foLElRHigPj2OEJ3YemQqe2KUmYoMTRcxaSGIlVwR9g3tFyN6VrDSRqomDHhAInk0SjHn1Ho2P1zBKw0b6nzi3XJpAwYIFC51wwgl9NfpAq1atVlMujCTCiXO5eXgQoOKSHJcrV+5TPTPTChcufLJ5kI4fiLwlUANtIWbguhLele0luBxQ+aK/ZIhkuGSk5GLJaMlYyQTJZRLeq1dIrpJMlkyJF8aZxzLWwWLCNuMk7IN9sc8RkqESjsUx8WWFpLSQ1JPQNoKfaGtuiUfS8MTOI1PBE7uUBObQmKCapJUhc7HBtRqSJPhnjSdo4ZxgZo0J9midVRp+LSHw4S7JBRpvo/XTlQYjR44cNbJly3Zl7ty5Xz3llFN+oeoA9U/Ja+aReUFePBJHU2v2ggsu2FmpUqXP9JzM18dAPz02+e3TkyLAXaCQBLeTapL6EkhSW8lpErSEkKjzJOP03E4rXrz4zeXLl7+3du3azzRt2nRh69atl7Rr1+5/HTt2/LVTp05/n3766f907tx5u2QPyaWRrl27mqTMTtx8rWMkqfUYj1hvD/vUvjfqOKs5lo75XZs2bZa2aNHinbp16z5bsWLF+2hb3rx5r1FbMVlfIBkg6SnhXE6VtJQ0kHCuvN8598yYLsYTO49MBe9jl5ywEaxFgn5BBRGxU0XIxojAPaIhqUi2S+IMoYtMEmw1cvjQEfjwrYQkwZdrP52DqKBkMDzIfpAEwekFWSF4+fPnv7ZIkSJLGjZs+PsVV1yxndQoVFU4nMTGHukfJCUm4TKJjilh1r9//7UVKlT4uUCBAi9LIFO4ESRH4uFskjySwpISEggNkeAQuJ4ij+cVLlx4WpUqVeaLrL1Zp06dL2vWrPn7SSedtFHt2anxLS1bttwggrU+NjZ2g4jnxssvv3ybPkr23HXXXXHUxSU4iNq9VOz4/PPPTVJrl/SZqh2cJ+4HpGshlc6hhHVYF20225I8m0TOaDLZN8fgWGi8KQ+HdnPWrFl79BvaNnLkyI26jhtECte3atVqg85lswjfzsqVK2/WeazU+X0tWVi1atWHixUrNl3kGfLXW9JKUlnCtTlRwrXKK8kuyYjwxM4jU8ETu+TAcHUksUETEbJzRMxuFSH7UNNUclgr2WHMrJGBD0wjdvnrkhkicv30ym2ofZTTWOGgcYZ7yRaT1MidO/codaIfNmrUaFNUVNS2efPm7TnSElMe6QuQuiVLlsSJIO1s167d1nr16v1RunTph/Q8YFqsKIGIHSsgJmimOonAjNBHxI0iM0/myZPng6xZs36tD4tvROa+1fF/GDRo0KqJEyduu+WWW4wPKKXkKP+GFvH777/fXyWD6h48m1TrgKxRQYQPEVepIzUSV3MMjsUxqTRCG2gLbaJttJEqI7SZtnMO1A+mTvGCBQtCneNeSOCQIUP+7tChw0/Vq1f/tmDBgsu4Jro2H+saPVO0aNHZOXPmxPTbWVJTkpJa0+MBT+w8MhW8KfbokEXErbbIWB+Rsskaf0iE7F2N/yDZZMib85VzYs2s/2g5aUvmaZtLNTxLQtWIckYzlzmAP1BryaBcuXLNPfnkk7+jkD41TOfPn78PjY5H+gdk7uOPP6bof9zAgQPDTp067a5Vq9Zbuu+TJGdI6kiOFviWNsGPU8L+5koWSJ6vWLHiW6eddtpXI0aMWHvVVVftu+2220ytXiqLUPP2gw8+MCXjIEOQo8Rl2TIS0AZSwo0SeN98841Jwk0N5aeffjpE80hd4ClTpsSdf/7567t06bKsatWqb2fJkuUFXcdHJXfo2l4lwbxLP5GeA1k8sfPIVPDE7nBADVaiTqODdpIhGp8mYvaYxpdKNhvSFkniEqo9/KN1qdX6guQWycWa1zXoZZyePayG5WwJVQWebNu27dcjR440Bf1F8sLFixcfUKfVI20DAvH666+bahEU+x8wYMAGkYV3dG/vl0zKmTMnvl/4eR0JskpOktA5D5QQZDCzZMmSC0499dQlmEvPO++8cOzYseaYHPvFF18Mv/jiC2Pq9zg0MP9+/fXX4csvvxzefffd4bRp08Lx48eHInuU2NvUvn37z8uWLfu4rvksCZadwRLuI9Hv6cVfzxM7j0wFb4pNCmjP8G/rE9QK+gZtRcZGiMjdqiERrBsNaXPBDi7wwdZfpdD+bxonr9zL2scNGvbTfupmIo3c0aJmgQIFLsiRI8cDGn9PncnSgQMH/nnrrbfuN5WRuNYnPk4bwDSIPxiaIPzA0IhdddVVOzt27Pi97uFi3cPXdD9vzJ07dw+NH4m2h98JH5kENhDUMKho0aKzGjVq9G6bNm3WifyHPXr0gHzsuv/++/ctWrTIaKU8kheYe5cuXRo+9NBDcRMnTtzVu3dvUtGEugf/NG3a9MMSJUrM0b0ZJmknaSghOjetEj1P7DwyFTyxA1FBVpGv3MGgoJCIGJo56rBO05AarL9qnKoOeyUJgQ+WyO2VbNU6a7WPzzQkF935WtYsIIKVBMFtjTO3x+GBTh1fKRy7e5x44ok3lS5d+pNixYr9Ua9evT8HDx689rbbbtsNkVi9erUheWj0IBmY/jxSBnv37jW+ZTj4Y74kUICI1ilTpmzt1q3bqgoVKqzSPfq5fPnyz+XPn3+M7h3O+cUlJMhG4/ZfgBBgXuW+d9c9v6FKlSoflClTZnXdunXX9+vXb81NN920nXJ1HB8/M8yMlK7z9z1lgX+fC/DYsGGDIfFz5szZqY+utfXr11+rD7C1uleLNZyte0dELtYItLKplhz9MOCJnUemgjfFopmLDjpqOFak7FHJlyJwKzSk1ure/UQOcePRwT7Jd1pOkuCJkm5Gu9czKBsMzXCOx8cLdPalJJREI23DoHLlyt3apEmTjyX/SMLu3bvvGj9+/NYHHnhgLw7jXpuXvIDQOfPq7Nmzd5577rlb27RpEzZs2DBs1qzZL3Xq1HmhQIECV+re4DOHhg1iRoTlkUS3VsyZM+fgQoUK3afxRSVKlPg2Ojr6Dx0vbuHChUYjSCAD9zY1ghU8Dg2INAQPH0XuDWQbP8azzz57lYj4/3QPP9UzMT9Pnjzk90srLiee2HlkKmQ+YtfDaOVaicgNFTm7TsOnNP2x5DdD2JyPXKTPnI1gRXP3qsZv0jh55bpoWF/TRHt6pDxIwIpPHqafGMkoybUie/Pbtm27tHfv3ptw0sff6rLLLjOdDSkivvzyS+9r9R9AI0NHTWABTvXXX399eMkll4TDhg3Dzyo844wzVopIv5E/f/7bdc15V2CCO1PSTHI0mv5yuXLlImfdzZJnGzVq9OkFF1ywnXv2+OOPh968mr7gzLaY4++4445w1KhRu1u0aPG57i2BGLfpXg/SsIrkeMETO49MhYxP7CBy+LhBxKKCc4PYYKYI2UuSnyRxBxA5N6Qua0zwh5Yv0vBJbXO95FyNtwkGmNxYHmkDkOomkmgJSVoJwpiXJUuWx6pVq/ZG165dvx0+fPgGiB7JkXGsf+CBB0wH9Oabb5rOaPny5caBPKNGR6Ll2rRpk8mxRr41TGk4ypMK49577zUEmIL7l1566a7+/fv/0bp168Unnnji87qO8yUQORLgni8hFQYO8yT5PRpgmqOiBNUablbH/0V0dHQ4evTo8L777jNt88gY4Dc1f/78uHHjxoWxsbH45X2r3ySRy3wQ4DeZT5Ka8MTOI1Mh4/nYnRnkD/oHZdXV15F0lYyRzBcx+0bDfQeYVBOqPZAkeIOGP0uWSh4VCbw86KvtB/po4XQGcqKh2Tstd+7c5xcqVGhmvnz5SN+wUPJJnjx5Fp900kmftW3bdtnZZ5/9+4QJEzbfeOONeyAXaPiojEE0LqSPtBjkBSNogzQsiXOaQQZJMovJMiWB+cvlMsPXDaKGaRI/Q6p4YKokhxmmMaJBMUuTABry+sQTT5i0FiJvO0eNGrWuZ8+ey5s0afKlyNuSrFmzEuTwYfbs2V8qUKDAPMyqpBDRPJL58j5IjoTBkG9Kcg2uWLHiKy1bttzUu3fv3bfeeqtPbZMJQIANiZ1F8Ha3atVqS+XKld/Ws0CpNEqikRw5NZBuiB2Z6PkCgvmSsRvHU3wbEMbx88EJ+Wi/rjwyB9I/sSM4gcAHfNswjUbrqzAmmKvhRxqullDVYa8xpzpSRxCEDXzYpvX+klB8f4amY4yvXDf9jtgnQRUe6RXcO/z0eA/yTiR/HiQdDd8ZIjDDChYsOIVyUepsXq1SpcoSEY+fRXjWSv4R+VstArSqQ4cOf0VFRa0eMWLEepHArdddd92e2267bd8DDzwQRwUFtF9vv/22IVKQKleFgMSxmIAxKeKTRODBoQSi5ioPQHggkxA1CCYmUkgaFQ+oPnD33XfHzZ49e+/UqVN3XnrppZsGDRq07owzzljdunXrv+rWrfuXzmld8eLF/ylduvSfOrf/6Vw+qFSp0tOanpMrVy6CG6j00FFSSwLxot+gH4EU02ckB6Hj2lcsWrTohBIlSiypXbv2qksuuWQTxJnrgfnXI3OADxKecX4j+g1tqV+//qqSJUt+oWdjqp4RPsJSOpo2XRC7IvrS6qSvq0l58+Z9UNOvSt6TfCT5UPKOvsCITro9W7Zs1LzDqdWnWvBICunXFAvpog4r5fSjg2s1Tq64LyT4ym025C1SK+dIHQmEY4JPJHeKvJ2v/bQ2ZK5nUMpEsXpkBkBeIDKY1StIMDGiQYD0EdHZSULpJXJ2jcqTJ88VxYoVm1GhQoW7a9Wq9VSjRo3ebNGixSetWrX6WmRqeZs2bf445ZRT1ko2aXyHZI8kToIZyojWC08++eRQ2+wXppkfuV687NO+dkm2tm3bdoOGqzXvN637vbb7rGnTpu83bNjw5WrVqj0ssnarCOq1OXLkwBSNyRTSRkUHaoXy+24kIRkwueAoak/qEchuSn60EPRySb58+V5r3Ljxj1dffbUhp5BdH8WauYFLAImrb7jhBn4DK/SMkLT6Mgm/w5RC2iV2+vHyAx0nubds2bJv9O7d+1d9re3DP0JfbyH5nubMmRPeeOON5BMK9YW5XV+bX+XMmfNZbXOLyN6g3LlzZ96UFh5JIVJjl/aJXZ+gkojZ6SJlF0rmiLw9p+HnmrfOkLbEQQ/WX26H5Aut+4TWu04yRNJR86oZrZyHx8GBJoHUDRAV6o1SbqmxhMoZaLy6SUjxgI8fwQAk0MWHDF8iogL5sKY+J+WaLoyXiyLEzWM560HM2IZtz5FALMn8j3m0j4SABXzdCCDBXMpHO5GH5SWkF8FSczy1zNnVT1FI/446der8hG8jaVH++uuv+G7dw8MClwa03XAVfSj9pmfm3rx588ZqmBzl5RIj7RG74sWLE00yUD+Yxzt27Lj+nHPOCadPn25C0PkCwvciMfD/wDfk8ccfj+PHFRMTEzZv3vwH7YdO/PSTTjqJr1UPj7Rtio1Vm6jBGh2coeFFImN3SCjd9bchcolJnPWXw7y6XPK+xklfQj662CAqaBB0T5GXhoeHh635emG1atU+6tWr1+677rrLmJY9PA4FTLQENMXGxu6tVavWZ3qGxkqSO01KmiJ2WfLly1fzxBNPnFW5cuVVkLNXX31179Hk8oEdE/10yimnxJUpU2ZJ4cKFzxU79tF9HmmH2GFaJUFwVFBepK1B0DfoLTp2jYjZyyJmf2rcph2JDHywptWdWmeNhMAHiu/fZUysfYKW3rTq4ZGyGD58OG4+mLFn165de8Po0aN3//jjjykbTeKR4fDrr7/umzRp0q4GDRps1rN0l6Rp586dk8v3Ls0QuywFCxZsWLZs2adbtWr1B86ykDMybR8tiKYicmrs2LHb9FX1Y6lSpQhjT+2wY4+0hePrYweZ6xzkDHoGJUTQMI+OFTF7RMNlkrUSqjrs20/mGLrAh1hjYl2h5Y9reJmGmGgrah0b+JA8DuAeHh6HgPqRNlmyZHlSpG4b6VOI1PXwOBoQaERwUJMmTbbrmXqpePHip02ePJlA0WNF2iB2uXPnbl66dOknu3Xrtp4QfMLbkwtkEp8xY0acmPEPunBEpRAt5pE5cXyI3YAgr4hZ86BvMEyE7FYRslc1/EpDcsftMATO1WB12jkIXbRZTpmvGdq2f3zgQ3WNE9nniZyHRypBXUmW/Pnz8/54tF27dtuJ2E3OfsojcwIF1BtvvBF27dp1l56tF/LmzXtqVFTUsfqNHn9iV0vQD+bW9u3bb37ttddSpIaKvqriRO72VatW7acSJUqcK5KH461H5kPqmGKjgnwiZvVE3HppfILG75K8punvJbsMcYv0lRskgdzFBKu0/ocaPiAyd4Wkv8ZbmdJdHh4exxP4QS045ZRTtrzyyivxPcuxg3QxJJJGyM8XCSJqf/rpJxQT4axZs0wi3PQKzgU/eAIfqZYydOjQcMiQIUZGjBhhKnCQL/F4gjaSuuett94yqXxSs6Qbpco6d+68Q88YybIx9R8LjjuxyyZc2aRJk1/nz5+/K/4cUwTkWBo/fvyWcuXKfZY1a9bT44/vkbmQMsQOjVyvoLIhYZC5mGCS5GHJFyJnu/YTOEfonEYuJlin5d8GfYOFGn9QMi7oY+qwEpHo4eGRNlCkYMGC06pXr76NBMjJCaqCkAoGeeaZZ0wCaAdy3z388MNh5cqVTb1aAgjTa/1Ygh4fe+wxIkLDWrVqhe3atQs7dOhghDQ4ffr0CV966SWTA+54gtQkpKuBaKY2Xn311bBevXp7ChcuPFvPXEn76B0VjiuxO0E/lsb58uVbOHbs2AMe6JTCd999xw9oX+7cua/zwRSZEslD7PCT6xMUERErF/QPmoqkUYf1Nk2TL46KDgcGPiCWyG3TcI3WpbzX65IZQZTWJBXJcJ970cMjDQKz2GnVqlVbTootEisnJ55++umQUmODBg0yAX/kPXPAf4/8Z6effrqpY0vSZkfsiK6kP0OzRMUQUqy4iiCY9/BRJ/kz67CcjBKRfSz7obLI119/bfZBgmj2GQkqjaAlZHtq66IcIdlyZGYKjkF9YtZhfwerSoK/PMQuKioqfPbZZ82+mYeQoPriiy82qUAitZacB8d3ibA3b94cv8SSXs4RczjVSGjDDz/8YLaJBBkzli1bZvbBviKXsz+uMfNZh2s0f/58o0FES8oytHjsg+vDPkiizTVIifyEnAt+m3Xr1v1Tzxx5JbPxAB4FjiuxK1S6dOkbunfvvgqmmhrgYdIPZVeTJk2WxueQ8chcOHofu8nBCYbQQcJiRMdigumGnJEg2AY+bDfkLXHgQ2wQp2VbtO5ibXWnxodrvIXml9Y6hYOLUjwLuYeHx1EiZ5CzkvqKG7p06fIPnXtyAw3gRRddZFJ6QWyovAEgSJAI8rZCNKZMmWJMhBAytFr33HMPWR/CqlWrhiKd1L415APSxXrjx48PL7zwwvC0004LTzrppLBfv37hokWLzL7ZB4QPhYpIhNlH27ZtqfBhSAyAuLz22mv4foW1a9cOSTvGMW655RZD4ACEatSoUWb7mjVrGnIGQUqK9EDg0ILRjoULF8bPTcDcuXPN+VMeDrCPF198MTzzzDPN/hs3bmxIjzPXQuSuvfZaY8K+5JJLwho1aoSnnnqq0Xq6Kh+QuAcffDCsU6eO2Ye4hlnOvhH8JCdNmmTOEY3p5MmTw/bt24dFixY1x4PkQeTJTaj7b/ZRr149kz83pVLbQOx79+69NV++fLflyJGDPJJHg+NK7Mqq4Yuuu+66vYm/FFIK3Myff/55T48ePXZmyZJlRnw7PDIPjlxj10cEsI8oXVQwVoTsXsk7ImdEsZJyJMFPzplZIXXRwV4J65BX7nKRuD6GzMUEVUxtVw8Pj/SC0xo1bPS5CM1uFAPJDaIiyb1KHrwLLrjAaLMA2hsS2kJ4MA1ef/314TvvvGO0VJhnIVHqO01OtKlTpxpT5v3332+ID3WAMd/ixwZxvPzyyw2pmTlzptkeAgiRZB/sn32gEcTfDa0UgDhdccUV4ciRI03bbr75ZmM2ZZ9o79DUodU6//zzzXJ8ANkeIop2LTEORey4rrRx4sSJRnsGcY0vx2Xm0z5I6FlnnRUuWLDA7AsCPGDAgFB9udFqcs6QTEgwyyB3rIuGcPTo0Ya0cr5cY/zZIH0PPfSQWX7uueeadTkm59SzZ09z7M8//zz86KOPzDlxjWkH15D9oD1NCUDoRdr3tmzZ8ls9eyQBPxocN2KHertVwYIFv4NBpzZ4WEXsKE9GdKFH5sF/E7vY4ETRsJYiYgQuXKXp+zRO8t8/NG7Jm6v44IYxwW7JT5I3tO5dGuIr10frN/REzsMjjSIqyBGcFRQNegUV9FutLWmu32/HoK/mxuiX3Tc4PygbPNH+jPY7MVmmhH8bhAJNFaRn3Lhx4R133GFMfZgn0UahVUI7h3YKQoQGCVIBCYkExAdSAuGCgDRo0MCQGYBJke0hTqQAw+SIlSxSA8m+IWnUAYb0QJTQ0DkNGmZYSBHkCW0f60OIIn0O8ZFD+5hUn44mEX9CyOEZZ5xh+mD2xTk7QsZ2kDxHGq+88krTVrB161ajmYOQ0haI5/Dhww0hxQwMIGLsF00b58Y5Dxw4cP8+WE7gBoSV68s1RxPJPXD47LPPTDUrrg+ma+ojo/3keA6Ui+N5SAmgfILciojH6QmdZh/UI8ZxI3b5TzjhhCEtWrT4jiLJqQ0emjJlyrygdrSU+LQRmQfUxuSBHy2xOQ15sfcNaugl39q8zK2J9UUNfzXmVKeNc2I1crslJBGmVitk7laNn2f2gXnVw8Pj+ACy1j8ooM+q4vptlhNpq6rxuvp9NtHvvLUhbjFBDwm/9YslUzTvFg0JXnpe43zEfSPhQ25r1pOzbuk3rt+mLVu2pEjR10ceecQQO8gaGrebbrrJEJBPP/3UEJsPP/zQkCc0RqTFoOMHaNYgJmyP7x8J/fHRwzwKgYJ0Oc0YRIh9o3kiMhXgX0bfC6lhH2PGjAnPPvvs8P333zf+ehwPIsi2AGKG1o75kBq2Q0sI2WJ7tIhoFnv16mU0eK6dDmiiIG7UCsa0y1D9P/1wWKhQofD222/fHzhBJDCkkvZwPdg/JBVtH8fD3AsBQxOH1o18cIDUZqzPvohcRouIVtOZbxkyD4KKmZtzgLShGXVAm8c5cs0hmRBbNIJoTGkH5wDxTklAKC+//PJ/KlSoQE3Zo8FxI3Yl8+XLd4Vu1MpIJpxa4IbqwfpE7aDu4dE6KHqkPzQLsgc3B3n1wNfRi35Y0EIv/XF6iWMy/VayXRKnF/qBvnLMiw62aoj5lfWeklwmOU3rljaBD/jgeXh4JD9I7A1ho0QeGnAqtpDL0WrXy+h3WFHLG2i8vcaj9Hee5HL9ZmdJ7pc8r/mkEfpOslrTOyRo2fdK8IF1/rAJQU/xkqNnjg2X3XPZr/tSQl0nQBYwN0LgIHP4sKElwiQL2YLAkdsVsgFRw8QIserbt68xt+L3VaVKFUOWIHgQO3zC0IQ5rR4+cfinQezQtrEPAhk6duxotmUf5cqVM9GpEBs0XJgiOX4ksSNVCb5+ECv60ObNm4fly5c32yP4uXXu3NmQosRBFM4US6AIxBMNHGZhNIMQRM6RdQABFJg78dvDPxDBj5BptHtoHTG3co4QLRdUQaoSlDaYlznGtGnTDiB2aCLRgkIaIXaQUa4J5lYHR+y4Lw7MgzjTDnwSaTPkLoUeCYOXXnrp2yFDhlA3+Whw3Ihd+WLFit144YUXriWSJbUBm+/WrdvXasfZEh+NmBkwK8gdNBJVaxC8FrQLlupL/iu9yH/WC36dXuy7zAsdIocwjvDCRzMXo20oqB+r/32CWlqnrL75CwVt/UeBh0eKABKHiZRye7HxhC06GGEIW0xwowR/1+c0DWH7WkKk+a8aktQb8kZ0+mYNqdiyR2J/0/y+nebdiSNy7nePxJO8LG2z7O45ruf25I6GdYBA4GO3ePFiQ8BwzIdUoSVCu4RZErMgZAMzKaQHTRqaK9KfoN1jOSZFiB2kDGKHJsoFS7DfefPmGTMmpAhNHeQGogahdOZHTJto7AgMgBBxHBcogRaJdQgwwPQJSYN8sV/IpxP2n1TUaKSPXaR/Gu1F04f2jbYAzKiQNogZ5+z2jRIIEyrElOvF8SNr9EJ42Y5ryHZo79i307BBJDkvp7Hj2mOuJcWJAySObfB9dOeA5g7SSBsgoBBeiDFEMSXAftXG7YUKFZoc/2s4Uhw/Yle8ePFZI0eOXHM8iB2+AF26dPlK7fDELqMiDLIEvYN6hoxhbqF0V28RurP0wu+jr3Ve6JhZnSSYWTdo3fcld0ou1TQF+ZuYJMGTPZHz8DhqoHlD09YnOEnjjfW77KDfV29Nn6PhGP3Orta8ORqfL3la8qqm39VwsYaWvEHcYoL1ErTrlpBF/o4PR/itQ9yig03ax28aUgXmPbXpBY0/JKE6zBSte0FQPnikfY/2WyFJkWk+kguQC4gcGigCJtAoEXlJnjf6KQgRQ0fs0Jb179/fEBQHiBlaL8yFRFUmpbGLJHakWME3jWAMB/ZPlC2kj2OikYM8unUgNoMHDzY+bPTZkDC0Z5E+dhAftFmOUEbCEbvY2FgT7equJZo9fNaYDxHDHItPICQVgsVxHbhWaDMxvUJo8cuD3GG6BWg00WSyHmZZtHFo2jhnAGmFAEPmuE6QN8hjpMaOa8x2mGchkJBmxGnnILiQUK6n0zAmJyCTENRu3brt0S8m3RE7TLFXir3/xsOQ2kAF27Jlyw/VDm+KzSjAHDpAHQadBXnl6CSigic0/ZlkkyFtLtgBYZxOwX7Zk0gY/5qbNX6xtu2sYRXt1ftfengcCtZMWlC/mdL6zVTTsKGGbSRdRNgIIBokGalp6htfG0+aHtQ2z2p8oWSJ5HvJKs3fonUt8eL3eSTC79tq2Km3vFrjP0sggx/rWG9q+KxkvoSUQzdqncmaf6nGz5GgDTxdFLOVhnX0Xqig90nB+DNsX6tarXdEMnZhPkxuQIQgS5AwiATBEpg0mzRpsp+QQIjQwKGhg6ShySNyk0AFyA+EjnQcjLMN66OVgsgASAz+dwQN4GOHORbSRpoPSApaL/LokfIE0gd5gSxBcIgahSRCuiBfkDm0ZpArtiM4gX0wH3JJO9GmJQYkCH84jskxIkky15VzgLBC3NCQQWBpL5G2EF+GBF0QSILmDd7AdYOocS6sQ1swFaPx43hY5phHu9CysX/ayrZca8zTaCXR0jlAsPHtw2RMuhdM4pwTQRccg/OEGLqAjeQG10X3d3f9+vUX6dnrYR/BI8ZxI3b5TjjhhEF6eH9wD19qAjV32bJlX1Q7iJL0nXd6BPnf+gel1BHU1osZMnee5HaNY5rZbF70TugoIHOYWNDW9dQXv/1Kf0ZCsESsXuq14/fs4ZG5gYsB1VRIwt1TvzGIDqStX3wQQnRwsoadJH1EicjLOF7j12tIRDgfUxCppZpeoSEa8ITfYuRv8mDCb5V1+L1asrZTw40SknuvlCzX+Lcafq7hxxq+I+HDjFJ8N2neVZILtX1/TXc1hK1XUEP7LmE+AI8MlJ8cf8opp/yDliixifFYQc45CBKEDO0VhAoTKUTM1aKljyTSFUJCx086EUhNs2bNTJ43FBWQFMyERFSiAUPz5wIlIGFooFgPHzyApo3cbewDUzDTEEI0dC6XHeZKcuFBqDDDoh2D3GAeBpg4IVLsA2HdgxEe2s2+0ZBh+oz0weOaYmaFmNJuiCVAK4iWsGnTpia/HBHDzl8O8ghZQ3OJlo51IHHunAFaNrSd5LejfewLjRzgmBBlImghkQ5oC8ltB1HmerhC/RBSjoFfYkpWAIGUdu7ceZueOUjZ0SbRP27EDjLVukiRIt8kFRqdkuCG8ABmyZLlAbXBV59IL0AzMDzIYzobNHN0KpAy/N+seQaH6H2mE0ETl9Ax4CC9ReN/B2fpK76tvuIbBU8G7YLTgnFBfpN0mH17eGRsnGAIm62aklvPfD5JQf1WCuu34QIRquu3Qlm87lo2SMPR+k2hZbtD449rnbc0RLv9u4YQrW0a3yn5dyACvz3nu+bIHOPMZznr2W12STCrbpGwT8ysELhfNETb/oaE4KbbNA9TLRr1AdpPVw2ba7qKiGBRzYGI5larc6ntOQyB43edPEFNJ1epUuXLiRMn7kNblZyA8EBkHFGAcDAdaeZz6zgyxDpouSBW5IB16yOsk9T6LIs8DtOQJPbBvtjGCeujNUPTB+mBdKG9ot+EmEXmnWU99uH2w7YHA/tGU8YwMdiOZezPgbZCMtk3baX9DpA+iCaEFKLJOqyb+PhcA9rrlkcSSndNIue5c4dUuyhd1nH7oB1JtT85QDSyrm9c9erVf9Az19k+ekeF40bsQPkCBQq8iwqWC5Za4GunV69e5Ii5VuIjGdMDzlGnQwSq1Qw8pnHMN79IMKPuNR0GX/qu80BwmI4O/qfho2a7YUGboI7GCgR36dWP78Kx1OLz8Ej7gNj01MdrTFBT0iroLcIWHQzUb+gSDa+WkKbnES3j42iRpjFdfqchQUW/S/7WNEQL0oXWLG4/YYvUsDniFvn7c8L69gMLgbit0H7R5r2uYz8quV3j12j+aMlgTZ+pdreWEOVaS9tW1X4qaH5pTRfX/IImsCJ1S/Dly50796jixYuvQWsUSTAyIiA3mDEJdCDytWXLlsbnDxMk/nWRROh4Ab84TLD4E6aF9hwrILFoVMuVK7c5T548VEY6lrRZx5XYFShWrNj1p59++u/6Gkhe/fZBAEO/4YYbdtSuXXtpjhw5ouLb4ZHWgAahX3CyXvjD9LK/UdOYTOl4VmoYt99Pzgk+NnQedEgxwUtmGyLo8JshhxVaPovqkumScZITmeHhke5ARLaNGK2r5761nu9uetb7a/wCDSdKrtdvAC2bDUKwxO09jS/REBMm2jD80CBs9sPI/Y4OJZG/N4aWsG2TrNI+8ZNbLKHMHubYeyREr16peReJkKEBjBJBo63tNGxu2k8gBaSNc0LTlnZBCcJb69Spsw6zZ0ppbdICIHb44eETR/oQhDxyzEsrwGRKehiCJOjX0zsw+zZu3HiTnrH7JPh3HwuOK7HLXqpUqUb58+d/FVv5+vXrU5zcEW3SoUOH7VmzZp1apEiRsvHt8DjewBwUG9SL76BGqAOYLYGgEQV3YMfCEC2B9b2B6H2iDgYz0Uxtf058R4dfTFI48pJiHh4pjywiNfmMdq1PUEnPcm09x830bJ+q8W5aRmT3YEOQKFEXHcyQ4M+GifJlLXcpP6hb/I8kzvxG3O/mcAWNG2ZSmyIEP1RMrt9LPtM4iXtJ+0O06kMav0PDGRqSfuRCjQ/UsIeG7SSNdPyTzO8Q028GQZUqVfDDnVO/fv31aO5Sql6oR+YBpl3q2bZo0QJSN6906dINNftY/f6PK7EzOOGEE8a2bNlyLdEuzqadEqC+HQRSP86lOmxre3SP4wKSjJILDm0azs2U4IoOHpFgOt1jNAgIHY0z9eA/Z81CaOU+1fQCDYm066qO7XDNqo7YoermC9zDI2WAbxf+XlRBsD5spfVMV9B4VUPciB6ldF3voIue436SCzV9lZ5nIrMf1JDqJx9q+D8JJlGba9H9NtzvI7E486gT1rNkjWopRIxuMPuzplZMriTt/VLCb2qhfktPaXiXBK3fBG17rsZ7S9ppWQNJeYmt2pIJUbJkSQqz31yuXLm/0WShxYpL7Njl4XEYINCFtC5Vq1Zdq2fq7mLFijU0D9mx4/gTO6Fs9uzZ5zZp0mS3q8+W3CCyBV++QoUK/SUiOVjHzGUP7ZEqwGkbvxhMomgi6CyiTNqBTyX/aHq7Oo59puOic3KdESQv1lR8+EvruyTBfbReDa1XIN5R+kgCHzyx8zg2QNh4njEb8vzxXEN0eB4xJ1LGCtJmS1fxd77Gr9AQLTRlq9BEfyJBG405FL+zzZKEQAT7EXNgEEIkeWOa+S4IgfVtAAN+cJhGN2sZ+4UQfqtxtG2kF5knQcs2Qdvj5tBLcqrm1QmGGuJZ2JwH58N5uUAEztdXVokE1p7LypYtu3zAgAGbP/rooz2RTv8eHocCQSJLly7dd+65526uWLHib3qWIGCVtCi5MnSkCWIHmmbLlu2Jli1b7iNKNjlt5tjiieTRF9YfOs4VkoOZ6TySH1nUUVRXx0Ga4OsklPb5QlMkBaXzSdAsuE7L+u3QKZHGgPQlw0Xl2hoyh2au7TGRcm+K9ThyUMIKEylJdSFsPM19jQ8n/mwQJfzJntH4uxqSTJfIUTRtyyVoxiBwmEghXXvNcw85i9SsJf4dRArrOjJny2ERBY7p9T0J+dnu07xZWj5J4+dLYtTeTprXQtJIUkfLqhq/PNKXUB8Zrbk1k/p0T0eHopKzKlSo8EKrVq02UpEBDYyHx6FAuhlStLRt23Zz5cqV39AzFCtJbn/vtEHsnnjiCbQuLSTzRe52zZw5k1Ijx+Sdinr8vffe20OIdjwrRktTSuKRkugVVFan0lmd4Ch1L3PVoVgyhxmVjinS+doNo422gnUel0zTo46jdQfTGSWvj44ndh4WaKTIg0iKj+igqXneYkV7cPLn2UXLZn3Z7tB8qhG4IIQPJJ9r+gcNKV/1j2T3Ac/24QrrQ9islm6dhIhRfgcEOrwowT2BIIgbJPjWXSQZovZR2q6b5qFta6rxWtoPZl6qOuSOP0OPVECuXLlaaTBZnfQX5FEj/9zxqKbkkbaBKxgBKEOHDg2rV6/+rZ6Za7Jly9ZWw5RItZVmNHYO9SSz9CNZdskll+wm6zPpSY4knBlnRHLcxBcXXpcnT553tc+R2qfPWZf8QCOHrxzm1TPV0ZD3Cv+cDyRrjQbCdWBO0EBYX58ftc072maBxskCjydPPZN4OOXgTbEZGZAazP08kyTUjQ7qa7qlxilddYaGaLLO0bNGxYEpktmaT5F4oq4XSpZKqDm6VvLvsnOJJZKguXGeeTRy1jSK5vkvjeMX+o2EqFGS6b6i8ack+NKRn+1ajY9Tu9BO08bOmtdCYzU1Xkb7zBt/hh5pEIULF6ZKRV/JXVWqVFk8YsSIOMpakdA4I0RsehwdSGFCwCZ1Zcm5V7NmzS/0jBD1OjhfvnzFNEwppDliB/IWL158iL6EXi5fvvxPI0eO3EISQrJuk5UZVSbRSOS+w3eOpH4kjSRzNxmt586dG3bv3n11gQIFvtQP7l6JD5RILuDPhh8ODtR0mvi7WRMrHRXmoQSzkTMjWdPqTq1L0lEyxkP6IH8jtLypMQmlHjyxS18gWjSHITb4rxFlSRACJkXSZEB8eA77Badofk/NozwUgTj4YvKMPSmBsNmkunxQOL81J+55jXxmnTjzKMssWcOXDT82fOKIGiUIgchsKiwQPQp5+0RtflnzSTVys7abrCGatv5a1kXHbCapqrYWMb8nj4yE/Hny5Bmovuu50qVLLxswYMA60lignMAlyCNzgJJn8BEUU8OGDfunQoUK3+qZeElk7jw9Iy71VkoiTRI7gNam/AknnNC3UqVKj+vC/Fa9evV/2rdvv1oXat2kSZO2TZ8+Pe6aa67ZNWbMmH9iY2PXtmjRYm3lypXXS74tW7bsLG1/qgQ/CO/0eyzAcRon6oEiQpQRwvGaPFWQtFgTpUrWeJu4lM7QdYKxwR6zzPoakVR4nJZ1VIdWxnTS7DP1/Xu8KTZtIItxxofY2AoBOYymFo2bDbIpruelpp6p1hqSQgPz41gN+Yi4S+Nou96WfK1piBU+bDyLaMjIzcYzuUvLDgxCiCRtPKeO3LGc9WzlhL3azgUisB984yBuBPoQwENC3zmSKRon/Ug/bY+GranGKqttJbVP8jDyAVRQks+clwtC8D5tGR30XcWyZs3aReRu/kknnbSiVatW9Fnbybu2bds2EyDoA2kzFtDMcm/jS6PtaNOmzTrd+9/ERZ7InTv3WTwTktRyk0izxM6BC0FSWbRufSSjixYtOl1Eb36ZMmXWSZbpwt2cN2/eqVo2QtJVgq9eOYl/gR4LKN9FTcio4Dx1XnMl1H+kI/1Tw12mc8QEFenwTScZY2o5Evk3XdNoKShRVE3rQrKP9z3xxO544VJjJi2jZ6OOngeKxPcQIRqkaVsFAbIUFTyscbS/BCEQOeqCEDBl4s+2VkO0ZZShsuSM5889h4eSSEJnyRsa5B8kJL5+VW2BsM3V+DWSMWrLUD2/Z2mcvGz8DgicqBP0CqpqvLzWPzFei5jbR4x6JAFIfDVJO8nY2rVrv9WyZcvdPXr0CKdPn76bygkeGQNLliwJZ86cubtXr15U6dhXv37993XPJ0k6SmpIUjvxdpondolBmY0KkpaSbyTUe60qwazmnYaPBWgWyFPVN+itDu4ydVykI3lDnRlO4rtM5xjpL8e4JXJknX9f699vtrMmp1b6nxYDVbwpNjmBls067FfSfa+vcTRsXfQcReuPdBr4XE7WkAoEPE8Qt+ckb0kWafobDX/VkMCBHXqGLAkbFP98Ha5A2KKNtg2NHRo8qiuwf55fgh4ekMzROL5saJwvVBshlb3V5tM1pMpJfR37JM0vaX4LHh7JB8xv7SWjJLfWqlXrrejo6I2jR482abgo3k8FBY/0AWrTUnKNIM+xY8eGsbGxW0Xm3tO9vV1yqeQ0yfH06U93xM4BM97HEspDeRwN8G3DT4lOzebbulJCJvuvNG/fAVoQR+asyWqN5GuNv6n15mk4RtJZy8vH7zktwxO7/wImQ2tCLGkIm/VjI2UGz0lCEAJpaGKD8RpO1zzqfZIwGt8y0tRArNDsbjfkP/IZ+i+BqLG+/WigSPwW7YtgBnzk+MggmS7aPEyxL0tIqHu/2ksgBCSSIvFEVffQPtpqXn2NV9ScQvFn6OFxPFEkR44c3al+pPHHs2XL9mbHjh2XTZgwYTelyl588UXjK04UZUom7Pc4PFA6DtK9aNGi8KWXXgrvv//+8PLLL9/XtWvX73Lnzv2W7uGTWbJkuVb3tJfG00qZynRL7IhCWiS5wUx5/DfwacMcSloE/IFs6a47NESzsVGdoe1MMVU5sxXzbATragkJVd+QTNc6URpWS+ZUJKmBzEnsnJ8kmih8v/BhQ6NKMl3S03AvMTUSjdlHa6DR6htcpeEtEoIAXjHPiTVdbtA8/Cft8+GEZ8c9P5HPkBPmsZ71ZXP+l5s0JAgBHzlMrdQwJSr1K7UH4oYv3d2avk7DcZJztI+emj5FUsecg/XV9PBIjyggaZo/f/6LixYt+kTOnDm/LFGixPennXbar5MmTdpC4AVRleTHQ0tEwGBKJPD3sMBPjqwaXOuff/45XLZsWUhe3SlTpmzr1q3bb6VKlfpe9+jrIkWKPFuwYEHqjWM5TIsfjOmW2HExIXYzzJRH0sD3Bx8gOm6SqsbqZuMrRwdK3iw6Vzpb1xHTMdvON07LcRr/RMPb1ckO17CR9lVG6xZO4ZQkKYmM6mNngxFcQELjILsoWgHdv4q6r410T0lWyxNwgZZfqftoy1a5KgiknqHOKFo2S7IgW5AuEuraIARH3hKTNkfkHLFjPUfgbPAC/mzUHv1LQtSoTaqLtpf8bFHBBI3bKggkoqbcFh8fPYOyWpYQiDA0yB9f5SGHOU8Pj4wB/I7JDEBZxMqSToUKFZpYs2bNZ2rXrv1TpUqVdjZp0mTrwIEDN9xwww3bX375ZUP0cNRHm0RKDR+IceTgmnHtSKVGJYgVK1aEr7/+ejhr1qwdQ4cO3dC8efOtlStX3lWrVq1fJC8WK1bsKt2bLpKTJLgZQcrT6nvIE7sMCcyitng4/kTkysIHjjqs60yn60ysTjCBxZhOGDPXw5LLJL3UqTZTZ0vG/Yzic5S+NXZEkNqI0WpBb52LzXcWqz8CXLhnJLK9W0LU8qsS8gS6IITvJGjEyKtGUl3IliVl7hlIShI/KwiEzpI39sM+P5e8rXH82e7VcJbkCq0zUkN8Lrtr2FFyso5ngxBigipqfxlD3Hi+bMSoh4eHNenVkZDAFhPfSJG9WfXr13+lY8eOv3bp0mXfWWedFZIQedKkSXups75w4UKTGBnC55E0MG1Dit99911jUr3qqqv2Dh48OOzZs2fYtWvXOF3bPxo1avRG4cKFb9Y1xx+SgE2ya5BfFzKXXgIyPbHLELAFxnEAH6gO80oNH9KQAuKrjBaFDhrfpcihzXb/gzpVsunfpn2M0WOMmat+KueWS02kPWKHho3oSptUF382Kgm01/04U/euv4aQNnKzTZXcpPF7NHxM270soUIBpAqNG4TN5mmDfLnAgsMVtmFb9mG1az/G7xsN28ta9pim5+mYsyXTND7etC1WW+LPZiuFNNOwpqScOSefp83DIzlAVCWaIiJsz5aMkVwjmVuiRInHWrZs+WFUVNTvw4cP3zlu3DhMh+ENN9wQ3n777eGjjz4avvnmmyZZMn57mHPRVGU0oIHbuHGj8Ycj5chbb70VYsq+8847wxkzZpCCJBw/fnw4YsSI3TExMX+0adPmk1KlSj2ua0jAA776YyXUkYcUEc2cnoMx0y2xAx9K0mXDjxloOaidiq8RjuLWxIrj+kpD5CK1K07rYk1qRAxSsghtzi0S/OxaBZ0yTWb71CF2aJ/QQlGTE60U2qn+QS1d70bmesca4kZJqH66XxdoOEnTMyUUaX9a2+Jf9rmm0YYR6Wm1ZJH3NbFwnyOFeWjjrEmU+qKY1iF/7JNkul9qHP9KUotA7p+UQBpn6LgTJedpHPPt6fGErZpofwmvWfPwSDMg8rKxpHeOHDnG5syZc7bGH5G8IHmtSJEib9evX/+T7t27/0+k7+/LL798O5GcBGk89dRTIWZdzI/vvPOOqda0dOnS8JtvvjGFACBIJP+nCMCmTZv2599LSVLIvjkGx+KY69evD//++2/Ki4Y//fSTaRttJFUMbX7jjTfMOTz99NOm0tSsWbPCK664Ysd555235owzzvi+YcOGnxQvXvwdXQtqsr4oeTR79uy35MqVa7zGoyXNJJjAMxqOidjhZ4V6kjwtNVNZuCFfSe6NmJeawtcTIeypYWPPYnLKQebIuE9HS8oGNCi2g96tcattcf5PkDvr37RF43+b9dDy9DEO6B20Tqn4Djqz5fpzxO4yyZH9oK3/Wg5dw9xGo0mUJfeEfGaQN3Kb9Q5q6zrbKgj4jaHVwjwaG18k3pIoirejESP57Z74+0SqjgT/NO6f811zvmwI086PzZrOyedGnd3NEoIaiFgm/czvGqLFg7gROWqrIKDNhUhC2CgST8AEfnj442HmtYQ0635/vcz3fHh4pEfwO+X3ioY8uwRtU0UJdWx7ZsuWbaRI3nWlSpV6UPKqyM6i/Pnzfycy+Kvm/1ypUqUfRYKWd+zY8Zfo6OiVI0aMWDNhwoSt11577c6bb755zz333LOPEmkEErz66quGVEGuIFkEd1BZA+KFRpAqUIcS1mHd7777zmz72WefmShgzKOvvfaaOcaCBQvCefPm7ZszZ86e6dOn75o4ceLW888/f63a9menTp1+adKkyfLKlSv/VLRo0Z9FZn/LmzfvDzqnT0uWLPla6dKlHy5WrNgMnfNFOvfeEnLgVpHkkXBt6Pcy+rvtmIgdF+taydeS71JZfpRsl6yPmJea8rYEtW3Karr6q8PFNGe1J/hOfSyxeb/o1OnkXafPOGIDH0gSTCTjtZrXW9vXjicfpLHIzOaxppKZksMjdjaStKS5fhA2EtbGBkM1b6yuM2k+7tKQyM2FGv9Ky0jHQSF3rj+EmvxsNgjBVjNIIG1O0xZJ2py4e+mIniVyBCFA3ixhizWJfMkLh+Y1oWwVqWdigya639W1vIrair9laaNtIwjBktJcXvPm4ZHhAYEhahzXGiofEDBGHlj6bhL/N5ScIjlTcjYEMF++fBNFjK6vUKHCPTVq1Hiybt26rzdo0OBDEb8vJN83atTol8aNG/+peWvr16+/Ucu3SnbUqVNnd+3atfdK4mrWrEld1FDbG3HTtWrVimMd1tU2O+vVq7eNfWhf67TvVdrvrxr+wLE0/yMtf13bPSUSN69EiRI3qG2T1MYLaauEag74v3EOKJc4J86Nc+RcCW7g3DNjf3dMxI5kwSRdpOLDBaks+Bj8InkzYl5qCg9WfQlfAMkHok1jg3rqoDGBkY3/CY29ryEpILaaTj8pk5uNcMUX6g4JebwInCB9RRkfQXgAaktmio5PCxoFLYJzAspWtdU1o2zVQF23URq/SuP4st0nodYokaPUG4VUE1yClvQ3CZULSAWzz5Aw7gO+aonvz8GE9S0RJ+0HOd++lZAD7lUNyQl3h9pDmg+iRkfofvbVONUaOmmstZ4F7m8tCcEtJNWFtKd2hnMPD4/0D/oINFr06XzwkpMUPzOCBppI0PwRyEElhc4SKjydIYFc9ZSgGSPQAPMmEnMQccujJKxPYAj7gFh2k7BvjgFhO1nChzhtgIRC2mgbbaSt3n/34EjXPnYfSKbY0XQKzF/4LsUEp+lRH6pOG185fJ0gEFsOIAtuCLlDc4Nje2zwtIY3a9uRZh/Uqsyc5jOKxVM5g6S6JF2uLyGYBLN1Lw0HSi4QJZoTtAw+0WvjY72OntD1IiEzufkwWZJUFx9EfNrijBbNBRYcjlAtgfuFds1GnKKt+1WyTEIOOLR6z0sekVCgfpbWmaL1SfB8rsZjNK+r/rfRkCoIlUTgiBj1ZM3Dw8PD43CRbold+kxQjAkMs5hN99BB40Q83qlptEEbDWmDHEAqGCYQhU0a4vS+VOOklJguAhMj4UsmYwJNI/5sRFcOCErobMsZ0mbNoo1Eelpq3qkSWySe8lUxwTTJbZp+ROvZpLpWw4bv2V6jIXOmz8hrnJQ4rRr3xJpC8WfDl416pX9IMLl+pyFBCIu1DhGqaNswjxJlfLXkUhGzwZpHG21SXfKzcV4eHh4eHh7Jj3RL7NJHuhP8mAYEeU10JFGRaGWiTK4xtERr1PHv1DDOEAcIBGTDmufIzE+xcwiJTRKMMz7mVfzubNmn9KiKzmKuCRUrIDdWy1ZQ40XitVMldb5VNN5M16SzpgdoOErTaLZu1bIFGr6u4RJdDxcxShDCTk3jw0YJqoRABK4l4q6tE+ZZsuaCTCBt7GeLhH1i2qbaBkEIX0nQtqFJvVPbUW8UEjlY42dq/slBr6CG9lnMJNDlvDCpc4/QyLpghMypSfXw8PDwSF14YpdigKRgWosOJkoeFxH4TEJ2f5K67jMEA40QQ4iHJXQQDHytHhZpGKP1SDVRQ+Oltb/0mSTYat6KiPxU1blYwmaT1l4owZ/tZslDkpckaC6/1pBkusslECsiSCFaaMtI22GrIDjtppNI4saySHEEj+36iDT3MqZs6t2+petKrdGEslUQaKJaqYLQL2ig/dXStlW1rKLmlZEUj9ci5jXkzRM2Dw8PD4+0A0/skg22IkAbdfb4S80WGSC9xacSamDGGfLhHOedzxwaIxsY8aKGN0rO0fjpkjoiFTiJpl1AbGyONpLqttD5ni5CFK3zH655YzV2jQQt2wOSJyTk2aMSwmLJNxpfruEqyUaN7zbEi2uU2HcNibxmkdcQgcjZZMuYSKlni7l6odrxrNpzv8ZJ8zFF+x4ZnBpMF017SfKgHv0YHbOl1mugsWraDybSIhJvJvXw8PDwSK/wxO6ogXkVUhAdnCFigPaJtBMk/v3ZkBSc6ROTEEvk0Np9JNJBHrrpEnywWhlieLwBqXH58iBsNm1GW7UXp34K/2N+HClBC3m95HbNowTZCxKicildtUJDAgd2G20Z552YqB1KIHdWe4lplaS6f+h4pBEhsTLVNDDFQprJzXaXls3UOPVPL9aQa0mwREdNNxNZqx70DEoFl+4na0TFTpNcIsmo1TU8PDw8PDIvPLE7bODbhgM/EYsxQRcNITeQMxzo9xjNEUSGoTMNWp8vSA5mRSIjH9E0OdBOEyGhHmBKI4vxZyN32dkiopAcSBtmUYIQYoOGkuZqd0e1KUbjBHNcLrlRbb1Xw2clBAWQVBfN4w5DupyJk3NMLJx7YmFd69PG9aCwPH5sFJsnCvVn7RfTK75sn4o+2iLxtuYo1Rgm6pgjNIwWWbNJdYn+xRx65CCxtctjR3JtDw8PDw+PjARP7A4KHN9xhkeDhanRlt8igpX6mWiSyD9mc5hBaBLIC4EP5Df7XfKK5l0rIYaVslIF4pPeHlvgA35rtkpADrM/2olplP3buqOldMwDqyDYfGgzJNT7fFbD9yWk+CCRLn5/+LDRbvzYXCBCQhBCYiLHNPPtObsgBM6dgBAbiGCjeQkA+UnHJAiEnHAPany2xq/Q+PkSons7Bb1FMiHOmKAJqICMWnNvbkNOXSDCscFVnpgoIZGlh4eHh4dHRoIndkkCUkQdT8pBxRgy8o0E7RIluqwWKpLgINa5/30tn6PxcyRtJNW0bgkRkmPPRUbwxNlBee0PjSFpPjA52rJVOP5HGdJJQt23tIw0H5guIW42CAECZ/PfQd5sGTLanVi7FnlukeLOk/MnyMPu738a/1D7wkfwQU3jz0ZAhK2CYE24rTRsJCHFCzn7Kmr90tpPMa1hiW7qJVFOnVqxHh4eHh4exwee2AlZRDaqxJMQ0ljMlUDmMA1uMGTG+Ym5IUTHpiMh0vVRbTtZZGWAxtsY8nW4sGk/iktIqkuBeJuXrY/2gi+bNfeStJg2PSihfBW50jBXLpVgwiRydL2GOwxZg5hF+qz9l+ALaM9nn/aBJvI3kUSILP5saBwf05CEumj70LJdrOVDNeSvu+a10zrNNayjdlcKKF2Fpi1twhM7Dw8PD4+MjExI7DDnYfKDjNi0FhTGpw7rB5L1hhi5YAc3bjVypNygIgRpOSj3NErSSXsoG7/nBNhUGDYnW5+gbtBbx4K0QR4xy1IJgYALiBJ+ZDGmSPzjGn9dgi8efntEjG4zGjLXnoNJYrLGPNpszaPkZiMnGzVm0eARNYoZ1gYhxJqEutQ8vUHDiWo3hJJ0JN0lbbS8nuaVl5AUOr3DEzsPDw+PA4GLCx/jRSW4qFSU1JRQh7WFxJUT6yKhlBhlxCgJRpmwvpJ+kgESSm0OkgyRDJWcEyHMYxnrsG5/CduyD0qMsU9Ki1GurJOEsmItJY0ktKWShHc2dWBJ/eVrXR8cmYDY4YtGGgtMgDbwwZpYbaLbVYY4ORMjYn3GMDXaklA2OOITzb9Pj99Y7auz1iP4oLTmV5RU03poq6iE0F3zB0ku0ThVENC0odGDsJFUl4jRjeYY7nju+E4izZ+IM4+6NtoEvOS7w4cN0yomUYrOs2+qLKBtI83Ka5pHzVFbBSEquFTTEEoIWytJTaNdS5+Jjo8W3sfOw8Mjs4B3OxkBXA1Y6q1WldSSUOsc0naaBGJ1TrZs2S4tUKDA5OLFi99YqVKl+2rVqvVMgwYN3mrSpMnipk2bftOsWbPlzZs3XylZq/GNkm1atrNx48Z7NYzTMEQaNmxoRNsacdONGjUyy7Uuw73a5y72oeEm9in5Q9M/S5Zp+afadmHt2rWfU1vuV5tuyp8//5QcOXJQJ36YhJqzp0sgf5wL50R9W0gpgXGupmxmJIDpntglXVIMMofvFrnJiEAl0tOW4oL4YLbcquHeAwiWDRSI0zJyolEu6iU97jeKsNk0Gn2DCzRNAAIkabbmkZ/tZY1DolgfgoVWD3MmZlqiPyFgBw9CcGSO+Sy3pBLZq30RwGADEQhCsHVMSSeCD90TGt4hITCDslWDNE7aFdKmVNc0NVMx8RbRuA1EIMAC0y/XJvV82tIavMbOw8MjowECl12SSwKRKyCB5KBpi86VK9fo0qVL31yhQoXHypUr93apUqW+LFKkyAoRpb9OPPHEldWrV/9VpOrXzp07/963b99VF1544borrrhi64wZM3bNnTt37wMPPBD35JNPhi+99FK4cOHC8KOPPgqXLl0afvPNN+H3338f/vzzz+Hvv/8e/vnnn+Fff/11SGEd1l2xYkX4ww8/mH189tln4ccffxy+/fbb5hgc68EHH4y7/fbb986cOXP3VVddtVVtWt+vX79VXbt2XdmiRYtfa9So8avOYyXnULhwYca/0rm9q3N8Uuc6J0+ePGN17rGS9pIaEjgDRI9rhM871yyjJpdP98TuOjPlMEjz+watRXCItpwrsvOObi2VDDBr7tpPqhyZQjBXovmKNb5qFG3/U8O/NCTfHAXcF0s+0jxI1Y+SPyWQNwq92304k63Trh1MHKFDLIHbIEHT9pmO/6aGEDaqIOBXN0FCsl/yx0FOKQ7fVOvVM+QNbSHRr5A3TL8QNo//gid2Hh4eGQVopkjhFJ0jR47LRODmavxJyeuSt0uUKPFh48aNl5x11lk/jRw5csPUqVN33HzzzeH8+fPDF154IXzrrbfCd9991xC1Tz/9NPzyyy/D7777zhC1P/74I1yzZk24YcOGcMuWLeH27dvD3bt3h/v27QtTCnFxceYYO3bsMMf8559/TBsggxBB2vbVV1+FS5YsMW2m7RBNyOAjjzwSzpkzJ9Q57hw1atSG3r17r2jatOlnInkfZsmS5R1djzckz+ga3SGZpHHMwGj76AcyGsFLt8QOf6+PRWceDEbowaYIPAEMNvcZGi2qOew2ZAuBSEHALJlKEDRkVIWwGjwqF+CLhnnTVkJgu6R82JISiJvVuOHTBpH8XvtZouFCCelFHtLwNsl0jU/UEB87itdD3MiLR5F4AiiqaT+UECsoyUxm0tSAN8V6eHikN6BlQuvUWTJccoXkJsm8E0888alWrVp9FBsbu/Kiiy7adeWVV4YzZswIb7311vD+++8Pn3322fD9998Ply1bFq5cuTLctGmTIVAZEZs3bzaE9Ntvvw0//PDD8Pnnn0fzF952223hzJkzw8mTJ4cifXvQ/LVu3XpxmTJlntU1vFcyW3Kl5DxJNwmJ7NNqAODhIJ0Su6JB/qBC8G7QQuRpYPC0iNAv+zVnkDE0cglmzcMTZwp121lNHlq59ZI/JJSrsv5rBB/YQv5UXKBcFqk+MI1Sb3SC9nGeSFlfTVMr9mRNkz6lXDDUVzs4zvDEzsPDI62DdxOBC/i/EWQwpkiRInObNm26sEuXLn/27NkzFJELhw8fjoYq7oEHHgjfe+89o9XauXNnPM3xSIw9e/aEv/76qyF9aC2vvfbafeedd14oohdyTbt27fp38+bN3y9evPiduubjJQR6QKYbSwiSTC+KlnSrscsa9AleN5qySEIWScyOVaJNsl388X7UkOL0L2ic2qOk/Riv4wxVG87UfPzaThKRKyliWUJ0rpgxj5IoGCLnkuxedECSXV84/vjAEzsPD4+0BPydcS2COKCV61qoUKEratSo8XzdunVXVK9efU/Lli13Dhs2bPPs2bN3vf766+Evv/wS7tq1K56ueBwrIHz4/WHWnTNnzu4RI0Zsbt269U7dg726B7/XqlXr5aJFi07VvekhIUijnITgjLRK9NIhsQtFiiBOfYO3g8GaSk4y928h8IEABpL6YqJFc0cABjnkyCVHvjs0dvdJ5qodszTE1IpZ+DJNEx17viGBffXlZVOdnKFhJw0xvTYNegf1TIkvUooQpUqgg6u0gOA75wRS6IQACBsEAUl04nFoeB87Dw+P4w3e1ZAC0ou0Ll68+GUlS5Z8Pm/evN+VLVt2RdeuXX+bPHnyZsyoBBhgQsXXDFMjJMQjZcC1xbdv7dq15povX77c+O9NmzZta48ePVZWrFjx53z58v1w4oknvlqiRImrdO/aSajxntaUNemQ2JEAGCIVG/xjTK5JE7Ijk0htX1KCmRdx02yTUEKL1CiU4YL8bdI0plvKaP0lIQ0JARlUf/hBQqUG6q5SFYL0J1SI+FBE7T3J25p+Q/KKxl/U8GnJIxq/T0PMvFR1INfc1aKHkzSfmrMXaniu5g2UUE31LM3rouXtNY4JmCL+dfcTR+rToklEg5g5I2M9sfPw8DieKJY1a9Ye2bNnp+N9Lk+ePB906dLlxyuvvHIvAQBvvvmmiThFg0Qggcfxxd69e43f3ueff26CTR577DHM36GI3ooCBQp8pHv4ou7njRJSxqSV+uPpkNhBToga7S/ihE9dYpIWKY6MJbUMseSMuqbUSiVwYpWEqFfqp27UMCGIInGwREqLSzKcQCRJwwJ5dG1Fe0iaFQgj0btE7S4WgftQ8yGJ5M6DID4joXrEfM2nsD+lx26V3CS5XnK15l0luUwyWtOUAxuh/VBd4mwJf70k5L87TcvaaVlrXZdmaltDSW2NV9WyiiKMZYzWkejk4UEeo3FMW/CmWA8Pj9QGZA5frQmSu2rWrPl2v379Nk2aNCm85ZZbwtdee82QB4/0gb///tuQPIIyCFYZOHDg9vr167+veztPQsQtSZyPJ8lLpz52HYOCQddgoSE9EK/EhM0KmrS1kk1mncjACkf4bIAEEbFrNCRP3ArNX64h5la0ah9rmijb57UccvS4xolwfUVCtCvVKhZLMM1SleIbzSehMX55pDH5TfKH5pHjjqhbl+MOMkn7IJa2PbSL9tFOF817rMK+Dkc4riWQmJ7Jv4dvISlf0Db+oGnKqxE08oGE6/Gyhs9o+Ki2u1/DOyW3aB7+h9doHqXHxokAjtL0CI2TBzBWfz01ThLnziKBmKPbaZqauq00j0ogTbRNA6NlJIGyrS1bRdemgiGN+DHiw9gvKKw2F1Db8xrfxcNP9UK003TJaElGqKTh4eGRNsE7CX8sCN2kBg0avN+2bdt9MTExRGjuWbx4cTxN8EjvIE2MCDrRtmG7du1IwEwqNkhVd0ldSU5JaiLdBk/kUlf/ZtBeZKRfECdCkJjUQVTQuH0lIQ/dMk2j3YLoJSQndiTPET27H8geiYY/1TQpSiZp2EfSROM1RShqaXkdI/1009Ba9TVVJzpo3hkiH9EaHyzBtw4fu8s0Z6rkek1jToUEPaBpiOLzGn9N8q4Es+yXmocG7heNQwox5ZJXD00iWkQIKAQR4kUOPM5xs4Rz2qYhUbw7NSS5MUmOLXF05+bOlfN2RNKRSTfuxK3jxG3rxO0zUhKuP9UxSCPD8SGLyB7Trmjjs0jC5dUausoenDfnz3WgYsZz2t9jGifamDq1N2ua3H5TdGzru0jkMdcZE3Tf4Cz976x2ttN0C403DHoFNXTXKul+YLovZ4hh+aBbkD+4Q5RuuihjPZHfoppfRNsV1noFdd4FNMxnCCPmapJcRwU59ge9ZN7Ezh4eHocH0mSgreleunTpBTVr1lwpQrfx6quv3v3111+neC44j+MD7in3llx7M2bM2NOxY8dNtWrVWqVn4Bk9C5Rfw0JEKbTUQLoldnnVxb4tmrVZnfDy/UQjgVgwDbHBdPmOpkn0S63WCzT/Vo2TqgRTplvXiiMtzHOpTtDkxRqyhdYKzd1MyQjNa29IAx0/Hb7t+AlwyGGCHyAGEATIgvVrKyIprnmU8Sqp7UtrWVmzD2vGrKRhFR2/qqSGjlFf6zQX6SDI4nQt66F1yHo3SP+HaxnasPEav0rzCNjAtHq7psnlt0DytOajWVsoIcHyZxpSK/ZnjaNFpGSaJbnuOiS+HpHirk1iSUwAkcQkEUmsIXTrsg93DHvdE3wXEypvcB/RdEJkIbQQb0guZJecgZyPTTBtzdP4NJJMmlyCTtv4rq7gp0Ennf9pwdcifk/qmHfpGs3RMjSNmKQnaThG80fqWp+j8f6S3pqPGbqD1m0taax5lJA7KaBOMBpEyKBPEO3hkdlRpGjRoiPy5cv3WtmyZb8fOnToOgIgSPi7fv36eArgkdFBYmXSqrz88svheeed90/FihV/yJ8//1tFihS5NE+ePJR2S2mkW2JHyZQPgsLBC8HQYPZ+kpAUObFJhyFkw+K1OGU0TiLgLpLBWmeqhviffaj5f5ltkjJrIiyzxIIEyIsMcYoJ7tbwcg1jtO9mpqNPGWQRpcger0XKF19lA1JR0hCMXkEFtaCK2lBdVKS22lrPnCdtsrVhqVzRTtOdNM65YxLtKYEu9tOyIdoX+fcsYYwOrpBco2UEbGBmvUNCuhcCOp7SfNK/vKHx9zRcJPlcAnGEVKFpRCO3UQJBjjMEDkKX1HVNSXFE0hFIRx6t5pBk0pBFSC7mcrSjVBz5WYIJmvOhcsnnGqd03McaJ4fh25I3Nf6q5EWNY55/UkPqAnON7tL4LToeHwHX6ApfpSHX1GoaiZKGNELT0fJC3PuKGqL55Z454gjp50OAe515A148PNI6cOs4O0uWLA/WqFHji4svvjh86qmnTLksH8WaeUEiaDR4zz33XDh+/Piwfv3632bNmnWBnhVq3aYUTwDpltiR9+cTydRgrDGDfms6biSS3CGO9MWaBMM3qtOkYHACbKeJTxfVH9DEobkhEvUVDfGzI7rVkoSkghwsoYTAQABe1ZCSYPiYnSPpov01FH1KK9Eyhwe0jpBHtIwEq1itIqQRM3R9SVNNt9KwnQjl6RpSp7aXhrEanq31hkko60ad3XESNGGYo0ngfKME0oN28R4J5tZHNHxSw+c0RMtI4AeaVgJBMNF+JiE5NBo4SBfaOe4LhIxIZHwW0fLZZ8ARyKTuV0qLI5G0JSHghVQ5EEcILz6c32mImwCR0R9J3tX1eF3zX9K4C3bBDeDe+OsEsYYkUhuYVDqX654QFX2x5lHD+FyNY5YmpQ53wfoyQhi5R5TZw0TdT58GPOtohCGO+C7asnTFtY+CEQEvPnWOh8dhIF++fNRjvbpy5cpfnnPOOeHdd99tNHQeHpEgyplE0iREFvn/n56Z63LmzNlJw5Sw9KRrYoeD4tTglyCXOjK0TGvjSda/BU0NmhursXlBwzPVmRUxe0oK3YLCphO0EaGQEgIE0NKguSEogpQme00nHmlidNoh2w5MhxASAi6mS+h4O+rYDbW8sjrXYkYDl1lhzdb5zHVAiwpxxH+R6wMJsabz08296qc1IYxoXW0ptjEaXq4h2lY0ivgu3iEhn6A1Q0MQrVbtHQlatg9Ed5bp3v4tGrpKx3SpZwiUgfQnBLtY0kjKGu4zpB3Nng14caZrniUIHPfaPQeRmkIniZ+PoxWOESkc1xJIXA5swIv1xcQ/k3PCb5HAHvItkkYHzSKa1ofV9nmahjBivodsT5Hgu3ippnFXsHkXnRna5l3EfxG3ANLo2EAXe69wGSAyuoaofVVJZbUNwlhWUkptLxGcFRQ17gjkaOwu8oirgjVdewLpkV5RQhIjQvd6u3bttk6fPt2Y3zw8DoVVq1aFs2bNCjt16rT9pJNOek/P0GBJcmdoSPfE7gYzNdAQAwIRrMkvktTZWrBoc+JMZxhrppcZjQcmzEOZt/CbQ4OB+RPNldVSDdP4DI1jikSDRDADJI5OP0FjlNDx2s4Xk6Q1T6KFwg8O/zj85mppPUyqBTWe2xzTA9DpZzH3x/kwukTN3BMb0GD9GRHuEcI1hDwgTusIwbhI9xoDdelgflApuEuPPlSxo659b90LSMwwrT9SQ0jjJMk0rY2W7DYJRGi+BK0iSanflBAhjMaNVDMQQ0sI7T3G/w8/wMggFzSL/w50sdHRPJ8QNIJO7DMDcXTkEeF5ciQyKXHL3XMXKW5fiNt/4uAW2mCDbqxvo20fZJa20ma0jvgz4sP4rYb4bH6sa8YHj42SRvMabVLqzNUQ0nitxq/UPbAR0lG6azaFjjVB4xbQ27gINNV4XZHAk/SLKKel+KCeqHnF1f5i2iIhyAWCiN8qVV24v/ixcq+59zwHLtiF58T+tj159Eg2TJ48mWeqouSKChUq/DZ06NBtixcv3udzznkcLnhWvvzyy7iRI0duq1Klyio9S9dJqkZFRSVX35/uid1MMwVsbdYfjXYjofOynZmNhsV8F2c6QTq7mOBvLXtEHUuHeO3B4YHOhE4HzQS+UH2DrtoX+d/ukLxljkOHGdnRckyndbHtQsOCRggt0ZfaJx0jWqfzNeyo9Sgv45H8aCLhmZkkGlA+eEJkkXQpjgQmDnThPltTJalWbJAL2lbMmDYVS02tU1vTdbW8gZ4lIqchKh017K75fTR/gKYTSCPJpQnUwLRqTax3a4g5+nGJjZLGNGt9ONG6fa8hWjhIIyQxwWfxYBL57CUljgweTCI1hZHCMrbnGAkkETIKMcTszMcLz7bzXYQMYi6H7NJ+ckTapN0JQS4EJhEZDVlEg0raoKU6Z3xe+T1BpK2mMYE02govNv/iBK1r0+rYwKIYjdsoabS+fYKWajMpdGrpHCppfmmNF4m/5/4jyuOIULVq1QYa3ClSt4bC8j/99FOGLarvkbKgNNzcuXPD6tWrr9cz9ZCeqRbmITt2pHtiN8NMAV7WOPnHqjOJ1E7Y4Wa9xD8znUWMOiBnIutrtBN0IBfo5U/tt6ODJQMnaT8tJDjDj5BcI0GDQUTqH6YzxAcr0kznpllmO0I6ukVqM9rAeRoSwNBf7W6t/ftKCceOphKeGRKFYkpJefDR4AJe7HNS3Phc2hQsREJX07CWSOGBwS59tKVNoXO6xrtpvIfG0S7Gal+QxSESfEJHaRn+ds6PkbQwN0nmSu7Rcnz1II3Wf9HmZST/IsEgEMf/SVyktM37aAnaoQNeIv0Kk1vYfySJtAQS8ogmEe0hSbrRlNvqLpYkEgVtzesu2MX+9gjuITIcH0Y+oCDPT2lIOh3IIsEu+MUSLY8P7rWSyZKJmh6t6wUhHyax1V3wX+Rjrp8h7200TeR6A7W3lqarSMrp7pSIv9deA5+BULhw4Toa3NmkSZNN9913nyk95eFxLCCC9tFHHw3btGmzTc/W/IIFCzbW7GO1MmQgYgfwiyOAgU7hQGKH1o6XP9GvJNX91azjNBE2ypVOsVH8no4dmFaJTO0dkCqDQIIbNE0nS6oVtBI2KIPjJ9Vp2nZh4iVogA7pdu2T6Ft8zXCKr28Igi0i7XF4yLiVJyIDXjBl4udG6hw0ijbSFr9Fq02MFjFBq4VBFJJoq4z8O9jF5g7EpArpIf8iLgQ8w49KXLALAR+QJkyyEMZPJC5hN1HFEC40jhCwgwe8OE2ie/5TSzgevzWOb98TiQNe0PRjakejSDAVfoucJ2SRROVcA+pFPyzBx9Mm64YkxsYHu8TuJ4m2qguBVRBFrAzWLH2WeU9YEt9e89po2NJogK0muLbmVTNWAogj9xe/Rd4xVvOYQ0+ANzmnLCj8PrdBgwbrKf2Vkrno1q1bF77wwgvhHXfcYaIqE4OasU8//bQJ1Pjf//5nyl6lV+zYsSNcsmRJePvtt4fXXHNNOGXKlP2CL9pHH31k1kluoGWl2scHH3wQfvXVV8f9GpIWp3nz5pv1jD0oOYkH7hiQwYgdsObM9aazOJDc4UtE0mE0HJhweEnv2a8ZsOZRTD74vR08sOJYgPO4ra7AC502oDHAsZ9OgzQbVKbYY9rjSCftc2K1F6xDUAapNagbSwdB1GMdDcubttvIRo9/w9eKPRbwXPEMDwmK6/krZ4IlII42t9/JmoeGsavm9TTPuEuhQ5oXTKb2mY/MuUj0ORHRaNAgiGgT0aATCY1GkefcVnSxvxF8WiGKREZTFQW3B1cCMCHYxSbttn6MlqglJOqOJJHuN3Y4Evk7/C9h/wcT+y6C0G5Ru9A6oinlfBL8Fm1JQGpGk0aHCOkHNI9SgK66y9VaxkfeaA2tRhGCjukfF4DewWkSSDwWhKaSRlpuK7q4QBdbBhANY0Ut471BOcBSkhIiu0XVVlvdxX4soHnMEe+ykhkJZP68efOOKV269IZ58+aleAqTzz77LDzzzDPDkiVLhjfddJMhcg4Qkk8//TRs27ZtWL58+fDOO+9MEeKTWli9erWpvXrSSScZEXHeL506dTKRpNu2bYtfO3nx3nvvhRdeeKG5xsf7GnJfqUNbuXLlbfny5btKz9yxcJAMSOzobOxX8954ImTFjmN6fVUvKnK5UfeUlCbbI17GkD/83iaI3vGFljIvMV6QvCzpJPHhspoUzD34Xb0gIapxo17CkE2r1aB9rp22c8C3yeViW6UX7yfafp7Gx2k5Ub/VjTkI53Kcyn0ONOCJXcrBBrokDnJxAS4usMUFt/BcQhrsbwACUdCIy88IcYR8QEYwT/cKTtFzTXSure5iNV7DJUkl6r5D4y5CmqCOVzUNWSIPIfkWSTdj/RaTCnCxpMsGuVjNogtyIbjEBbpAFm2wC79HJ7xnHHl0Ekn6nEQud9sgkfuy767IIJeEABdrlrYBLgl+jRBazoFzwVxNAA/EEY0j5Q6XaIi2kWhx6kijdUUDa03RNliIdE9EnI/RNRupeS7nIumMIO3tNTxZ0khza+neVJKUUdttqT/uH/cxMsAFcUEu3P/EgS42Qj6rkbQX8EJb2oh0LLv22mtNVGNK45NPPgnPP/98Cs2H48aNM1o5BwgIZuCoqKiwd+/ehtht377dLINwbtiwwbTxr7/+Cjdt2rRfE4WGkfUQzH+sA6mCNEX6COLYj4mZ5dREhVRGaicZZ78sI+ny1q1bTZsiyS7HdMdgvUORJrRmXNcLLrggfOWVV8z6TtasWWP2z75p986dO/e3hXm0nfbSfoZMI2zH+XMtEpNw9uP2TwJhiN3s2bPNvgHny7YI55Camjw0tbSlVq1aP+uZ6yo52j47AxI7Xg6Ym/Cpc07m7uVrx3kJ3qN16ptOwwYtUMEi4aVr00ZgdkouZ8b/Bh2c9b2qprbihN9DMlrClzpO5FTASOgUXFtdu1lmOyOc1H/UNF//vLxv0jhaE65JeR0pM5tsMq4pNjOA3zZEAGIAUeA3ExnsgomS4AirTayg34kNdOEjx+ZgpBQg6VkaSkjX0lzTJ2s9ahaTcxL/OXIxUtsYkyl5Asdr3GoaY03Qho2StqbXpzSPNDKkk0Hzjl/fV5pHcms08GgSIVg7NO/fhC9S3O/5cCRSk/hfwvrsP5I0WkIKQeVDF+IKkcW3EvMzfpYkdbcVXWwKID52cVch0AWfTCLBqegCSYYsYp6GNFMSkKTdz0nwYaR0Ism650hwRbHVXchI4HwXY9VK0hnZXJh8bEPgm2tufbW5huZVNO9FSOOlIoWp/IGaO8hdJkeOHJPbtWv3DwmHUwMffvhheNVVV4VXXHGFIR4LFy6MX2IL0GOyJAkyBejvueee/cTp/fffDwcPHmy0XQ0bNjRkCTMngOywLuZd9sk6LVq0oG7tfrIKuXnxxRfDLl26mOXNmjULJ0yYYAJEHL7//ntDNtl20KBB4aRJk/abjB1BRKNIvjbXjrvuums/+UwMiN31119vzjWSwEZixYoVhszSNsgP4F7MmTPHnDPthgzffPPN1Gw1mj6OHRsbG77++uv7ySAkkeWNGjUKzzrrrPCyyy4zBJr2QwwhuldffXXYtGlTs/2IESPCL774wmybWuBcu3btui179uwzcubMWTn+MTxSZEBiB/hCtA7l28zLzX75JpC7fuaL9ibTEViflVGaj6N1wgvREkD84c7RdOo42icGX71oLewXcm+1E4JG3jHMsDYogzY7vyTno+emeaHbL/gfJQSOULgfp3pylvXVcsxnaCYzCzyx8/hvQCAhjxBHCAW/fwgjfouYL23JvzqaR51oG+zSNz7YpU/QWcvO0DLM0dSNhrYM0hjmUqqOXKR5vJtsHkZ+z0T5ojGzdZEhQwu0rq3uYqOkycUIcVoqcbkXIVs24MVq9yFo+9QOS+bcOyA1JZJIWgKJltFZFXAhIQ0QhBHSS6JuzgMzO24xkGLM0ORdXCihhjYR0c9KntD+MNk/KCEyGosMZJFk50RHT9G2EyVjJM6PkXrd/bQddb7P1DybrNu+SzFP19fymvoAqKw7VVZysICXdnVr1f1o+vTpu1LKJJgY+H2hxbrxxhsN8cCnj2NDUKg3C/lgOSZECA8aNHzRqG4AoWI54926daNuabhx40aTIHf06NFhnz59wjFjxhjiiNavY8eOxl+PdV599VVDDN0+IDaQowcffNAsRwMGSWMe+8cHrmXLluHJJ58cLlq0yLQdwkVOP8jj5MmTw2HDhplj3nvvveGWLVvMOpFYuXKlIXaQ1B9//DF+7oGgyP7EiRNNBClEEGBGpZ1PPvmkuTaQPo5DkmgIG+1r3769OQfyC6KJw4zes2dPM49re+mll5prwHza8dBDD5ltIasQzbFjxxrymJr5CdEwinzuFvn8XM9eb/sIHjHSLbGjmO5iic1jlxT66ysdYtZPLxarqUOs6YQXUF/zVXqtfsSUg8E3D+dlzBKrzcvJvaT66gWEiYeXeFqA7WzQNBJ9y0sM8wlfx7wMeeljXtpr2s/LNjHZ45yizYuWFyp+TbdpSLoWNBUd9L+e1imV6OWWUeCJnUfagQt4OSewuRbRTtkoadLnNNa7h6o6p0rQZJH3j79+moa0DNe8i7TeWAn+dpAbSCKmaH7TWCVIrI5mkajopyVEBBOIxQcrpmm0jLhwkI8RcuWquxCdT0oaiCPvSczVNuDF+izG6T1hP5LduzK1iKR7l3HMBAKJiRprBe3EYgFxxBdzmeZhueEcSSFkE3XbBOYLJFajaEm1TaETFU8SY4NLdLxh+ux9uP2Z7beg+Yo0SaYkIHaQI4gMQQSY53744QdDTp5//nkTNDF//nwzH2IH4ULL98QTTxiNngP7uPzyyw2pg7hAVoYMGWLWBWijevXqZTRdaKvefvvt8P777w937dpllkOYOAYkEnKDVgziA9EDmCkhnmjI8At0GrFLLrkk/Pbbb806ACJ50UUXhb/99lv8nARg8qSdkNBRo0YZIopAGp22EU3etGnTDDl02sWPP/7Y7JfrgTYQUnr22WcbbaYjkGgjIW6LFy82qUXQYNIOR9AhtFwPiN3nn39ulj388MNmGeCaYB5m29QCWk+una7HHr0hJtsXxREj3RI7HAspKZa0xg6Qn4zkszhf8/KxxM7l24ozL4YY43h9ib6xqT1LypRKmkYj9rN+2DahMevZuqKPax6F/y0RTEtAq0BHYL9QSdXA1y2BIphOqH9K9YSEoAyuB8K01WByLSB7NijD1s/tp6tHjVk6mjLma9ZG36VneB87j8wFfrNo/s+ILw2ID7J1QaEsING3+BvbnIsuUbc1k+Jjh1aRAC0Sss/ROL54D0lszsUoo1WLrBVNmTzMtKSdgSBiviUw5BcJ0cVYGHBzIdoYTSPBLpiqXeJutI6YhyFq/w54QRyRTErcey0pcdsfTDhGpMTPP+GUE3b3Ht97K/5WqQXMi5ApyBvkA+Lz5ptvGoJxww03GDLz1ltvGeKCBg1CBSAiS5cuNcTtjTfeMEQGTRhaLkgV4+zLmVaXL19uTLrOnAtxZV1MqewDbRimWI5JmTRIH1osNGgOECHII8QO0oWmrF+/fuHjjz9u9oFmbeTIkaYtEMlIfz6AiZhzrV69OoEDYe3atY1gCiVwgvUx80LYIokdJJO2OGKHxg5ixvVypmnaBsmEICIQW8yuDpBlCCMRuWgLIaWQXMgcxJFzTtze1ADnI5K7tVixYlfG/4qPFOmS2KFJ6ij5UDJPQhbwpMFLzeb12mp+rLwsrFPx9v0/XkhclKac7xkRYTalCE7Gu/f/8K3TMsTnYr3oIAVpz1eN88X3CKKHeQGzQ6ypI4rJArMOTtQQOJyv95mXJufmXnwJ5hPM0JhO+GKnwsK9OudxukpnaN3qOk4+Y6rC6Tl9+ex5YufhYXFgsIsLdOGD+FABLrxbENKt2HKAxbVeCeMHh19jr6CG1iMC12obSRTd16TWIRPAYE1jjr5EQgoYStlREpD8o/jiEf1LCcbnNY8UOphl8d+DMDq/Rcy5+AMmBLfY6OfISi5JB7k4ohgpSZA5I/GEMMdZOTZcds9lv4r0pI66ToDYYQqFHEGibr31VhMxCUmCiL322muG2EC4IGUQO0ylmBcbN24cVqlSxZCkEiVKGLMjhA9ih/kVYuO0ehA8iA+ECS0d/l2QtPr165t9VKxYEUd+Q34glZh+hw8fbszBDuRggzBC7NC+cYyqVaua47MPIl0rVKhgzKS0OTFR+vPPP8PrrrvOED9SvKAZRGgvJmawbNky0wa0kxwDRGrs0MAxxPePa4S/HIAYsw4aO4guRJDr5cD5QxghdPjpcZ0gmZw/RBMNIj6FqXjr9+Oll176dsiQIQPif6tHinRJ7OpKnpYslEDupknySpKGzd/1hvmhWuLCD9++GPgBW8L3kV5E7eO3CMwLrae2izJfqX/v/6GzfT99eZKPjsLq6QFEpkFE8SfhWvTRmRE5a00QmG9xjj7wizfyK5hz5lqh+Ys1X+LkKSPScJauz3m6Hh3NCz19wJtiPTxSEy7gBbLIexWCCDGEFFLZxQW7WDM06VdsRRcX6GJzMOITR+oW/OOoV9xO29s60taP0daRtlG8ro40gRoJdaRjjVnaRklbczTvPvyOyblIxDDaRdLnUCUFC8dObROe0PqEnX3H990skpFqqhuIHSbYp556ymioICiYJyFl+IVhNiT3Gr5pkDLIzoIFCwzpw4RJTjRI4dChQw3pgjxBliBdaPjQkgG0VBA7fMvQ3rEv/NZuu+02sw9MvuwTAgnpw2SJn14kseO4aMKcxo52Q/7QlrEPp12kvZDPxDic4An89iB2aAwhXwANJmZUp6HjOGgL0RI6Ysd5cb3Q1uEDiO8c5+8AsWO/mJtd9CsEFo0d1w9CTdtSO4ACkjlhwoSNZcqUoZ86GqQ7YldJcpPkVclAyRTJm5JzJUn7hPEFCgHpqx+t+zKzvhj/8MONnyalwJN64VAuJgE2IShJW5fsJzz4d8Sar0FSKJDcNe2ZZv8LtNlGCrbVeeNbR/QtvjlPaogDs43ATcrHBYHo2kg6vqLf07rk2rpZwkuVb/OWul6URUtr2jxP7Dw8MiJcwIv9kC2idxLlAMtq3FZ3IX8f73drgraVXWzpP6KhSQ+FKZp34dna11CJDXQpFzzZ4cwOu9CcpZbmBmJH4AGkBa0VZsYzzjgj7NChgzG/Qszww0LThRYLMsL6mE0daUOL1bdv339p7EiP4siRI3aQMMyv7IMgBWfK5BhorSA3kEPaxTHQHgKuB8u7du1qiB0+gAQbQNLw63OAhHEuLqI1Eo7YQcpoQ1KA2KGNQ4vp2g75rFOnjvH3g5Q5jR1tjCR2EFOIGe2H2CHOhxANIeQXX0auBaZnfBEdCEiBGL777rvxc1IeaDRpC/dbT/U19uE+YqQrYldSQof8uiRaghmQedMlr0i6SHJK/g2+Bm1yT1vDFdOs9ff4yxA75pEzzobmH2jaxTxBxU9bjmmdWReCZ/ezTPOIxqqjqfRkkvw3+JqmrBUvOZvmAYdivm4xh5A8Fadkm9DZOTAnFptPCwdsSqJhXrlU17e3eYmSPR9zDdfz+MGbYj08PI4E7RvUbbB41qxZu53TfUqDIAaIDtowyBLEhOhTEhY/99xzhsigtYOo4R+GaRUNE8EDmBvRvGFybNWqlSF3aOPQuEF88CFz5kx8184991yjmWM527E+xAzChJaQafaJvxn57SBUHAcyBiEk197pp59ufPsgJQzR2mECZV2SD5M+BUIVSZocIIAQSqJoMa8mBTSB7Iu8fewX8y9BGzVr1jR+eBA5SBm+fFw7R+y4BkTJQjohcxDSgQMHGnLKuXE9YmJijCYUEktbaQfkFMG0DTmMJKkpDe6t2rO3adOmX+nZg+ccDdINscsjuUjyguRiSaTplfp9t0gek7STJF3QHxU+vhqOyMWYqC/MimtEQOIMYSEiNsrkWzoxfiuHLNq+jggKWd9JHbLPrM9+MFOiscI0wNdiRgL+NeT7sk7VpGYg+naxhjhDk6OLZK42ETTXw10TptH4IdY5GsdqUjjgU9NPf40llTVdUkJi2tQie57YeXh4HAl4T0w57bTTNh7MVJjcgBxhBsSXDv85AjcgUpAZfL4ApAyzIuZaNGyQO7RnNWrUMDnmWB/ChkYP0ymaMeer5zRnmGcJpkCbBvFBM4YZFb+6U0891ZBA9o9515U2w3wJISLFCdo+TLOQUMiT858jqpccd7QFXzVIHcQxKdBuCBgkKtLEmxgQS45F2/DXQ1uJiRifOs6fXH9oM7l2LikxWjx86FzbIckQOtpE27hGXEPWw/zJ8dk3ywjecIQ2NYFmtWfPntuyZMlCP4WF8miQLogdnX6M5CUJqkkbwZoAElbWlzwuuUdCofd/A78Oko3iQwEB6WuiYwnrJ5nmn4aQMN/6WYzR8mLxWyagm/YRoz8bWGHJINuRUsWWPrpQ5C9lypEdT2DigIBBeG3kMAldSbdA/i1SphCUwTWwARmOPLvrwzwbjQwRxPmZrP8EZdyl/ZLTi3q6VbRvl0MqpbSf3hTr4eFxJKB/6VC1atUfRAr2OW1XSgKiAplDQ4i5E8KEfxoaM0daIGLMI7WHI1SYKSF+RHuyLqSQ5eyP7dgn5Mb5k6HZonqESw/COpwf+4DAsYwITdKpQHw4Dm2CpKFFxG8N0y0Ej2M60DaIJEQYUpWUCdaBtrgceRzjYOA6YGbmOJieaRtmas6NZbSLfTDtrgfnz3rO9Aq4Bpwf7WIZ18NFFdMWtHO0m3W4Fqllfge057bbbttXp06d3/XM9Yx/9o4GaZ7Y0cmjhcP8epekiiQpQAQ6S96S3C5JKlI2i0hGZZGJp0U0dhhzqg2ieFGEApPjyv0mVhuiP8SYJxMDkmOjve7RcJMhL5Yosh1JQ2/ReLP4tTMuiJTD6ZnUCaRNiNXZ29JO5M/CMRmN6IGBGJHC9bJ+ehSH/0bbY/KlxBFRzMMlHSTcx+QkeZ7YeXh4HCkKFyhQ4MqKFStuwvyYWUEABHnsML12797daPUIYEBbllpm6owMNIc1atTYoWeN/LyJrYZHgjRP7FpKIHWYYP8rChUSeL6ExMWYZpPWnBF6T44lggBiTTj8z5omeznZzbfuJ2qU5KI+4sFK2Njs8ySypFi5JSt2O9KJoMUaqHX+rfXLyMB0y3UhwphSQUTf2vxXJEcl1xUkbp/xx0sckIFw/RKCMt7WPkiueoP2Sz3Q3hIilY+lLFoksfOmWA8Pj8MFSoX5rVq12kK0Z2YEvnr4o+HLhpA3jmvhNIAeRw/SsXTo0GGHnrFnJLiXHQvSNLGrJsG0+oWkFzMOA/i4wXa/kVwo+bfGDT84tGr9g83xRGK3CMRzEvIqPauh1dpB1KjRStmtg4FC1pC/KLP9hv3kzhI8fPEuF8mpHr925gT5sAjKiBahtlGz1NqkVBD+jSQxJb3ALnPNIHxOo4cwbe8RiUtJSUDm/Jsk5+v6dtO1bWmIJCbiw/PT8z52Hh4eRwz1vVkqVKhA7fD5rVu33oLvmcuz5uFxtEDT+fLLL4ennXYapO7pYsWKtRWSjhM4fKRZYkcKEfLTkafubMmRBCXgcEjn/b6khyS75EDYigrPixRYEocWKUrHI9SdJMSQOwiFTWj8iAjESfFbJg0CK6xm6m9taytWWEJCTdoHdJxmIioHz7WXWeASopLc1OanskEZMab2LcXTV2q4TkLU8r+DMmwwhr1frlIG98dW24jVXxPNK6ftihlTMfmzDkQjCdVKvCnWw8PjiFGgQAF8uB+sWbPmZvK6kUbDw+NogE8kdYAbNWq0Vc/Uk/ny5WtjHrJjR5oldhdIyFU3TkLB/yMF+ejulDwpacWMA2ATZkLiVu4nDzHBIslgEQ8qNaw0RAIh312UiOKg/2gHOZOsbxjFum1aFYTs6BS37qtz+ne0beYGwRI251TpgFJHFFInf5TNqYc5G19HkyjUiCPijuxZokfQBlUyKA+HlvRtCaWPKAh+hsarxVfIAPg+zpRcJvH3wsPD44gQFRWFy09NycwaNWqsufDCC3d8++23NqLBw+MwsXz58r3jx4/fXqdOnQ16luZK6ieDps4hzRE7fKeIBnleQsNKSY4G/Pgwuz0hIZgCTc2BoORWjMgfGiCrEdopIkBJmzZGexcbrDGmQMiE9Q0bbUjIoYCPGdnR7X7X7zfNQkD6mQjc2zXeJH5tj6SApq1fUEHXqpGudycN0epdIblX15fC5TYog3uTlHC/rDaPihqkWXlL1/whjU8Tbbw+qCyyX8w8W57YeXh4HC3w9R1euXLl984444ydpBJJjYhZj/QNIl9JQ9OzZ89d1atXX6RnaJTkYEGhR4s0Rexgq6dKnpPcLKklOVZ0krj9JY6UzSLi0F4d/+ciA9ah3xaoJrKzmoY3iWBsNOTMkjuI2TDRjMTpVv6NvkFV7eNKEYqvjYaJfRAcgHaJQALKeh3OfjwsIMz4KvbWAxsVDNZ1nKThnbq+z2n8U11TUtQcPCiD609QS6/gj6CL1u0YLA3OCmZr2/O13Vm6X800Xi5onITZ3sPDwyNpZM2TJ09XDW+tVavWj1QpIFFwUol4PTI3yNf3zDPPmOTIDRs2/EXPzJ25c+dGiZWLBymZkaaIHWayhyWPSJJTqzVY8ppkqqQoM/aD3GzRwUWSP/dr13Dqt75aNbX8QRGz7Wa+1QQRARtlgib+CzYdCOVpiO7cYLbnGNZH7AvNI5CAAJGUytmWsWHNuHV1Hal9O1b3EPMrhcOp/UhevTWSXfuJtRPuJcI4Zt7oYJmEXIYztS/KCHWWNDGmYYqbt02RH56Hh0cGgchdqRNOOOHCXLlyPVevXr1vKaRPfVSS26ZmHjSPtAeSQL/zzjumJm2TJk1+1DPycrZs2cZqiMY3pZBmiF1tCSZTCvufLklOskPHTBQkgRhEyhaWJKB/UEqd+pMiXntNZ081hejgjqBHUC7orQ4+NnhR8xJ85voGb2j6NG3538kDCRSgkHWM0Q79asid3QekgsL6BGa0NbnxPI4OBGS0DbIZso0WNCporOvbX/eNIuBPSD6X/CWhAgb+eHHm+juCxzimcjR+sSKCMSZ4AxPuI5LJuj+xJqoX/0iSXBMEk+Cz5+Hh4QF4J5TKmzfvqCJFinxQo0aNlSNHjtxEnVS0NS4JsEfGBwmPCYygKsaYMWO21K5de2XRokUXFShQgKC9CvHPSkoiTRA7/NbIO7dMgnYttyS5ATu+VfKtJFaCD14CKABN5QiIHcQrOlgrgkBbKCV2umSxtrKVJvobLc+L6uwb2o0PA5TOig2GSj7dT+4swduufX0kGXJYWkCPwwMpVoiMxVevf1BLd7eTrv25mj9fd/Pn4CxD8hJINkOnxWNoid4OQ/Lw1YsN/qfpd3QfMf9eqnndtc+T/D3z8PBIBILssMQMqFix4kuNGzde37179+0zZ87cTXF3j4wNNHRz5szZc9ZZZ21v2rTpxipVqryZPXv2c/Q8kPYstapSHXdiB3MdI8GJkPQmpDlJKWDeJUqWaNuOzNiPHvoxRpkkxRtMx27JHdUTiH46wdC+mOBHQwKsVm+Hlt9riMPhwhbZ7y5i8Ii2txUr2Bf7jDLE4dqgZxJBHh7Jg+Eie1WCM4OyInfVgweD04Kxuv4TdN0JmCEogzJnSQdk4Kdnnwm0rNTJXSJ5RcK2U3T/hmq8nZ6TSho/8KPBw8MjM4KPPgL4+kpuaNKkyeIzzjjD1Hu988474w5VF9UjfYHyY/fee2/chRdeGPbo0SNs3rw5uXdvkgyQtDrxxBNTO9XZcSd2vSWUAZslKcmMFAaVLKhi8aDkwOzOUUEDyYv7iV1ssF0d9TWaV9A41dv0GX9HEL9NWjZF4weadv8LtgTXlZIvjWbIaQljRBpiTWBFzH+mVvE4WpAGZ7rkEkkBXfUTgl6mgkhHXfVzNJwqmadxEigv1fjvGtrkyS4QI5LsWZKP1pVKGW9KiNy1RA+tXnTQVOPlg1qHlTzZw8MjY6J0jhw5+mh4neTxhg0bLho2bBhavPDBBx80RfOpg+qRPkBk68cffxzOnz8/vOmmm8Lzzjtvl8jcUt1bFEczsmfPjlXw8JU+yY/jRuzQ1JHFm/IZmEiPtYTG4QJtSjcJ6VT+TSbp3DG/QbQsufta0yRIDuKT6t6seVtMh25zqP2mecPUeecz6xwuyKMXqy+56OANsz+Ig9PgxQTfSi6WlItf2yP5QICOKymWdCodgiUs+e6l+xNZ+/YryQqNr9Vwp3k+uF+Iu38IGljMuNHmPj6r4QzJMI130LC+0er1CYp7v0oPj0yJ8vnz5z9bQp7V9woVKvRZr169VsyYMWPfK6+8Ei5ZssQUuofo+VJdxx8Ev6xbty7EjL506dLwtddeC2fNmhXGxsb+Vrx48c91Dz/QvZyXL18+zK2VucFpAMeF2BEY0VhCubAHJCQQTs3IUEjlMAlpUAiqSDD/9tONoYIESYVtxx2nzvgVTdtUKWh3qJLQL9gTT/zoxHHOj9LfkZngIHdodKyGaIshBOzTEoO/JXdourH267U9yYfIWrGHrjxBQAbkC9JO4AT3CpIfHVwjeVKC+RxfPcyzu7XM3jvInbuPNgKagAzW2SBBCzhf+7xS6/XReP2ge1DMHOOiIOcRP0MeHh7pEaRVQhmA73enokWLTq1QocLCE0888Y/q1auvjo6OXjNz5swdRNauWrUq/Oeff0zwxc6dO32UbQoiLi4u3LVrlwl+4Jq7AIjZs2fv6t+//9patWr9rXu0SvfqgxIlSqB97SKBG3Av01I/fVyIXQ0J9mdMom0lxyN3GKZOzHGvS2DaltwRYdlbnb9NeWJNblZDc9l+R3miWImUdZ04OfAwwxFkcTRAg0PKFZuPzQZoQAxsdO4HOta5Wie1nC4zOo6tVixBGaRA4QMA0z0mXCqKRAe3aPplDZfrvu029w9xWjyn2bNaXurekoqFqhpoAV/T8HbJJVreTetXN8+hh4dHZgAfcyUk9Iu8n2KLFSt2Q8OGDRe2aNFidbNmzcLTTz897pJLLtl255137v7www9NlK1H8mLt2rXhJ598Es6bN2/PmDFjtnXt2jWuefPmYcuWLdc1btz4fRE65zOHOxc5drH2pdW8p6lO7IpLrpW8I+knSemw30OBjp2Tf1uC/4O9SVZzcqk62nWG2PUV2aImaUxwqulwbTmybpr+xJA7Ouy+JlL2OZHCo8u/R847W2WBCgmbzXHZr9X8fK/23KBlqWWuzsg4NmKXFAiK6SWiF2s+CHoYIk7lEnsv35WskOw19zSxjx5DS+K3mfWiTVm7FzS8SzJZ+xqkYTutA5H02jwPj4wPPuqod36KJEZykeTqEiVK3CeS8WHv3r3XDh48OBw5cmR42WWXhbfccotJfIsJ948//vAavf8AGtDPP/88fP7550OqhZBzkKCHIUOGhLq2G9q0afOJSNxDuubwlIslBL9QOIF68eklgX2qEjsiQ66QEAHLMCXSmhwpYN4kRCaA4wxmGGB6jQqe0i3dEa9poV7pg2Y+QHMTpaUkt4Xc0UHHmpqwdOZE0h4d8O3CJ6tf8J3ZL8dm35C9GHP8DoGvWHEsSH5ilxRa6Nnuqy/wviZVzgjJdbp3D+sZeV3jX2icEnU2KMMRvUjhvmPeJSiDpMuxInqxwURtQ33j0zTeUMNyxh/Qw8MjoyO/hMCvXpKxErRH90uerFSp0uudOnX6atiwYWtE9Pbi/3Xvvfea4vLPPvtsuHDhQuMb9tNPPxnTImbGjIrt27cb30QSQ3/22Wfh22+/HT733HPhggULwvvuuy+8+eabIXJxw4cPX9elS5dvqlSp8oau4VMSXMJmSyZIoiS4iqXnAMZUI3bYn2G+X0vwrUP1nFaAj9/HkmclCelG+gRnqlNdbDpfq1VZr+mEfHOkz8CEGhUsN8vpjEmDEiPi0OsYImKIsiXnXbTR9mw2+6YNJNYlUjM2GGU0RB5Hg9QhdkkBf73YoLbuYS/JBMl9kvd0n/HVI/p2vWSXIfTOfOuePSc2KINKGc9o3Rsk5wS99TXZRx8oRN8S4OODMjw8MgPoh9DstcuZM+c5hQoVuk7ySI4cOUjy/2muXLk+q1ix4uetW7de1rdv31/Hjh37zw033LAb0oe26v333zfk58svvwyXLVtmUnZAiH7//XdT85aAgY0bNxrfPggTvmcEc+CHlpLgGLt37w537Nhhjk0baAttom20kbbS5q+++spo3zBPv/jii+EDDzwQ3njjjXvGjx+/qX///r+fcsop34r4fpE7d+7PuCbZs2d/W9fo0SJFitygeSM0DwKEJi6jvTNThdgRGIFaGXZ8r6S+JC0B9So129Da3SGxpNMGN2AOsyXF8I+KCl5TZ9rGLAe2rNVUzUuIpLUVDsaLmvGVdXSAPFIEnwAKAincvun0yYEXra81yl5589yRwhG7/w6eSCnwXPFRQEqbnnrWbADNQMm1urdPSojE/keCeZ9qGPa+8wwijDMfkhcbbNSQ+sbk1ZsvuULbRYns1TbmfUgex/M+ex4eGRX0ARAT+htSb+HuxLuNBPpkgBhaoECBK8qVK3f3SSed9FK1atWWVKlSZbmm15YqVWqLxjc0btx4dfv27Vf36dNn7fDhwzdMmDBhy/Tp0/fcdtttcZClp556KiRi99133w0XLVpkCBXkasWKFcb8iyZww4YN4ebNmw0ZO5SwDuuiWfvzzz/DX375xeyLvH6LFy82x3j11VfDp59+2qSCmTt3btz111+/Z+LEiVvVtn+ioqLWduzYcXWTJk3WVK1adX3p0qW36FzW6dxWcG6a92qFChXm6Zwnn3DCCfjPY4nDRaqshGvDNeJacc0yav+ZKsSurgRV52OSBFKUtsBNPl9CTVk6fRvhYmvGvhRBrPCFujHAgd4Bkxh1SmOCPabTZb0oY0LrH7/G0QPNn0198u1+DY7t3Ldo3mtqX19f/eCIcPw0docCRK9nUEofCdX13DQ12mI0s9HBrRISIf+o+23NtO4Z4HlwYgk/QRl/aV1y6i2O3+5W7YdayF31LFU1JM/DwyOzgN87rjsnStDu4XqEVYoAAAIXierE9DhUckmePHmuKlas2EwRo7tr1ar1lMjTW61atVrUpk2bZaeeeurP7dq1W9WhQ4f1IlabRQR3anyfJEQ0b79omRGtb8RNR67nttP8fZJdGt8i2aD1/9KxVpxyyinLTj755MVNmzZdWLdu3WcqVqx4T9GiRWepjZPV1kslZLaIlnSV4APHOWFCpTwpFi2CGzj3zJhVIsWJXVXJDMmLEqJG03LHUkwyTgK5I/olX/BOkE2P/QB1lLbOKx0rnSyEKhKkJYkJno8ggKz3gcYPrHBxNCBBMkmLY4On9H+T2T+dOZqc2OBLHQetYr34tT0OjbRJ7JIC2mBM7r2DVrrvmG8vlFAd5WHJe5KfJXvMs+CSJ0cK861rAMEbH+sZeVrPCtG3E80z3Vcv9pigisZ9Oh0Pj8wN3gH4lEGGIID4iUOSUMRQFx2tFwGGBDwOlEAEh0tQhoyUEOBBoAGZJkZHCFWlkMh5rMO6oyTUbmcf7Avt2iAJx+BYZ0o4Nta+phJIKYSN/KO01Ss0Do4UJXZotaZIXpIQ3ZMeOhCCI1ybMc9m1+NGDrNZkj1GUwKhilYnmbicmHWUX2pInSVee9VpvqCO+fBryh4KpNegY8cnyx2D9pADj86eSN0jTZSc+ZB+iF1SILce6VBig8665+drOFPPw2MapyQaqVP+0HCHIf+RwRhOLNnbpXXQ6uFWgKl/vPYTrXGbQLlnUNaQSg8PDw+P9IgUI3ZEwMLMqcvKMD2BL5a7JU9IrMZtYNBMHd8X6jDj4jtHTF5XqwNMyC9HpCwdJM7tbj2bvHa+1uNr49iTMNuEuYO1z49E7rabDtxpCAmswJk+0kzskRjH38cuuWGDeOpIekuInCUo4wPJT5r+U0N8Pncf8DHgnhnE5dazQRzPSK7X/CF6zlrruT1JUkbrFzZpgDw8PDw80jpShNjxtY/t+z3JTEl6TK6LsyXm44cltYIxIqr91bVhkrU+TlSkWK6uFFVxAkhFYpMN/2g6UTpQG+wwS8Mq8WsdG9CmRAenSB6SbDadM22y5O43yS2a30gdsw+s+DfSt8buUMCkSsBEX1PJoryegRZ6/qiUca2mMeNT4mybiNxeDS2h4/m0z7N7fvZq/a0arpP8ISFpNil8Jmn9Plq/rnnG0Rz6gAwPDw+PtIgUIXadJUsk8yXpNaku2jVMsYsl5LkrHgxXhxlrolF3xWvjIHf3qtOzue0czjY1ZfF7W2U6TDrP2GC15l1hoiCTCzFBNXW1ozX8XPu32hh7LCIq39XxBqpD96bZA5FxiV1SQJsXG5TWc0I6lNYib2do+lI9H3M1tEEZaPN4Tp2pFnGmW/thQlDGKsm3WvcjDdHq3Sy5SMu7BJTZS92SgB4eHh4eB0eyEzuKrD8tIXVIe2akY+ATSDDFUsmVkjzBuUE7dWxfmk4PDUe0IWwj/pXaBLJH9KzLQ2dJF+WmLjYat+SCrWPaU/tFI7Njv9M8Eht8o7aR/qJa/NoemY3YJQWiqKlk0S84Wc8PvnUX6z8a5Uc1fF9DgjJ2mWc8cUCGe75s/VuCMj7UNqRouUkyTvvrq2EbSRUfre3h4eFxXJCsxI6CxrdKIHVo7TJCaoWiEvyxMCsPCboFhYPBwQR1XzY61ZqvSDLbjpUPAFoS/OvoBFmXjtKaw3qpA0xeMylRueS866tOGe0dGhjbAZNU+a6gtzrbY8mrl3HgiV1SwIzLB0BM0EXPz0g9MxC1ZzX+vsZJiIyvnvXpdNo89wGBMG012GgAX9W6aAQv1W+AeO42mldHY2WMH6qHh4eHR0oi2YgdpIEyYa9IzpZkpEzOhFhTNw6fuw7BRSJsfYNH1GHZgv34K9ER4t+UGNQPjRbRdetaR/W3TQqL5AZBE0RKWnNZQmAFflM2r9kIHT9jBAwcPTJe8ETyI4v58EAb3FOEDN+6GBFhStpRicX6ca6REI29xzzTPNuI+9ixz/m++HXQHD+t/U3X/EFa3lLj5c3zir+e1+x5eHh4JCeShdjxYiYXzfMS6tgREZuRgP8QeX2oSvFgkDtoFgwNTlOHtcJ0ZHRoaDWo42kLOCeADtKWJlu2v+OzFQUeNwljkxt0xr1NRQoiIzce0NkSyRsTzFHnSgLHzAqvsTtSQLzIpRgVlNSzXCmemA3Ws0Tqnac1hLhtNWQO4VlzvwuEebbu7Sat+7eGKyQfaxxt9iTts4+m68Rr87yvnoeHh8ex4ZiJHZo5ChOT1oSdZGQtCEWYH5fcFJQLOqkDmynZbExR/UzH9Uo8aTqwc6LDig4u0LrLjcnKkrstmjdL25JaJflBBQMbyfjd/g7WmmY36LjPqC29TeqUzAdP7JIDtpReGT1F9fRMnSqJ0rM2Rs8WCZAxxX6v4b79JltnvnWS8IGDifcbbfuOxkmgTL7ICzSvi6Sa1+Z5eHh4HDGOidjxhU1Gakgd2qzqkoyO7pIXRN3uDBoHA9UhfaROyjqaoyGLCqYk6UdEpGyf4CoRqj/jiSDr/y250mhCUgIUhLdVM16WbN5P7qxW5VPNw7yGJjIzwRO7lALlyqiUQSqeGD3hMcFlkjmSpzQPDR2aup3mOUwqKIPfEEnA7Xrv6zl9REMSMF+k3w5avZPN/n3yZA8PD49D4ZiIHWkObpI8J0l+n7G0C8qnPBPkCEaJ1k5QF/aj6ZQwQUUZs9QpppNLDCJl6ago3O5MVbHBT9rm0iT985ILUSaw4mYd/+f9x0WiTd3b+9Tutpmos/TELnWRRc9YNT1rXSUX6VmcI3lB44sk32kZ7gHbzW/HafYYOuE5xY8v2iRbflVym+QSzeuuZ7alhjX1Gyqd5MeUh0fKI5uEZ6+ghJKUlLsi/RWZCLDe1JdQmov3DrVMW0sokUWdVgLuyBxBJ0wifHKiEnRI7VMnTFOKs5OE9Vif7die/bA/9sv+OQ5WJY7L8WkHFjQK31OCi3b6WtGZA8dE7HiQqPlGAd7M9GLlx0uJtMFBvaCOOp/7RZhsuTFrXiLXXdJ+bPgSxZjcd9v2E6yY4Ct1dgNSlFyhvSPaMSb4Wm3dZTpSqzXcq/mkuMCYxsspo8MROx88kbrIYpIaO3+9PkFdCUEZk/SbIAEyQRmQvA0SPjj2mmfU/UYYtwEZRN7i9rBZ+/mfpp/S/Gs1PVDSVP/LaK9FtCyfxNfA9Tha4CvN80O/RiF5kuxDkCimX06CpQNlBkX0Y0444YThuXLlGluwYMFpZcqUmVuxYsWHq1at+kL16tUXSj6RfFmtWrXvNW9FlSpVVkr+rlSp0jrJhgoVKmwqV67clrJly26VbCtduvR2J0wzn+Wsp/1uYDu2l/yh/f3Cftm/ZJHG39a8F7XeI2rH7YULF75G7Rqn9p2ndlLfHLJIu6mExHlwPpwX58f7H/94ztsnt0/fOCZiR/JbHorM+BXAufOFllU/l7PUuSw2HZAlS5vVyVySpH8Q2fqtBu1FiU0M2y/Yp/ElQS99maVktQgiEKkx2jdYoONtMW21xJLjk6ZihulwMza8xi6toG2Qy5CwGHUwJDnuZ6qpDNH0DRqSBJmEyDsMqXMfIo7oIcyzdW8hgyv1bH+vIaXUCBy6TMspsVbHJGn28Dg88HF9kuRkSa8cOXKMKlKkyAwRpPsLFCjwQs6cOUl79YXk60KFCn0hsvVlgwYNvmnfvv33vXv3XjFs2LC/xo4du3HKlCnbZ86cueu2227bO2/evPCRRx4Jn3766fDll18O33rrrfC9994LP/744/DTTz8NP//88/DLL78Mv/rqKyOMO4mcx3pLliwJP/nkk/D99983+3nllVfCZ555xuz/3nvvDefOnbtPx909derU7ePGjds4fPjwv/r06fOL2vdDo0aNlonwfaVz+SJLlixf6xy+1Pm9r/N6Sef4kOTG3LlzX6r5FOCn+D9aP5/gPn3imIidB0ADYWt0bjCdjSVL72kcNXlSyKKfTltt84FZ3/m99QleNRGtKQ1bV5TC79+YzpLjM+xrct69pPOJTpKUZgx4YpeWwXPXPyirZ7CBfg+d9CTG6rc0QXKn5DVN/6DhTvPMOr88J0zz28OPz5ZD+1Jbv6XpRzS8Xvs7X9JZ82sm6SrhkVnAxzPaKt4FUZLRkhsk90ioMvR06dKlX23atOlHvXr1+um8885bP2HChJ3Tp0+HOIX3339/+PDDD4dPPvlk+MILL4Svv/66IVqQtGXLloU///xz+Mcff4SrV68O//nnn3Dr1q3hzp07w3379oUpAfbL/jkOx1uzZo05Pu349ttvDRmkfW+88YZp71NPPWWI4AMPPBDefvvt4XXXXRdOnDhx9wUXXLAhKirq5xYtWnxSrly513QdnpEskMyTUBqUZP1o/dD4VZD431DahSd2yQJMr2gZnFYh1tTbnH3IEmLRWhM/I9ZnO8xPUXq5JC5RlhLAVEV6FjpLVyLNETy0h1HBKC1Lntq2aQue2KU3PKGOmEoZRN9icsV8C9GLDZ7T9CKNE2xhXRsGSSIJH+M81zaXI+u9q+HDkml6xs/T9FkSaupW9n56GRL4lmF2pKODlJCWi3yrsytWrPjoKaecsqhPnz5/Dxw4cN/5558fjh49OrzyyivD2bNnG/L25ptvGm3Zr7/+Gm7atCmeSmUsbNmyJfz999+NZvDtt98OFyxYEN5yyy3hVVddFY4ZMyYU4QsHDRoURkdHr2nXrt3SypUrP5klS5Y5uoZUY7pA0l+CDyDlQ0no73H84YldsgATqtUu/GnIke1Mvtf8c41vUVKgI4kKxmq7NRHk7h9NT9UrCDNvyoNIw5jgAbV8pYaWlFpyt1rTt0la6VwyUl5C72OXEdA4yK7fSFVJVz27o/S83qpnlY+UpRoSaEHEeUJQBsKzHSk2sfhyySsaJ3r3Qm3fTb/JxmbfRKt3ynA5OTMySN/EbxoiR0BBD8klFSpUuLt58+Yfi8StkcSddtpp4dlnn71bxGXnAw88EPfBBx8Y4rZ37954quMRibi4uHDlypXGdDx//vy4q6++etfgwYN3n3766aGuJ7Je13exCN+9ut7ksSX9GVo9/Mz5ePYfTKkPT+ySDT2DsuokZqiD+Md0JP2COI2/qU7k4GlgiOhjm9j4NBCWVP2iTuVSSWo4f2eJb8NFkiVq727TBjpENHkxwcdqxyATfJEx4IldRoKtkJHDfCQNCgrpma2tZzZKQlDGfAlEj6CMzRJMtHHm2XbkjnEInq2gsV3rk+fxawk59a7R/LM1v3nQJyiu9QtomDuYfJAPNY/UBvcB4o1WDr+4niVLlrxOBON1DX8vVarUxjZt2qzGxDh37tw977zzTvjLL7+EGzduNFqq7du3h7t3704xE2lGAwSP67Vjxw5z/dBgounDzHvnnXfuHTVq1D+nnnrq36VLl/5H1/+PKlWqLNQ94F1LoCH+eoUl3C//+0l5eGKXjDhBj3BNCf51VksQHazT9FXBOSbqKGn01xemdfi2JlFL7r7SPvqnmq8bfoIxehhigscPaAfngVaDclCpYSJOeXhTbEYHibfRePO8EgxEHWc051HBDZr3rIQqMQkl9xzJ45lHLNnjo2adtv1VQ1IYvaMhv1H8/Xppuo4J/vA4XiiRI0eOLkWLFr06W7ZslHpEY/R5TEzMb9OnT9+FLxk+b998843Rxm3YsMFr5FIIEGPIMiQPH0OuO0EiM2bM2DNgwICVROxmyZJlseSVQoUKXaf7dqbul/+oTll4YpfswKQTHfxhfHz6mvQM3+urv9shHbZjTRmw57S+TXZstyPXV1fNT720DbFBQ7Wfmp4/mk6Pjo5Oj9qgaEAoj5a+c955YpcZwQcS0beYWYkMRwsdHVyheXdr+LqGVMqwv72khN8BUexE38YEn0nIqfeQ5FqND9fwdBPZ6/30UhJo5QZIrpM8UrFixXf69ev35+TJk8O77rrLRJ0uWrQoXLVqVTzl8DieIHgEkvfss8+G99xzT3j11VdjAl9drVo1IosflRCQMVhCPlyP5IUndskOOhBy2fUNdhhSZGtlPqL5Bw9GCIMsWgfNwtvabp/pSGJF7qKCN0WkSEaZesDsFBUM1fHxWdpi2oJgsooNPlE7xxzyXNI2PLHzcDhBz3ol87uLUQeDbys5JokMjwk+1fAXDbeZDxzIXeKgDIbWT+8XCSXRHpBM1T7P0XwSKDcz+ydQyeNoUVlC7rWLs2bNenvLli2/iIqKMg79N954Y4h5dfPmzfFUwiMtA9P3hx9+GN58883hhRdeGMbExIRt2rT5JleuXHfp/o6RUMUq+eunZ054YpcisLUuP95v7okxqURG6EV/aG1XrNaiU3F+QAwprRQb1ItfI/XQVx1TTHCPWvT3AeYqKmfgbB4dNEqH5ijvY+dxaPRS54KGPTa4VM/5HZI3JNSzhcCtlezQeMLvgaH7nVvXBTR7P0le1vjNInYj9btvr3GSk2MeLu41e4cECYHp4LsUL158Vv369b9r0KABUZm777777l0rVqyIpwoe6RkEZDz44IO7BwwYsKtRo0ah7vPykiVL3qr7jqnW+eR5HB0OSezI98ML6HBNgaxHR380SXYpnI8/Gcc7nO1ZH5KEkCX8UGBd2sb+DyzQf2TgOOzjv/P3YHa1ue127n/hxwQLJZSNOTgwu0YHwyQ/m23stiRhvVUdQmprmLKo0yqrNo9TR7Zc43tNe+jISC9hTVhRInfpSSPhNXYe/w0i2fkII2CClEXRQX39BqiUcaVkvmSJ5m3QvO0ap76t/Y27DyD7e0cI2CBhOb62JFx+UnKNthtgclayb47D7z4lk5OnD/BuLZ0vX77zSpcu/Ub58uV/7d69+/p58+bFLV++3PjJ4bjvkXFA/j1y7xHU8tBDD8X16tVrQ8WKFX8rVarUO3nz5iVZMn7d3pf1yHFQYsdLhpDl2RIyUf9XJAvE6WwJ4c58bR0pgaKcCSr3CyWVmPEfoLbqIAnH/C/NC8SDcxguOdroTs6HpJbkQUJl/F9kklQijfQyf1Yv8X3xL3w6gXv0Sj94bjvQIyik9cjV9c/+zoKUKBBFHMNTG2frmlFdI0ad0oGl0MgNRrZ/AisosZMe4Imdx9EBPz20bbgh8NvurY+02OBcyUyRMoIyCLKw7hdOnBsDwkeRrZSB1m+5tsNX700N79L0eO2vl/ZfNzOmWClZsmTNnDlzTs2WLdurderU+WbChAm7qapA8ENGzR/ncSCItCWhMomUr7zyyr2NGzf+X/bs2d+UXC+i3zD+UfE4PByU2EGWJkjekGC2oj7qf4GdPC5paqaODGjeyD9EKZPDIV8QnGYSjvVfNU7RAl4imSEhNP5oAeG8WQJB/G9cpI5gYNBFL/Uv9FLfa3xyiLIjyep/oV9QQS99krDu3d8pEIRB+oXj9WVvHc+vVht+PKDT6muiBxdoPnUTj0UjmhrwpliP5AOavaigvJ7/piJlZ+o3QCDF1ZL7JW9pmqCM7eb3gl9eYuH3Q4qh6GClhHRDL2h4t4ZXar9DNd5Rv68a2nd6Dlg6FDC5XZAjR44Fp5xyysorrrjCVHTw5tbMDSJsKZU2ZcqUsFOnTn/nzZv3ST0n1KUnCbLHfyNJYkfn3EICEYLcTZIk1WmjNSPjNESnp4QOk4zUjSVopfjRNpB0k1CEuLOE2rIQuHMlRMS4HG9owOho0fbxxVpSwk2EuEVLyHAdGSYNuYFoIWgTmeZY7BOtHxo69oEmkdJelIp5XUJOHdqAipckluxzmMT5sJEY+CwJ+xgpOV1CqhIIIdrBtyQPStBmOpNseQnHYxuOn0AYKgQNg/bBi1pqna0hatHBq5quZerGHgqUVaKmLEX76QBsEAYv/y5adrjm8eRFv6Cwjn2e5EO1x2on7HnRtvfVtsGStJwWxRM7j5QHQROx+uVDzqKCafptPKRpXBfQ0pFCxdZqhtzx+4kUS/aQ37SdTbNCBC8fhETf8oHFbywdB2Xky5eP9yyWj7nNmzdfM2LEiPCJJ57Yh9bGw8MBU+3zzz+/76KLLgpbt279T5YsWUiC3Kt48eL07R4HR5LEDg0YhIfacBRDhthRTy/yRQL54of5vOQryQMS8gkR4UK9U8gU2q07JNSa+58E7R+mzPGSzyTfSaZK6GDZN8RpmgSyB2G8SUL9vlckP0iWSiB4+GJAKtkP0TQQCQjhtZIlEvb7rgTNWFkJxPN7yd8SiCfEkmUPSyB7iySURcE0Rzg9dfJY/0cJy8mkTUg258M+aMtFEtqAdpEviQ8kbIOgHWQ+X9n9RHE/0Ot4k/a8J/6lvV5CSpETtfzgQDPX25RRWqjWuW0hhnQQp5rlxwP4D+IMbn2NVhtSB8FjSI3OvrpvaDCOh9n4v+GJnUfqA+19n+Ak/T6663dCUAa1b9/TOLVv/9DvhcTIO/f/lhCIH4I7hvXZIwUSOSVf1vhsrUtJtI4mzQq+sCQRT/uaPePSUrBgwbHVqlX7umvXrtso3eXNrR6HwrZt20w6m549e+6oUaPG98WKFbtKzxGZGY5PH5j2kSSxw19qqARyR4QSGizIS2S+mfYSIlggU5hE6TDflCyUNJK0k3wueVpSV4KJlfUhaWjC0K6NkECu0OihEUPbRTFmjgOxe0oCsUOzhgaRdR+SQOKImKFzxqcP7RlEjZtNu7jhaOaoCci+0KhxgpBOtIC8/CB7j0kghqzD/tAMkiOJbSGXnAdEEM0lOZQgubSHGnl8cXJtaDPz0Eiyb/b7goTrh9ZyqB6993SFntJLepkhZ9bX5leRtu5afmhg6rGZ9Bftf9Fb080jxvn6eAFSSTBHjAh/tM6LDsl1Qv1Mndz3tE60rkZai/7zPnYexw98FKFpg4RR8YVo9xj9RQeTzW86Wu/MWPPhZwMy+F05P1uE8ehgn5ZtM+tFB3+abWKCJzTEBNxf88mJWTD+WHR8acU9grY0y5o16/w6deqsue6667b99ttvPiDC47CA9u6vv/4iXcqOhg0brs2ZMyf84BTJfwczZj4kSeyI3ITIuVxlECOICuZWZz5kmsCKyBxrEJ47JZhiT5W8LHE7xnTIPm+RQNQAxARtHhoxiBUau2skTmMHYUJT6F5MbH+bBKKIRgxSN0oCiWSI2TgyRBpTMFo1iBzEa7LEaR0hlWgTMbU6YNZNXP4LzdwsCfmU0AyiUSRoA6AO5vwgkBWYIaAh5BqgieQ6DJE8LorXU4TnZr10d5sXtNVuPagXdSRZThp0BGTOjwm+2/+S7xts0kv8DnUQxzefXJ+giNrVQ/KCOSeIK2I1DJRmukLn7a5NWoAndh5pCwRloL3vo3cP5ctISh4dXKDfz40SF5Sxbf9vy4kz2/JBZVOsrNYQDeBiDV+R3KX9jZH01EdgveP5kTV58uRcuXPnRkHweseOHbc/9thjdNJx8X22h8dhY+3atXEkPT7jjDN26Xl694QTTuh35pln0s97JOBfxA7ihv8bmjeyQ0N+5kswo0LcMK+xDtoyOkjIk0M/CWZbNHgQPkypmDgBhAszKn5ojozQyaIRQ2OXmNhBuNAG8jJwZBLtGISJ4sKO2KFxQ8OIRg+CdbcEYsVxnFkC0zKh02jj0KKxP4ge07TV7R9AOmk35w2xxKeO83SkD+2dC55g+nYJ5+UIJQ8YZJDr01GCaZf9VQsG6uuCly4vY4hPX1Nof3Rwptnm0KBEkjXh/GVe5LzU+wZrRPhuUIeAz+DxRUzQSh3JbWrTcnNunCMENCZYpXbP07LTTQd2/OFNsR5pH2jaSHQO0YOYkQsvVi/qWH0M4pphgzK2mt9Z4oAM57eH6TY2+F3Dxdoegnib5HJtN1Dz2+t3WkPzU9xPr0WLFryHe+TMmfO93r17m6jHvXv3elLncdSIEz744INwwIABYb58+XC/6lurVq1063OaAvgXsYN0oZX6WIKfGuU/3okfd0SOLz8IHKQsUsMFiYNc0XmiIoWk9ZYAAhAgPM70CSBRaOAwSSYmdgRaYFpFc+eIF0EOLI8kdmjpHLFh3QUS2vyMxAVKYObF7y2S2OHrN0Xi0nQwj0ANCN0XEs737fhxiBnausTEjm0hf5yXI3Y8XBA92kV7aANtrhHMEtG0OeH+MeSMl3K0rnMfs95/gzQpMSJy+OM4ckfyYEqYpQVHarQOMbqu1uF7x35yhyYvNvhAbTxXXRQazeMJT+w80i96mWj5Dvo9kWYFoveY+b1RWzrakLgt+z+snEbPCdP8Fm1k/kLJPK1/mYaxGuLLW1+/0fLB0MP40DwydMqVK9fCXr16hV988UV813z4wL+KtCdvvfVW+MMPP/yraD8muq+++ip88cUXw++++y7ctWtX/JL0B3K6LVy40JBfzI6JQU1Wyqa999574R9//BE/N3lBTV3q6/7444+mPWkZ3G/IXYECBT7Uc9ZDEqmkycw4gNhh8kTDhC9crAQCh5YFIRgCIsR8yBIkbrokMrUJ5AkSROeJTx3LoyTgaIgdplM0d4cidgj7Y/+R+Z/Ynn3TDvzhMOOyrUt3ArFD+0cgBeAcuQiYhtk/QNNHGyBzmGI5DuPnSACmPLSKmIsdScA8Sw08rhXXjOsFobT7HBDU0RzKi+2N12jhLzNX8w8vd9WAgBJID2mbXWZ7a/Ik8Wlv4493/EFptJPVpkclNg8fJBRBe2c1jNU1PD5RvQnEzptiPdI3iKq3gUw2KMP6u5ITD6K3XNN89FElZpfeOQl+evwW+V3aDy6I3g6zPkEZUfuDMk7RfimHVjIYpHfm0QdC1cyXL9/jHTt2DD///PP47vjIQPLaMWPGhA0bNjTpL9auXRu/xILkxcOHDw/LlCkTXnPNNf9anp6wdOlSoj/DatWqhfPnzzckKxJoqbp160YprvDxxx+Pn5u82Lp1q6ntev311x8VEU9tQO569uyJ5u4lPW+4P3kkInYQGYIXEmviAH5Sl0kgaywjYSBECVKDFozlBA1gwqXzhNSwYwISAMQLPzgibZ2WjKAHTJlE10LsCIBg/xAo0qtAvCBojthhImY5QQoQO6JiIWyQP0yrMHaX0w4zKASLIA3muTx25OPDiRetGppJR+IgdpA0wqkJzgAsI2ADrRyaTM4bUkDwB/tgv5wTQRmcA0SY9hIdzPHQ8mGe5rj4BToTS3ddlV/MC5YvafLTRQdDDvvliXmGxKYJhIlouXdF7SCxxx90OJC3mOAqyYr9nQptjRbZiwme13gPXYXj4fPjiZ1HxgMEjyoZaPXR6vXUBzdBGbH6Ndo61Us13Lqf0LkPLkf27AciCce3SNZISMnypbZ5TOtP1bC/3l2NtQ3v6cMOxsiaNevUTp06bSEnWWJN2+EC4jZq1Kjw1FNPNQQP8hOJt99+O6R+bKtWrcIZM2aEq1atil8SmmPu3r3byMGOD3lieWIS5eCW79mzBxNg/NwEMI9lB1sOWHaoYwCWLVmyJOzXr19Yu3ZtQ2LXrVsXvzQ0NXEfffTRsH379uEpp5xCepj4JRaR7YxEZJvcOu5aJNV2iN3tt99uivYvXrz4X8sTw+0zqXNjG+Yjbnt3zP+6HkeCV199NezevfvOXLlykbkiLbj8HG8cQOwgaxAZCE5i0x7TkCd8zjAvQmrI3UaABCbLuRIiYBmiiSM6leAKiA1wGjY6VEemICL3SQjKgPihCSNQAS0aRAlNF9o8R+wgYywn5xxaOMzBmNRoN+vfL8FsTHtIaEhQBu1GkwUZe18CGWX/+OBBYi3hsseAlBEpi80egoopGJ89iC5kkiASHhz2D8kkKhbCBwFlfcy3RAJDPomi5RrhF8j29SUW+MRF6zwwyULs+gV7NP2+pg8vuzbEiYCF2Hh/PUvu2Acv4eMXKZsYZxjTLBG9z6ptkaZZSpNhOiLZcWoHf3hTrEfmAGTPukfU1G8NLXoPETiCMtDKPafh1xJbSYbfJoK51gnT0SY6928Nv9M2H+rXTALl2yRjJGdJ6h/MRzh3ttzN8ufP/8bkyZONOfVo8dNPP4UTJkwwpI4ExgReQAwAJATN1dChQ8ORI0eGd999934TJZq+K6+8kgS3hgydd9554UcffWRIzd9//23SZ8yePdvs+/TTTw9jY2PDF1544QBT7ptvvhmec845Ybt27cLOnTuHM2fODInkdcBUCQli2aBBg8JbbrklvOOOO4xp2AGz6VlnnWX2Qb4+ppMC5/TZZ5+ZNmO2htgtW7ZsP/n53//+F950003h2LFjw/79+4dPPfWUmQ+4Rpwfx6C4PqTPnQdmbM6VgAPuBW299NJLjfbv5ZdfNut37do1fOSRRwzZolj/vHnzDEm+9dZbjTa0S5cu4axZsw4wD0PQXnvttXDw4MHmuFw/2g+IdH7nnXfMObA91xgT8urVq831Egkz24wePdqc17GC49G+okWLfpQzZ06CKTM7uTuA2BEggE8c2rakAAmC3LmoVvKw4W+GyRMzK5ozyAl+VJgumXbECQdatoPMOZ84iBIpVdDQsZxtichlOb58NC6yPBlmX5ZzXLQ97AtfPsyYkCzMyLQFcyqawcg8cewbLRqEjPOEALH/yHXYB6Zjgi8gdARusH8ifNH0cRyOj+YS0ug0bBBNSCaaPUiDM+9ibkRjCGFMOA7EjDQHUcGbetHayhK2sPi1xuxxOCBfVR8R4djge0PsLGHaonl3SSCVaQfRQQvJTWrfb/s7DBy8Y03Firt0DQi0Sa2UDJ7YeWRuEJTRX79Jat/G6p0Ypd8DrhNo/W1U7WbzPkkckIHw27XJk8m9t0jDpzS8WQLR66/pU4MRQUX9VSheuPi1nU/r/Bv+YscC/OomTpxImotw0qRJ4XXXXbff9ws/sAceeMAQFuS+++4L//zzT2Oeg4RBthDIx2mnnWaIIcXnv//+e6Pla9y4sSEdLG/evHl4/vnnGzIFYXz33XcN8UCDBrkj8AMChNYMEsY6L730Ujhw4EBD3CBLEC5IJESKddAuQsQwFbIP1mOfaOYgUZFwxG7q1KmGpHKe7MclbUYrBenjfFkOwQUQWMymffr02d9OiC6kizZCJIcNG2bkqquuMutwLbgu7liYyiGdtJdtHnzwwfDss88229D+vn37EoUaLliwwLQb0vjJJ5+Y+8J6bp9oVjG5U9cXEsr1ZVsINNcTP0iSDXNstoEMsmz9+vXmXI4FH3/8cdijR4+/SpUqhTtYZL+eGXEAsfNITRBMgEmWlyWmEEyysUE386V9OOgeFNM+LtV2fxpyZ1+6RNreEPQ8rBJwqQerORintn6l8Z3724v2LiZ4Q/PpZlLDNOqJnYdHYlDJgqCMaNGy6GCmxp/SL/IjDZdJ/pBs0bT9zUYKBNB+VPL+oizaQs2/OWgfXJe/Zv4vr77+6n1r1qyJ73qPDhC7yy+/3GiRrr32WkPEIF8QjNdff90QHbRN06dPD++9915D7CAdc+fODb/++uv4vYTGZw2i8umnn5qapGihOnTosF/Dx37OPfdcU8qKIAWGzEPLBEiifPHFFxvCyLhrF9OcI+2ZM2eO2S/b0g6WQZzcPiA9EEC0YZFmVuCIIOQNwoW2bNq0aUZDyDIIJeZRauhCDtFUQvogeBBTzhmgjWQ9SPDPP/9syCJECuLmtI0cv23btobAoRFEk4lGlGsEaSZpNASVfRCcgsaVNkHk0A5S8ot20j53fzk3yOVdd91lrinEjmvhNJSY1CGrEDlnCkazyTVOKlDkSEG72Xfx4sWxuDk//swKT+yOG3BMjgru04txT7w5lUCKBZqHlu/wQJLT6OBabbc64iXLi3icyCLm6rQDfOpigtPUXiL51hoyS3vRABDR11eEFE3m4RLbo4P3sfPwOBjwAeb31zbIZzT/1h8YbRz1az80v9PoYJ3G8cXbYwidsxgwdP57Zwa7c3fNvePhVx8+ZicqtGsQKMgGJAZyh8kUAoPpFWKAWRHSwDQaOcyEaI2oOUuEJ4LGD5KFtgzz5IUXXmiICsQFYDpEo8Ux2B6ixjHQiLE95IftIW+QGdaHLEG0HN5///3wggsuMCZOjnPZZZeZbSCT7AOtElpDiBn7jQTkjW0gU5wH2jpIIMSMbQloQDhXtGjU1IVgQaAgbmjDWA+yxLmifYQoQvg4HkTRVfhgP2jOILiAY0DSIMhozx566CFDYtFIOqB5xbTKcVgfTR3XC0LHcdHIoSnEHA3xxiRNu1wABuswj/vEeTLN9U3OKGbdi7jKlSsvy549u3P3yqzwxO64ok/QTS/D983LkBdjX70wo0Q6Jh9BhCspCmKDu/Si3bSf3NnUB4OPU4DCwWEraZSTTJD8ZM7ZnjdCYMVLOpdumkop06wndh4ehwtIXo+gkH6TpYNeQVX9VhvrndVP75ep+q0u0PBzyT+G0LnfMu+fPkFY47wavy3636KN8X3uUQNiBwGDbEAIGN555537zZaYX9HMYY6EEKEpA/igNWvWLKxVq1ZIMII6fGMqhYhAPDDdQtKc9ghigqbLBSWgUYNEun0QqXriiSeaeWjg0MphpkVr6IAfGYQIskf70ACyTY0aNcw+atasafaDGRLNVyQcseNcMXmyL9oDkXv++efN+UGqmI92DWLHuRIJXL58+fCkk04yx0AYx3TKupBNzpXr4XwdIXaQQ9cGjst5cVzOG00e08x34PpwvfHVgzxiRuWack4cs3r16mGpUqWMRhUiyz7Gjx9vNJsAAsc4bWnSpInZBnLp7ldyQER3i/b/cMeOHXHzyszwxO64gkg2ko/GxOemw7wRHXwkwQH08GEdpB/XCzZu/8uVguPRJqgk7YEAklidLWZYOgXay7nHGq3lx2o3vj8p8eP0plgPj2NBY5E9XD36BHXNe4oAKSpcxAS3SF7Q++cbfZqtP7HDiWtfWfjKMdcLg9ih+br//vsNCUBzhNYLTR3mQLRjmBxvuOGG/Ro7SAjaNLRnN954oyFww4YN2+9HhsYO0oQjv4vWJLoW4gJhg7hxPLRtaAsx8UGgIEtow9A0cVxMoARYOBBF6ogdpIp2k2cNkyz7wDyMSZU2ON85B0fs2AZyiUaPNqBBpA0cH0LKOpdccokhdmi9CBogAIK2cww0c5AqCCFaS/LioWmDHDpix3VCG8i1BRAx9h9J7LjGzozKNeK6jBs3zgzRwkFaCdhAY8hxuZacG8vQlHJ/0D4mJrBoCTHXsg3EjyHru/twLNC12dWhQ4f3SpcuHVk4ITPCE7vjDiJDYwwpswQnNtiqF+Y8vS7JiXf4IAiB6Fqn/UMoLUTqg7QItHI2MepdOudfTLshd7Q7xvjr3K3Oo72uQ3LmvPPEzsMjJYCPbJ+gZXC2fr0nB1PyVsi74ta5t5ooy2NBJLHDlAh5ckEKEAfMkRAcR+wYh3wRHBFp7sREOGTIEEOMIEgQodtuu22/xs4ROwgQxyQQAF80CBdgX/iQockiwAACA8GiXS5yFWIUHR1t9kEAB9vj+xcJNIYQKfYRiUhiB5mD+KFl45jkrcOMScoTjkvb8LGDgEKgIFyRCYsJKsF0DEmD5GIyRdN2OMQOMohWFLKINtSB83ZmZTRvkDL8HiMBiaR9kGuuC+fiiB336cMPPzwgzyAEGILINsdK7DCpcy2KFCnyk55GF7SZWeGJ3XEHxMXWW8U0GWciR8kjhSPzkfibQZSiRI+IbEvQ2u3SNCQx7aqmB4nAoqGLDhar9TbxMu2H6MWYSL3+InzkSkwOeFOsh0fKo8CJxU+8c+jQoZvotI8FpMOAQKHlgdhAKjCB5suXz5ARAJFxRI0AAWcmxZ8LP7HnnnvOkDqiU9Fkffnll0YLhrbJETs0gZhB0YRBktD0QTogQWiu0LZhPqQtkB8ICsvQCrKMqFX2SToRSBSEFj859gHRhMSguaMdaBBdQIUDxA4tH/uHoEB0aFPFihXDevXqmf0zDxPvsGHDjFaNtrMN/oJo5TgGbeKYTEOq8AXEPIoW0JFJrhM+eC7VCH54aD/ZJ+cGoTvzzDPNdpA1gipoN9txD1xOPUzCzOO4ED+SJ7MtGlTMvZBHZ4rFfIs5mXvGNWYbiC+EGw3osQKSKuK5tUyZMo/o+StnH8NMC0/s0gR6irgQBEFQAVorSA0Z5P/P3nnAR1F1UfwGSKih996bdEg2oYXeO6lUKSLSqyBKUUAUEAUFRERUQKoUKSKiIJ10eq/Sey8JyXznvNmFfAhKIGUT3uF3md3Z2Wk72f3Pfbewn2N05CXpcNfcF0B0+TEgcZ3MdLOHnrLPE/vIeuJ/DuX4yT11/Cbcsfgy+8+OUB4BBne/mjTYaWnFvpJCzfLkybONQ3Q2eHoZEU44bMrAfnqx6IXiOhnjZQvu51Ae4YlgQmAiKBBsChQooOLACCCEOFvMGsGO4EaPk23fOJ+gwTg2euA4XEpQIVgxe5YeQYIiPWc2Txc9U4QfAh/3h3DJhAFCCyGMHjJCGmP8ChUqpMp/cB3MAn36nBDsCMFR4/yYScrhY8bD0QNIcRiZnjDCEcX3Eb64j9wG94Wgx+X5Go+LQMWhY5v3lB45DrXavGn0InJIlyBKsOP2ebzcF5Z44Tq5/NM1/AjbLJbM7ZYqVUoNqzKxhJ5Vfl58PyGPYjIK94XAXaRIEfUelorh0Oyreuv4fsJn4cKFQxwdHf1w/dlXbHncS4Od3chstWV2lDC9bTcANR8poImOzEzZMQrubEObLEXgK++qEin2KsbusOAp6/mxDIxtaNr03LGMy0JYE+n9SsUn9VCsllbsi8lPzsmSJfsOwBMJcHjp7FgWnyVA0UNG4KIR7jg0Ss+RbRl2nCBUEGYoet04DMkeswQxAh+XIXTQc8V4vaheM87newg2FIP9mZTBIVpms3IokdvlNqIOo3LfOOxJY1IH67YRtGzi+gg03A+u53mlPQgnXC/Xx+1QhCFul/tqy94lLBKwbMtQPH568rgNehcJUzZYinpcNpjkMXAdfB9lOx9cJ88fpzw33DaHvnkeuV9Pi+vh69wuh1lt+8Rt8zW+x7YNio85DM5zyvfwse3zehUBDh916dIlMlWqVGxMwNGduKqLaq/SYGdX8pLugJfjUbx2JzHPO9qequaSH++aDjiydbfguo4CErtKA1WI2X5FkGVdO8YHsqQCh6YJeKx5x24bLOXCzNqXkwY7La04UtKkSRvlzp07gMN+UUEkMYiwRJCjR41GTx27LHAIMmpbM63YFeGe8X758uXb4+joaGth+rpLg51dqaXkBtB8Bai7p2DMBLLFABlbf90XF+vhsU+kr9x/PCzrIwEKFGO3VlzMqI1Ux55+i/0/p/afZsYfnsP8zwCArqqLR/SkwU5LK+7E7jy9cubMeYoxWAm5Qf/TojeK8WUcgm3evLlK1mC8WGI6RnsXC0lzCL5AgQLncJ2xI9TTrVBfV2mwszuxhACzW21g5ytXlZeKbcSiK2bKsjYcix9zXabn60885wdv/+5qNjT3kuE4H+zK8fDxMfjIA8xbg3me+Bed2EEdY6elFYcqXLgwW0y+ny1btpOML3vWkJ6WVnTFOEpCXZ48ec7j+hpbpEgRtjHVMqXBzu7ERAIfGQALj+Jp2wyQaWRd4sXFIVwmJXhLICDIFrPGxt5szF/KupR9i03GWbTY3OebUYD3EZ4ze/gjVTz1xUBVg52WVhwrZcqU/Fsblj59+tO2Mhu2EiFaWtER4wSZLMMs3syZMxPqxiRPnpz937WeSIOdXYrQ5SVLADMPFIy1lfuYtwDzolfbjiIoeklHrOu4itszPV73YFPtrqfs88ROHByO9sWFyhp3jBu0Qa+vXMK5WQiArWVd+t+kh2K1tOJHDGrvlj179lA2qv/ll19euXix1uun33///T6Hv/PkyXMQ11MfmL5B/6c02NmlWNvOW+oAYvYoGOsA85ZzgJcu6rXoimVQfGQY1nFdxamZXkBmmg4D8qW3LmX/Ysavj7yDc7IBUxPuzLi7cBzbHzjOtzCPQz/PkwY7La34E2OgmqZJk+an2rVrX2JNM5YV0dL6L7HMC0vU1K9f/1r69Ol/xnXkBUs4v11xKw12div2eWXZEg4/El58FbxswLTSSyQN2LJNZwDqbkTJuj1hhcV01qXsX+w36y31AXPfwf5WkPrkeNik/AvMr6yW+6f0UKyWVjwrS5YsZR0cHMalS5dua/v27cNZ84ylL7S0nhaH7VlX76233orMnDmzPy6fz7Jly8bvca3nS4OdXau1lAGkrJW28sg6hHoX4DJBea5eRuzv6CNzAEP3FRARhthTlh0rOGSbkMRhaR8ZAtuNYzHPD42xhDxn3tJCNTD/f2mw09KyD6V0cnJq5uzsPD9Pnjz7unTpcp2FfdkSzNb6Suv1FAsps4Yea9316NHjVoECBQ6kTZv2Z0dHRx9cN87m5aP1L9JgZ9eiZ85HusAOKGgxvVInAS8trUtEVw5Yhwfe/wvWaYKQn0Tg+XpYA/V6QpKXpFHnwkf+UHBHWDWBlQkie/D6EBxj1KFZ9s3VQ7FaWvYhhpVkSZo0aYssWbIsL168+CVvb+/rc+fOjWDWIwv0ar0+shVHXrRoUWS7du1ulCxZ8kq2bNnWAuh8cZ0wRjNhOR/iTxrs7F7tJRMg5XMAjC1ZgMb6dGWsS0RPjNFrLU0w3a7WZRYwfoBt/IJ5Fa1LJRzR0+gtboC5iTiGUwp+bUOzPnIGr/Fc1bUuzebQGuy0tOxLBDz+bbbInDnz125ubn+3aNGCvVsjNm/e/Gr9prQShHbu3Bk5atSoCCbWVK5c+Xz27Nln43pgweFysOiX+nq9pcEuQchHasC2P/ZItVH9X0eqUiAvI9bEY6Fib9mr1mfG8DHzdh5eK2ZdKmGJxZ0ZL2jGIZrHRMCjZ9JX/pI3pSNQrhmW5MU+GKbBTkvLzuTo6PgGJh1gY3PlyvVry5Ytb9iazbNtVdQWVVoJV/TOsR0Zu3ewc4Snp+edAgUKrMfn/insTVwHBDqtl5MGuwQhJjd4Sw/YFeWJMjNBg2ANrUtEX6anqzfspII7E4Iewj5NMGVQniUmVrA0jJ9cUMfF4WbTK3lIaslCyS6zJIkMwZKZzDdoaWnZoVImT56cnvaPYauyZs26o127dufZ3YGN+m39W7USjtiGbceOHcaqVauMqVOnGp06dbqcN2/enfh818AmpkqVqjGmOobu1aXBLsHIUwqLr/wIaAmzQlgYns+WFq8AKCYwjsO6bkSJ4buA+X2UVy+hyk+K4Nx8hGM5jGMLV4DHY/MEuNaVY1JCvpNiCdQzqaX1eokVALI4OTk1zp49++T06dNvS5s27bHq1aufHDFixJ21a9cahw4detzons37teJfjI+8fv26cfbsWePIkSMqEWL06NH3ateufQqf4XFnZ2f/HDlyTE+ZMiXjxVmfNfqVHrSeJw12CUZMpDC7SBxXYEcQY7kSL+mOxy/f2N9HCmE9s9XwpQ2AOETriTkJWW0kA46tOWw17Em/XF+JkFZySVrLKMzPY11aS0vLvsX+1plhbB1VM1myZAOKFi26onjx4uffeOONB02aNLk1atSoeytWrFCQxw4FkZE6PC8uxfPN887EF2Y4jx079n6rVq1uli5d+gE+p4uwNSlSpGBPV3piC8PYDlInRMS8NNglKBFWvGU84OSigjtmtHpLMKbu1iVeTny/r6xU4EMAIuSZsWrMlE24MmveucC+wLFcVUPYPD7zGP8G2M0E4FWzLq2lpZVwRMhjHFZ9WHsHB4cxAIiVdevWPQXIM7y9vQ22L5s6deqjP/74Q/eojSWdO3fO2LhxozFjxoyIQYMGRfr4+Bg8//Xr1z9Trlw5ZrSOw+fzJoxhQxVg2WBasSsNdglOflIcQLJMedbMIVlC2HjpFK1m+P8v9pQlxHnLzsfr9ZUwPF+JaSXrUglXnlIAx/IujmWnOl8EO/PcPcCxr4V1xGs6mUJLK+GKf78esE6wEbAvnZyc5pYvX36Dl5fX6d69ezPr0vjss8+MWbNmqTgvdr0g8OmEjH8Xh7c5pBocHKw8cbNnzzYmTZpkfPjhh0bfvn0NwNxZFxeXTalSpZqH8/4VbBSsK4yAoUdF4l4a7BKkfIEl3nLU6rUjoBzBPD8ASvTbjdnETheeWJO37FKeOzNBgwWR50hrYaZawtYiwGtN6YxL/oC0wnHZvJOc+shJHOc4aYk7ypfp6qGlpWVv4ndhSViLFClSDEmaNOk3eLwctj5btmybqlevvqtz587nR4wY8XD69OnG0qVL2YfU+Ouvvwx/f39j3759xqlTp4zLly+rgskcYkyM4vApj4/145iMsn//fiMgIMDYtGmTOh/Lly+nN44QF9atW7cLtWrV2pMrV67NPI+wFTiv3+L8suB7axhL1qSAacWvNNglSHVUXRemAOXCFJiYcXE/w+jqfnmZBX97Yj2HH4OPj9zG80l4ztiWhK4KkgF3lO6yGV9DzJp9UtTY9N4tw7Q2gDm1dXktLa2ELd6osb0gQY9/1/weq5E8efLOWbNm/SRPnjyLc+TIsT19+vRHYKcLFix4omrVqif8/PzOvvvuuzc///zz8J9++klBTkhIiHHixAnlvTp//rxx8eJFBX5M2rh586Zx584d5f2jh4vJA48ePYqzOD9uh9vjdrl97gf3h/vF/SO4cX+539x/QuuuXbsMDlMvWLDAmDJlSvjQoUNvtmnT5lyNGjVOFC5c+ETGjBmZ6HAU52dH3rx5lwGIJ+C8dcP5IzgwRo4ZrIyR4/nVN8T2Iw12CVa+UgsQ8ifMBmD0ro0EnCS1LvFyYiIG1+Mj5x/Dna9cx3qHv1IGrn2I4DsGX0cfSx0ZiGNbq87fk+N8gGMPhA3EYz00q6WVOMXvyDQwhq9wqJCQUgLmBmOW5ttp0qQZkT9//pmlS5deW7FixVAXF5fTFSpUuFWqVCmjXLlyRvXq1e81bdr0Tvv27e/07t377vDhwx9MmjQp4rvvvlO9TVevXq1iz1irbffu3SozlB6xS5cuGTdu3FBeMkLYi4Ifl2PtN7bbIqxxPRxGPnr0qFo/vYz0NnKodPHixQb3A1AaMXLkyAd9+vS526FDhzvcXw8Pj3vY/0geR/ny5W9XqlTpDGx3mTJl1hUoUOA7Z2fnD3H878BawSrD6PUsAssL4/nieXtWH24t+5EGuwQrete85E1AyBUFJhyWZYxca6lnXeLlxWxReukIi0/WfUo85W1s8+WHe+Nf7BXLApiD8BVVCDDHxIrJsLOPj5PeTz85iWP/AfNrqndpaWm9LiL0pYOxl3RxmCusFow11jjc2B72Nqw/bHjy5Mk/zZw587SCBQvOKVu27C9Vq1bdXLt27dCGDRsebtas2ZkWLVpcbtWq1W1PT8+HXl5ekb6+vkabNm2UtWvXzgAYPjY+b9u27WN73ut8L9fDBBGul+tv2bLlFW6vUaNGR+rUqRNarVq1LQC3VdivuVmyZGFZkQnYX8YeDoB1h/E4PGFNYDw+Hifhli0Y2WNbw1vClQa7BC32QfWR+bAwFRPnBxDj8zaSz7rEy8sHf+TeshDTJx4tFkX2lqbWJRKiCHa2lmJmsgkh1gtf0t6yQ0EdzyONmcE+sg7WPhF4KrW0tGJWvMHNCKPHjzUxy8OYYd8I5gXrCCMA9oGx0w3j0EbCRsNYdJk3mIStz2CTYJ/DvniGcT5f53Jcnu/j+7keJilwvVx/XxiBjdvl9rkf1WFsE0lgo8eN32MJ+cZc68WkwS5Bi94z1rbzkVCAV6QCEm+5COuN+a9eYNgbXwxeskUBjwl2XP9vsFeL5Ys/2cCOX4ZPhlpZFoU177xkDSDW7O7B4yXQ+shhzB+GaVG1nJaWlpaWlv1Kg12CF/vF+qqYuAtqKNGEr61W+HIwF3pJse2YJ/55y/4ooMNYvnmY8i4woSmqx+7/Y+gYm8jsX1/8QfjIMViEOl4zMeUWni/Baw2wHGNMtLS0tLS07FEa7BKF2LifHRYIdiZ83QOMfILHrz4kS3D0kp5Y5+HH6/eWm3jOGLxC1qUSiqJ67BhD80/5SjbAXGsc25PEFBPwHuB5CF7vj8csjqqlpaWlpWVv0mCXaOQlnQEchx6DCDsreEoX66uvJsaYMSuW63yyfg75MguXff4Siv4b7CjWsmPihLd8A5i7qoCWxmP3lROwL3CuX63bh5aWlpaWVsxLg12iEctz0EvnK/cUeDHezlNWYV4p6xKvJrN7wwSs/7paP0HHT45iXj/l1UsYejGws8lPiuD4PgDcsQRKhAI7mrfcx2srALXtEhjYamlpaWklbmmwS1SiF4k9Xp8kO1wBkH2oukrEhHxVDNq3WO8TePSVPdhmW+mdIJo5Pz/G7nligoq3tIAth5lQazNvOYFzMRxWFEu+WjyjlpaWlpbWq0uDXaJSf0kJ0OquAOSJdykQ4NFcRsZIRqcD1l8GsLMa6wxX628jkXjsj/mshWTvcBN9sKPMrFmWf5kEu/h/cOeDc81kEkJ1wq7xp6WlpaWV8KXBLtGpnRQGaMwBcNyxDpc+xPPF4vkCQ48vJgdpJfUVzBFsCHe+8gjPl2E7MTPsG3uK3lDs0/KSvDjObjinm3Cs5rHTmCnsI5txjnupdm9aWlpaWlrxIw12iU6md6kywCNQQQfhzqxtx64RMVOqo6I4Yn2dYMfUcKzpuboHwPtSxeLZr14N7CjWB/SUWjiXX6vzakus4PA3Yw595CvMZ2siLS0tLS2tuJYGu0QrTxkBwLimwMtPHuHxDszzUBmfMSH2lGXh3jZyVoEN4c5XrgBsRmG+vXqtXh3sbGou+XGcjK/bo6COEG3GHPJcMx6vBc43K9NraWlpaWnFlTTYJVq1ljKAi58BXI8UdDCrk31R2YYspmS24/oU01tqG6bn7hjm9QfspbYuZU96uRi754keUG+gnJmwcuMx4LH+nY/shg3COSmI5dh/Uiv2xNhOxpCmgPG6Y69PQnVWGD9ntn1iTceCMDZ8Z1NzJrywFygLbbPROe0NWGlYWVi5KMbnZWAMNbAty/fx/WwnxXVxnazrmB/G9k28ceANDmsesvcmM8eZxMQ4zJi5udLS0tL6pzTYJVoRJliOw0f2KeCiectJzPOzLhEzYqast3yL6T0FNTRfCcW8DmrY0r4Ucx47m9idw1fKwz7DMf+Nqc17Sbi7DvsJZ9xDuomj9R1a0RdBiHBMeON5JBzx2iI0EahcYHVgrWBvJkmSpE/atGlHZsmS5fPs2bPPgi3MkSPHL5iuh23JmjWrf+bMmUMyZcq0N3369AfTpUt3NE2aNMdgJ1KlSnUqZcqUp5MnT/63zfic81OnTn3S2dn5OOwo3nc4Q4YM+7GOXVhfYLZs2bZjGxtgv+bMmfNnTOdg/lQsNy5FihTs5dkNxr899vCsCiNA8iaLwMeMch4Tj43HyOPVWdZaWlovIw12iVptJANA7tPHsEGPkpcsAYDEXK9XDu36SiWscwWmD6zDsvQOBuBntpGdAU3Mg51N9IQy7tBHtqlzbYNcP7mPeVtg3fAvZsrOvB4itNEz5gHzdXJyGgDI+iRp0qQz8HwBbDVsPQ3w9Gf+/Pk3ly9ffmft2rV3tW7d+nCXLl3O9evX79qwYcPufPTRRw8+/fTTR5MnTzZmzJhhfP/998a8efOMxYsXG8uWLTNWrlxprFmzxli7dq3x22+/KeNjm9nm2eavXr3aWLFihfHzzz8bCxYsMObMmWN8++23xldffWVMnDgx8uOPPw4bMWLEvUGDBt3s0aPH5bZt255o1KjRPnd396BixYptA/BtxPGofYetgy11cHD4Hsc3GRA4HGDaFfMIgJVg9DTqbGstLa0XlQa7RC8vqQrg2KqgjqDRRq7i+QTpHKNFhR1U/B7bcHE7tmQCb/kDU3on7EUxOxT7tFjLz0eawObDrqnzbUsu8ZaDsI+ktfqx1jLFIVMOZRLefGC9YMNh/FKamiZNmh+LFCnyS40aNfx9fHxOAdZu9u7dO/K9994zPvzwQwMAZUyaNMmYPn268cMPPyhQI6Bt2rTJCA4ONg4cOGCcOHHCOHfunHHlyhXj1q1bxoMHD4zIyEgjphUeHm7cuXPHuH79unHx4kXj9OnTxuHDh409e/YY27dvN37//Xdj+fLlCihnzpxpTJkyxRg/frwxZswYY/jw4cbAgQON7t2732/fvv3Fpk2b7q9QoQK9iwtxHmbCJsE+hA2CdYYR+srDeA3rYX4tLa2o0mCX6MUkBx95E1Dxt4KtDgoyDuBxU+sSMSdv1WM1SIGMzUPIGm9tlefFHhS7YGcTa94xicRHQmFmxwoT7u6LryzBPC8AXybr0q+DONRIDylj1WrAeO29CRuSKVOmL8uWLbu6Tp06BwA0N1u0aGF4e3sbnTt3NgYPHhz52WefRcyfP9/YuHGjgqSzZ88qOEtsunbtmnHkyBFjx44dyoP49ddfGyNHjox85513jLZt2xqtW7c2cH7CGzVqdKZy5cpb8+XL90PSpEnH4Bz2gHnB6sF4fTOGkDF9Wlpar6c02L0Waik5ABXsGHFfeZB8VEP7+YANDvPEnDgs6yPvYFt/PwY7s8bbRGkgWaxLxafiBuwoDkH7KdBdB7vzGO449ZHDsAEwBvUntlgqxofRG5wNxkSCijAvANyoEiVKLC1Tpsz+kiVLXi9duvS92rVr33r77bdvTJw48f7SpUuNoKAg4/Lly8ajR4+MiIiIWPGsJSTx+HkeaHfv3lXg98cffxjffPPNo3ffffd2q1atbri4uNzBeb2L83kG53ZT3rx5pyZJkqQ7znlNGL2hBGomkiSEzjBaWlqvLg12r41a48NmpibBzoSL8+IrfQAbGaxLxIz8JDPAbgzWf1+BDM1HzoinDIyxUisvr9iLsXuWzMSKSjj+r2G3H58PmrecEy+ZifPial06oYuASqBzS506dc/s2bN/lyZNmu2Ojo7HChcufBgQcnrEiBF3fvrpJzU0SUg5deqUceHCBePGjRuxNkSa2GQb8uXQ8pkzZ4zjx48bu3fvNn799Vdj8uTJ4d26dbvk7u5+xNnZ+RjO/b4sWbKsAFSPxufSHMYbCZ2YoaWVuKXB7rURA/e95UOA11kFduYw6S5ARnXrEjEn9k71AbT4SvjjGnfeshfz2gNm4jMQPG7BziYfKaQg2le24bEZg2gC722cl42YdgPg2YNHM7piYky55MmTM+NzGmxZ2rRp19esWXNP3759b06bNk3Fla1fv17FvDHu7N69e1ZE0YpJEYrp7WRc4ZYtW4xVq1apeL5Ro0Y98vHxOVmkSJEt+HyYcDLHycmJcYwNYSwHo6Wllbikwe61EoGL7cYIdQQLZsuy/2nMtRt7opZSAetegW09UF5Cs/yHP6yJ8mTFj+JuKPZpdZQUOB+NcPw/4FxcVeeEgEfI9pXDeO0TGGPQ7F308DJO7m3YuDRp0vxUp06dvYyJGzZsmPHFF1+oTNN9+/apIVWt+NX58+eNv/76y5g1a5YxevRoo0+fPoanp+elEiVK/IbPbypsCKw1jMO2WlpaCV8a7F47+UgrAMQRBXYEPF85iuddY8GTlgRbqont/Y7tmJ47JhIw5swb8+OnaG/8gZ1NpjeTJWiOKNgl2JnnhrGIc2E1pLndBb8zRovQ2Qw2tGTJkms8PDxuNGnSxGCW6rx58yKZfapl/+IwLhNRPvnkk3AmqdSuXdtwd3ffnS5dui/x2TKhhVnsjL2N77AJLS2tl5MGu9dObPflIx8DrsIU3BEsvGUN4Cs2Yr0cAC+eWP82BZGmdyoS2/8J0/go+xE/Q7FPi63GfKUjzsNfsLvqczCHZh/BgmB9AcX54jkmkYVymblbKmXKlH0KFy68Pnfu3Dfd3NzujBo16vbmzZtVQH9YWJgK7tdKWGKs3sOHD42TJ08a3333XZivr++NQoUK3c+XL9/hXLlyTcHnXh+WAxYz/aW1tLTiShrsXkOx5pw7YGs94MLWbuwOgO/jWAGJJpIK2+sCWDn4GO7aYHs+8g3mF7AuFVeyD7CjzJhHDld/iXNx8THcmcWkL2D+HJibdem4VtLkyZPXd3Z2ngnbWb58+ePDhw9/8Oeff6rabJcuXdIwl4jE+n5MZNm1axchz2jVqtWlbNmy0Yu3OnXq1P1xPcTv34qWllZ0pMHutRRbfTGRwRtAYYvz8pYQWH1VpiOmRQ8Vy3twe4Q7bpNxZl4yWhrHcFbuv8t+wM4m9pL1lL44PyHqvNDMmMR7mPcrrA3mxUnf3Xz58qV3dHTsiIfTs2bN+mebNm2uMwFi3bp16odfK/GLXlh/f39j4cKFxpAhQwxXV9e9uB4WwUZkzpyZpWu0tLTsWwkG7BjzUQvWBsYaTX1gA2C8m+wN6wJjn0j2jNTFOV9EbVVtOyZS3FUwYba+WgHIiJ0gal/JhvVPwjbNmm4mTJ4C3HWHxVWmbPzH2D1LplfTB/9+gV1TnjvzM+Hw7G7YcJwjNqOPLRGum8A+fuONN4LbtWvH1liqLInW6yuWU2H85IABA4xatWpdS58+/U+4RvhdWwqmpaVln7JrsGPANnuaeqdLl25c+fLl//Tw8DhXrVq1R5gatOrVqyvD43tVqlQ5UqRIEd5ZEvgYH1IUpnssPk8ekgxgxeQGs7cpQcIcku2vQCM25CfFsf5F2GaY2p6ZKRuKaeM4gjv7BDub2uEH01vG4ZwcwDmJtA5b8xzdw/P50loaYl5a69IxIZ7zMrD+BQsW3NWwYcNH48ePf3j06FHrT7uWlmHcv3+fvXEjOnXqFObq6notRYoUs3DNNEidOjWLUGtpadmX7BLs+GNTKEOGDAPy5cu3o0CBApebNWt2eeLEifc4JMQ6TYzxuXnzpipsyhZDrJG1aNEiY+jQoQzuvpY7d+6z+fPnX4L1tICxmbguyPksMTPVR4YCJi4oiDDLn+yAsbZdbJyzJNgme9duAMQ8skLLIzxfL+w1G/vJAvY3FPu0WBbFC2fH7O/7UJ0jeu7aqPMUDHs7hrJmU6VMmbJ5njx51pQuXfo821cxfi4xtuvSenWxdA3bnrGUTZMmTW7nzZt3b44cOdi/VmfQamnZl+wL7Dw8PJLlypWrHR6uKVGixNkxY8aE7dy5UwVss9I6M7meJxY+ZbNv1s9iI/Bu3brdAxweTJo06QyAHodotZ4lPykCuFqiPGgmaIXBJuNxQesSMSt6CllyxQ/g8sQjxW3Ox7zY7sJg/2BHmUOzHjgns2C31DniuTKHZo/DpgDCXyWrmMf+AX6Y93Xt2vUm65zxZklL679E8GfXkC+++CLcxcXlXLJkyX7GtcT2ZfFRvkhLS+ufsiuwSw8QG5gnT56tnTp1ilyxYoXyxr2s2DCcjbTr1q17FetdkilTJrbU0XqWGKDvJ/ujAMQZ8VbNxWNHTAbwks6Ak31RtnkT25yBfeEQemzJvodin5aPlMB5GoTz5K+8qU/g+yaer8f56iTdJJ116RdSzpw5y2PyZZEiRc6NHTtWZUJqaUVXV69ejeAoScuWLSNwPW2AtfXy8orWtailpRUrsg+wS5UqVQ7A16AyZcqceO+99x4dOHAgxppG/vrrrxG+vr5h+fLl+yNt2rQNsDl9Z/m0zMSGYQCFewoczHg7FhKOvU4I7SWTeEo/bPeM2iYzQf3kErY5QVqq+lmxoYQFdlRv1W+2Jc7LYkxvqs+GIMzzxVg8fm4EwP8Q/hQ4tM7P87sKFSrcnT59OofWdHNWrVfS1q1bDSbbpE+fPgTXVsfChQvHZAyolpZW9BX/YFexYsV0KVOm7FmqVKmTH3/88X0Ouca0AgICHuHL51auXLk2AiArN2jQIL5aWtmvWssbgAfWtjPBwVeuABgmxmoXBLNY8miYWcfNLPNxHs8HSwtVHDemlTCGYp8lXymD8zIV8HtafUY2T6ePXMfnNgufX2U8/7cf1eKwmWXLlr25ePHiRN3u6/bt28axY8eMixcvxkq9PfZlZe03Jpkw/ON1F89Dly5dCHc7cY35wVjcWktLK34U/2CXNWtWv3z58m0aNGjQPQbnxob45b5t2zajcePGl3Lnzj0nS5YssVk6ImGKte04tEcPGr1CptduP563AoDFXsZqR8Cdt3yD7ZhlUAgs3nJCJRDE/HYTLthRJgh3g23DOXqgzhXNRx7CdsLeeY63M1OyZMlGFihQ4MGCBQsSdYIEoYt12Lp3766K7TL2NqZFKGYs76RJk4ylS5da577eYhx0+/btI5ycnDgsG1+FtbW0tOwA7LLD5vr4+DzAXV+sDgvxy3jlypURxYsXv4ltMn4s5gvxJnT5Sk7AwUyYOeTHzhResgzP81iXiB21ljIAleWPPVFMEjCzc+tYl4gpJWywo5qJM86LC4zxiNfV58RzxnNHb563TMNn9vSNi1+5cuVOfPLJJyqTPDGLYLdp0yZ2T2CAv+qNGhuix45eQe2xe6INGzYYLVq0eJghQ4bZuOZYrkpLSyvuFa9glzJ37tydS5UqdXDmzJnWr4bYFUukdOrUyShQoMByZ2dnd+t+aEVVW9xts7erDRi85SqAoQcex26HCD+pj23tUMOxphcqEs+X4nFMVrtPeDF2zxMLSfvI+wC6Pep82bysvnILYLcE57MFITC35M7lIA5ft23b9rWAEIId4754vOyawU4KzxK9+GyR1rt3b6NNmzYGE0lOnDhhfdXU8ePHjXHjxhkdOnQwPv30UxbrNdauXWtcuHBBnUs209+/fz8TCRTUrFq1yvjyyy/VsCQ9hhzyTuwgHVX0BP/www9G3rx5DyRNmrQxrtLYqYeppaX1b4pXsMuaNm3aVf3797975MiROAniZrkUfJk/qFOnziUnJyf+uGv9Uw4AhmEAhMtWUKCxMX1D6+uxI7Yy85KO2NYRBSqmF4pttWbicUyVXkk8YEc1kLSA3w44R2th1x8DnvmZ+Usred+psNPISpUq7fz2m29fi+auLwJ2HJ5laEa3bt2MGjVqGPXr1zdq1qxpjBkzRnVboBjryxtOvla3bl2ja9euRqNGjYy33nrL2L17t8EyTAMHDjTmzJmjgHDkyJGGj4+PgkB6C8uXL8/QDwV8/1amKbGJoOvt7X0FN+1f4wotbF6oWlpacah4Aztm6JV0dHTc9/3331u/EuJG/FLnly+2PwOmkyieJV+VSPGj+FmLCNPYtN9L8lqXiB3RK+glfbDts48hxRuA6S2fCVugvboS/lDss9RTikp7GYtzth/n6YGKVeRwdmt5KNXlQpv+fjdDQkOsfwGJWy8CdvTEEeI6d+6sAI3euxkzZihwYwmPhw8fGuvXrzdw06k8UBx2PXjwoNGxY0fGkalSSkFBQcb7779vMGbx9OnTxocffmg0a9bscczdL7/8otbH7GOOFLwu4rmaPXu2UbRo0YO4MmuYF6iWllYcKt7ALgWsJf7497ObRFzrgw8+MJydndl+rKTaG63/FztAeKoSG7sVIJhgdwrWzbpE7MkTwGXLlCXYmZmffwP4hkgnyWJd6mWVKMGuogQ6ZqhWL0+qesVHJGuR7qT4JTHBzgfWQow2n7U1Dpw+aL36E7deBOwCAgKM4cOHK5jjMCoVEhKiPHAcej106JAxa9YsBXYEOorrZcwe5xHsAgMD1fcIm+XTY/fxxx+r93M91N69e42+ffsavHG1beN1Ec9vuXLlrlmHY7W0tOJW8QZ2mZycnAY0bdr0GL8E4locYilTpsyf2A9d1+55YpkTb1wYhAMzW5Uxb2tgsd/Fw0fyYzvTxTdKcoDZcaELAC+NdamXUaIYivUSI2kF2VPIVQLquUlAdzfZNa6yHPixotPGwKI5J93O5N7AcGidwuCCqetkCfts7tfh9x69Hq3CXgTsfv/9d6Nfv37GTz/99DgGjl43Lk9PHodpmWjSq1cv49SpU+p1it8bQ4YM+QfYMYli/PjxxuTJk9Vjilmz7733norLe93ADscbBtD9s0mTJrrjj5ZW3CvewC53+vTpP+nWrdtF9n6Na3GYpH79+iyoyZpLOjv2eWLbKm/ZhLMUrgDLT9VMmxarte1s8lYN8edhHx4qsKT5SijgzusVesomOLDzkA1pKol/MUBcTYsEtXOVoHctEjjFVYIXWiRgk6sEHsbz2+6yz6gixw03TEulW2lkL9XPSFHTNbJg3g7hn7ed9ujszi248hN/PeIXATvGvQ0aNEgNo9qGSU+ePKk8ch999JEanv3ss8+Ux43AZ9O33377XLCbMGGC6nTD9VBc5t133zXmzp372oHduXPnwt96662Q0qVLV7NexlpaWnGneAO7fFmyZJnUp0+fK6x/FNf69ddf2ch6D/ajA0yD3fPE1l/ewClvOarAihmr3nIScNVc9XyNbflINWAcEwNMr50Zc7cBVt26RHRl10OxHhKSHhBX0E0CKgDa6gLm/NwkcJir+M/E898BcUdg4ZXloFFZDsMOAeZohw13WCXZHwHwe+QhO4yqjnON8rnaGXUcOxrvl3vH8F8yD1f+6wN27IbwvPhdJj8QyjjsevnyZTWPJVIYQ8fadEygoKeNYEeAo+7fv2+MGjXK6NGjx+MYu6fBjiBpy6x9XcGO8YrMFi5atOgtXNJNzCtbS0srDhVvYJcrQ4YMYzt37nyOsShxrSVLljALzh/74QvTYPdvYjcDDov6yAMFVr6YesvP4hlH8Yme0gzbDo0S6xcJm6/KfURfdgF2HrIhWUnZkKaiBGZ2k5BcrhJc0kWCGlgksC8A7isXCfjNIv6nAHbhFgkysAxsF+BtD2BuvzI3CTUIebBbrhJyHkB3qrqsutBAPr/fWnob7aWF0UHKRHhK+rN9m7e68teWzdarP3GLYLd582b2MFXetR07dqh+uDSODjDblaVKWJbEz89PJUcEBwcbw4YNU+9h0gTFEBEOpTIpYsuWLWo+y6IQ/giGBD6un8O57LzAGLspU6aoxAyK2+NwL+EyNrrp2Kt4rJ9++umjEiVKbMWlrgsVa2nFveIN7DImT568d/369Y9u377d+pUQd5o6dapRsmTJ37EfLID7ssN6r498pAbMrG1nJjNwSPZdYb/X2BY7YpjdFs4psDPh7ga2/wVei24R1Hgcih2ZxENGJqsigXkZG2eR4B6YfgEgWw2Y2wdAOwu7isd3AXgR7rJbARyHWPmYIIf3YBoUifc9cJPAfVh2WSUJGVdJQjs3laG93pKCQT0lc0QfcTb6SspHvcUppKrI6Lz5cy0dM27ca9MXlkOpzZs3N3LlymUULlyY3iNltWrVUp44lh/hkOmIESMYa2sUKVJElT3ha2xHRjEzdvXq1arcSalSpYwBAwYYffr0UQkSjJ+jx47vZxYtPXYTJ05UGbA2jx1vWIcOHfraxdgRpHEu/06VKhVvnliAXktLK24Vb2BHL1mTPHny7GfBz7gWv3DxxbMA+6DrLL2IOkoKwNQQ8ZW/FdiZnSF2wWK6M8Sz5SlZsK0PsQ9XHhcwZkkUwqWfZLYu9SKKM7CjV84cVvWv4yI7uwLCxgLI5lsk5HdMgwBvxzG9To9cZTmghlPNYdVD1iFWDrXuM7DMbSyzB9OVLuL/JYCun0X8W2G9Hm4SULqURGbrIC5v9BeZPlDk8mARg4bnRweIvJlLJDd2Z1Tjxo0fAUbCY6N3qr2JrQk5HEtvGtuKMcOVRgiLGtNLTxvncZnffvvtH8WECYCExOXLl6uEi8GDBz9OqLh+/bqq2cZhW3a3OHLkiPLW2WL6GLtHuGOMHiHxddDFixcjOLydPXv2YFxzLCyuE9O0tOJe8QZ2VMk0adIE8Qs3LCzM+tUQ++KXPodTsP0vYSy7ovUi8pFCAKlZj4dEWQTXS6ZKK8lnXSJ2xRp6njJNJXAQ7sxyHsexT2/jtXTWpf5LsQJ2ZSQ0tUW2FwHAVQeE+ViHVCe4StBcVwncACg7REAjwFWV44C2o/8weuXw3itYHhAXuM5dgn4AxH2CdfTC/NZYtzu2kZ/AaN2s0rcizoC4EX1FrgHsjCGwfiKX+ogMGymPM4ir582bdxNrsEXN8tR6vhgjx5g5euWYUEFPHYdWGVP3rIQMLUPVrytbtuxlfK8PxzWX0rz0tLS04ljxCnaZMmbMOK9r1663+SUaV1qyZEl49erVLyRJkqSXdT+0XlTe0hR2KArcncDzfgCrmG7W/2yZPWXnYNt3lefQHJYNwjxfafBCxaZfOcauogSmc5et+QBbZQBg1dwl2BPTQRbxnw6YW4vHhzENo7eNnjcz0YHGx0xy2Esv3CPA3xXYMYBbEJb/AzYX6/zQRQI6cr1usu0/92+oSIbeIv0AdWcHWD11gwB4gLrJPf8fXPn5dEyfPv3fTAA4f/689a9B63liXB0TJapUqaKsadOmygP4unjfoiP24ebIi4eHxx1cZz/A4uZmT0tL61mKV7BLmS1bNt+CBQvuYJkBfjnEttjjsUOHDncyZcr0fdq0aStZ90PrReUr2QBSw2G3FFQx5s5HNgKs4i5I2lM8sM0V2JcnXTF8ZT3mN3iBMigvDHZesiipm5xOyUxVi2zP5iZBhQFk9WC9YJPdJHANpkcBZw8AZwQ1leRAz5sZF7fPGhcXEAFQuwe7ZpHg81huD2w5AG68mwR3hXlUkIAcJWWvk+mNM14o5hNAlxxA9xYgbj+hjt46TB9g3sx3REpYF3usvHnz5nBychqKa//Y6NGjdfP6/xCHYdmlhjF3NHrp4uI7KqGJ2cIsMl+tWrUHDg4Oi3PkyKFLnGhpxa/iFewcsmTJksbR0XF6ixYtIhgTE5tiq5sff/yRQwUXse02JUuWjBsvU+KSAwCqNEBuDeAqzAp2t0FBn8NepXDwi4s9Zemf85Zt2Hak8ty1lYdqn7xUXM+/yRU2ATYU9szAbmtsXB4zNo7FfwMmAtxWAtBCAWcnYBcBdLcBZ4/MBIcDMCY57FFQx+xVwBozVglzB2ErAIGfcV0uElTbIkElKkpgXmbE1pXQ1C8KclHVTcQRQOcLiPMn1A2C4fGjfiILepnHyJZ9/1CqVKl4zIPwd3ecsWLssKCl9bIi8LKcS7ly5R4lS5aMnXyqduvWTVcZ0NKKX8Ur2NlUHXd5f7HulC2jLDa0Zs0ao2LFipEZMmSYjG3GRN/R11MVAVY+0gYgdU46WD1m3nIQ0+aAvriJqzGTObxgB9SwsFmG5T7243vsQwHrUs9Sedg4WH9YKs6oJqEFAGo1LeLfCfA1Co9nu0nQalfx34nHrBt3ldmoHE41Exyi2lE1H8vcAfgxsxXvC5iGx0MAcL6Y1nWX0PLuEpTPQ/bGCPiOFEkGiKsPsNsEqHv0LqAOB/MI89b1Bpd6/UfAeurUqbNh0i1r1qxBLN+xbNmyh5GsEaKlFQ0dPnw4jL1yK1WqdBPXExv+uyxatEgnS2hpxb/sAuzosWibPn36/QIh9/sAAP/0SURBVCwIGtOdKJgFyPiPevXqPcR2VsBKc6NaryD2bPWW2YC5W1aoCsPz32BlrUvEvgh33jIQdv5xvJ039odt0NpIButSj+UhRooc4tM8o9Sfl1O6zC0jS4dWll3D3CTwOwDZOgDZftgtDqFWlWOAtiMK3J5MD9uGVq9huQN4z0Y3CV5gUV0gAgdjnh+m1VxlRwH2brVuNsbVS6QKoG4tYc4KdQaebwPYNST0WRf7V+XOnZsA3ip58uSL69Spc45FeVnLTUvrv3Tp0iVj6dKlRteuXR/ky5ePtUA/gBXhdaWlpWUXsguwk9KlS/OHuFvKlCn3vPPOO6pUwd27d1/Zi3Du3LlIljOoXbv2Pax/KazKyJEjdd26mBC7QvjI79ahUEJVBOy9OBuSpd4BwLWVj2EXFWCaZVj+TtIyZe8i+T4p4SEPirvJXldAV3NMe5WTVfNLyfxj5eU3wNlOayycWfDXHFJl2REmOagyI49ghLiTrhK8G9PNbhIAkAsa6ypBnStKQI3SsoOlROJMvUXKA+J+6mcdfuUwLJ6HwNpYF4mWMmTI8EbatGknOjs772zXrt0DlvVg2Q4dS6b1tNihgzXqWM6kVKlSJ5MlS/YzY6RxGemhVy0t+5J9gJ1VzrC2qVOn9q9Vq9bdhQsXPmRhTwbnRkf00DGejjWlRo8efbtYsWLXkyZNOh9fRAzwf2bskdZLiIkKPtILdkF5y8zyI/4wthGKo/NsOKRqnL9sklapljr4JYmw7UfSlmmO5yrV9RdLktBl7rJrv0UCb1ok+L6rBD4CmKk4uCcJDrsMvB5pkYCHgLfbbhJ8xSL+R/B4pav4q9g4PK7JwsIsa+IhG1J4iMEkhzi9lgBveQF002DhTJSgp66vyEnA3jsv6ql7jtLCmmbKlGlpkSJFTnbp0uUag+H5Q64zQF9vcYSe36WMxZw4ceLDypUrn8uZM2dQihQpmHxUCPYq152WllbsyK7AjmLck1vWrFmnlS5d+myLFi0iv/7660hWdn8RPXjwwNi+fXvke++996hGjRoPihcvHuzk5DQA6yzo5eWl4z9iWp5SWLzlxyjlTzgk+62aH8tiKy4X2VfdTfZ1KZx39PK0NV2uq/1oC+LyS2o41yr/sGiOyQ/dZLcaTqU3zoS5vbA9ADrWjfMHzAUehjE2bjKe93WRwPquElzWTbYVdpGd2fE+3HDEr5e3m0g6QNwo2LUonrrrsJFD8Jp1sVcRS8UUhHlmz559acWKFW+1bdv2wbx58x69bg3stUwR6vz9/Y3333//fs2aNcMB/ftSpUr1Pq4RxqnGfscZLS2tl5XdgZ0SYIwxG21hX+IucZ+np6fRs2dP1YR7xowZDPhWKfZMiGBtqcmTJ6u+jl26dGFz//sAuj/w3hGwhunSpUuPqVbsiF675gC6PTBb+ZMLMDBIzMkiIfndJYjFf9tZJOADiwROx+NlrhK0BYC215Ik5GzRHJ/fc65d1hA/B7UfSX1TGRmr1TTeyDjHCnJ7bleUjX+Xlvkn35DvdlSQ3z8ByGF9wY3cJdiFsXEweq/sSvTGAeB6wE7QU0eww+Nw2Fc4yfmti8WUCLAusPZp06b9pmrVqqfffPNN1Qd18+bNzLHQSRaJXKdPn45kJw4WY27atOnDwoULr8f1gPsHaQjTLcK0tOxf9gl2NiVPnjy/o6NjRzz8FDbb2dl5SenSpdfVqlUruE6dOvdgF/Dj81ehQoXWcLgVyzA7axSW45eQ3f1IJ0qxpZePDBImLtji7bzkT1g56xIvLA51ErAIWgQuZqq6ya5hrhI4A0D3K4BuL6a3GQNn69hAb1w1+duonPSAUSLPNMO5QVnDwc/RYHeKJN4pjAzutR+UzDRrVTU5M6i4TBuZRZosSisVx6eQQnmsm7VbAeqcAG+tYLs49MoCxANEwvB8CZ7HahJQmjRpSmLSGzY9a9asf7Rp0+Yy46vmz5+vGuCzjZZW4hDDVniT/PXXX6t+uBaLZQ8+d36ffoib7Ca6NJSWVoKSfYPdU2IMHmGhLqwr7BhsNawZrAaMw396uDU+5CdFAHbrMH1kzZK9iudfYcrSGs+SA8t/mEOdAYUAc2XxuAHArQfA7XNMf3Ezm9w/tA2dmlN2czCTHDjPjJkLvOEqAWeryMGDLkk3+2cv12ZDklapzqqhYTOh4jYg72OZLfTcsnAvbxKeW8fOXkSoA1XV62NmvEZau0oQ6tYD7iobcRcvmho3WA3Spk3LMkHbAHkHOnTocH7mzJkG+6iyX+rFixdVbKtWwpAtBjkkJMRYvXq1MWzYsLuAuSP4fHclSZLk50yZMvXAY91HW0srYSpBgZ1NhLcssJ2wz2AM4NWZrvGp3pJcWNuOdeXaSaQCKm85LV5J/LKVqZuayQZusi0lYY7Ff13UsGrgWwC3CYCyFTCWGrmKeawH9xBTVVrEBDlbgkOQNVM18L4V5pjgwO4PX1jEv4e77KpdS67kyll8aCbxTDIC+3JJwV0b7E8buShd5B3JJLWwtx/D3oXZcy1DBwBcDdhKWASHYGGR/UT+Aug1WRT3NzDcHrOd88Ja5M6de1q+fPlC8+TJc6VmzZqXPvroozsbNmxQnV1YtJYJTzqz1n7EJBh6WG/cuKFAfNasWRFvvvnmlaJFi17NlSvX6YIFC/6SPn16XGoqfo4VCl6kPZ9W3Iq/cfw75O8dPaj8jFi2iHHpqWH8+6TRAcLRKpsxBtdm/GwZH8nfT5tlhmWE8cY36rK293N9NK6b2+H2uF32Wec+MCva9huskxPtQwkS7CheXNtgLDarZQ/qjS8BX4C2n1xRw7G+Epmkdcrf8xUc2qmm3PAGkI0GkP2E6RZA2h4A3ElAGcuJhNP7ZvZTNbs4EOZMqNvPBAdmrALigtbCprpIwAC8pzkA0cVdAosziYL9W8E+T75UPCUXwG4q4DIM+2MmdvjJbnHDPPOCHwyL2kvVrgR4q4hf2XkDRO4xpo5gh+dBvUXajjS/UONT/DJnL1B2+WgBG/bGG2+srly58hUPDw+jTZs2j8aNGxf266+/KtDTij8Rrlmf8Lvvvovo06fPgwYNGhj4nB65urruypo161f47DrBqsOKw/jjrmU/4vcZPxPG0bI+aFUYQ4x8YG87OTm9mzJlyo9SpUr1GWw6Hs9Onjz5T8mSJVvi4ODAeq0czfoNxhjJP2EbYZtgm2Fbo9gWGOf/BdsAY3z677C1sFVJkiRZhm0txLrnYhvfYltfpk6d+lNMh2M+7jXlTVhLWB0YWzZyVITtGlUBeK14UYIFO95d7ICNV8+04lUGoKqORObMVeKtPo7NMh9gfBthysHL8X6Osm33VEzxV7Cb7LpskRCDhX6rPi78ayv+yw4OhLiAe7BDsD8Acd+7STBgMOAdNwls6SYBVcx+rS+Y4OAr5fEVuMzqtTPLsTSWU1JIFuNVsJJkVcvZmQBvhQB2MwF1N6wxdYS6o7C3O5rXvb2Jw+1VYO1gPK9flC5d+rcWLVqc6dSpk9G/f39j7Nixqp0f61OeP3/eih1aMSn2st23b5/xyy+/qGSyd99912BNUF9f3zs1atQIzpQpE5vz476ASdb4SzBhTtegix/R48YRgzdgBOvWMH4uvOHkj/Ek2DTYTNgP6dOnX5g/f/6V5cuX/6NmzZr++Ns62LZt29NdunS5hM/4Zt++fe8PHDgwggmEI0eOZJkvVW9wwoQJxmeffWawFzuvCZvxuc1s86ZMmaKef/755yxtY3z66acqaeqjjz4yhg8fbgwZMsQYMGBAWO/eve++/fbb1998883z3t7eJxo1arQbNwtbSpYs+VvOnDmXAf5+wj5/B5sB+xLG0JfhMHqEGS/Pa49tDznUr28mYkca7LSiJyY4sNdpJQktD+iq6yIBbQBc77rJ7qmuDoG/5CzV5W/HVhlNmIKlaVDaKJZnshXgjiuYY7N8vPe6q+mJ2wFbbZHAWe4S8KFFgjqxp2p5QJyXGK825OgrdcVbdiqoMzN2DdxXnpa88gVe5RCEXQlQlxs2qb/ItSFWTx0g7wxsIADP7vb3OeLden3r3fwUGO/2V1asWHFbu3btzrz//vuRX331lTFv3jyDBZE3bdqkgITePZYr0vp3cTiV8XEsRcKOOizAPmvWLOOTTz5h5YBbDRo02JMrV651OO8syM4f2FGOjo6sMMD4ZA1ycSfCG+N4mYREbxuBht62zrBBDg4OH2fLlu0b3AStBKwFNW3a9O/WrVvf8fPzMwBtRocOHYzu3bsbgwYNUtUgCGjffvutsXjxYuO3334ztmzZoryx7NR08uRJdcN07do1Bfjh4eHWq+XVxCR4DuMzJpN1Lc+cOWMcPXrU2Lt3r7r+Nm7caKxatUr9LU+bNk1dg2wzxw5SXbt2Ndq3b08PvuHj4/OoVatW1xo2bHikatWqmwsXLjzfGrPLGw185ambwlYwxs8zK5+ll+zxJjahSIOd1vNkOBDiyklwFhbnBXCVsEhIDcDY24CyCYCvZZi3l3FxZjwch1MPGOXTrjayV/JTGakK7gBUmdzrR5ZN9cs1d9l9xF2C2MVhDd43id64ChJQj/1a2XzfuuGYE3vX+uJ/L9mDfTFj/zxh9cQfXyEcNrCbmJChIpkAcENh1+mps0LdFdgnCQjqniWV9JQkSRK/DBkyjIYtBuhthe3KkyfP7tq1ax/u0aPH5fHjx4ezdBFBb/fu3eoHiz8if//9t/pR4Y8LwS8xV1zhDzJ/mPkDzR9q9s5mcWCCLzOR+SM6ffp01um87e3tfapMmTL78AO5C+AWmCZNmnUZM2acnjp16l4434wlZaiBjnmKfTG2jNc4IY5AQpCjF84Pn8l7hQoVml2hQoXNLi4uJ8uVK3cPjyM9PDwe4PO7069fvzsTJkwIIxj9+eef6rrn5x4WFma9IhK++HfL6zggIEBdvzNnzowEqN5/6623bjdu3Pium5tbOM5LBG78ruEc7QPors6ZMyc9lkzgaQqrBCsGY3wv4wPjOxQlISjBgh2DOLfDuPNaMSAvWZSUPU7ZWaG8bMkJ8KrqKv6dAWHjXCXwZzzeD5C7iPnX8fwe5keYQGdmqwLazIQHh30RxbJ99TBVg0LhgCoFdslapL+f2bXRCkvSLY3qyLG8VQGLjItjQsUre+X+Sz0kjXjjfx85+Lgci7fchU0WZvPagXDLmhwA1wV2mkOv1pi6+/iFnkUvnnWxhC7G5vEHkJDKYSiWa2mUMmXKXgC8L4sXL/5riRIl9hQoUOBS/vz5b5UtW/Zq/fr1L3Xp0uUKfgjufvPNNxErVqxgAXLV9ozwc+/ePWVM1iD00btAOGJsGbN0CYHxCYLcNveD+8P94g8295H7yn3mvjOp4ezZs0ZoaKixfv16Y+7cuarLA370b7Ru3fqyu7v75aJFi97EObleuHDhEzhHWwELcwFxrNPpB6sMYxwWQwt4w8vYprhOrnmdRJCj55OAQZirgpuUroCRyblz5/49S5Ys+zNnznwK1/Op5s2bnxk8ePDNadOmPWL28Z49e5TXi95p3qxcv35dff68HhJ7shH/Fnj985on7LHwOfsO225gtm3bZixcuJBDwA8AfZcBv6fwvXAK1/mJ7NmzB+PxYpxXXvMctiY8M8GD3yl0COgbmP9XggU7/mEx8HOMeqb10mLJEYtsB8QFtbdIwCiA2w+Y/gGIC8b0GOwyLIwAx/g4M8nBluhgJjvgdVjgMcDe71Xk6NRyqVYNTV2v+NeAqXvKS9ZWHomXwyZpkYxDEnEvT8kIkPsAoHlagZ0Zc3cJ80Zi3vNKssSZ+ok0B9QFsVYdwc4aV7e8p0gF6yKJVfxStgWIE/TY9o+li9iWjkNW7+KLfSLAZj7u7DfXqFHjcN26da/AHtWpU8cA+BmtWrUyOnbsGNG7d+/w4cOHh0+YMCGSQ1ZLlixRQ5WbN282goKClNeLQ5jnzp1TUMgf1Ff1jBDaCGg3b95UP1KnTp1SHrZdu3YpACWoMeaNsPbll18aY8aMiRg0aFA4frge+fr6spi6gWNRVq9evTu1a9f+u1q1asHlypVblStXrukAhlE4B7gMcKWaX9b8++E1URRGqNAB6nGrgrgRaeXs7PwhHjOW7E883lylSpWQt99++yLj0hYsWGD8/vvvaqiUHjgOk/J6S0xeuNgSoY+lkw4fPqw81BzqJRCzYPYHH3xw39vb+xiAmSN1TPb41cnJaTrOP2P3PGAEPS1TrwR2dPUzI4ZFgb+NY/sRdgm2K8q8uDQGhNaDJSC38KKkLDXiKoFuFvFv7SYBvQFk4y0S8gPmrQOU7cbzS4x/I8BVkWMwWxHgo0ZVPLdC3F0sfxjLbwTM/WSuI7AvQNAH6/dwk72FPeREesdmmcvj54i17R5akynY8usrPI6fdkRtJJ+0kMmAvDDbEDH257h4SX9gRLz9QALoqvYWWQe4U546a2eJLTDGm7zOoteJ3j32JGUGLs+HF4zAx7gcdkPgDyy/wCanTp36G8DQvBIlSqxwd3ffCFAKbtGixWEfH5+/27Vrd6VTp063AVQPu3fvHgkIVJ0VBg4caAwePFgFhjPwfNiwYcr4+GmzvUYbOnSoSk5g/BOTQ1jUt0ePHka3bt0ede7c+V6HDh2ut2nT5kLr1q2PN27ceC+AdBtgbW3BggUXZ8qUabaDgwOzsyfCeGP6AQxML2/DGAvH4Scmo9Arwe9Yjk5oxY9UvCgMf47qOpuNz/EvfrYDBgxQMWXTp0836ElmTcArV65YEUUrJkVvNwGZYRoM15g0aZKKOwRMh+Pv61Du3Ll/wWfDvyl69JigwTg9lmd5XfVKYMeSB8ziYVo0U6rj0piafRN2Msq8uDTerXnC7PKOuYz8ltpVduW2yPYyAK8aALlWgLF+rhL0BYCMdeN2wW4R1Mw+qocwpRHoTK+cmwTTC3cDdhzLBgHcfsd0Htb3sYsEvuUqO+q5yM6iz42N6yaO4iOtAHd7rV47s7adt7SWBsqFHvcqBzioIfvwyUUouCNwsvaeD4DBK+6HrwBzb+B2cwmmYbayJvgFOYB5Xt10oPuLin+D9F5xWJ112KrBGsEYqP4WjEkc7HE6GjYBxqDt6TBmHM6GzYHx75mdFhbAFsGYOf20cf5CGJfh8nNh38NmwZgByPIhjA1iCaYRSZIkYa1Exgl1gLEsDOPeGNfJTEjGC3HYVA8h2Zd4o85yHSzd0QU2rnz58n82aNDgFtta9urVi57XSAIGh1G14leMwWV70Y8++iiSrQ+bNWtm1K5d+0TevHn598kbP3q6GaqQWMJZXlSvBHb8UuKPIX+A4tp4J88CxbzrfdbrsW22gozxLMOBcWqwjOUlKCdArgiL/7qLf2cX8f8UIPYzgG4P7BYATWWj2hIdbHXiGBsHWGOtuLuAtytY9gzetx/Pf8N7ptCz5yY7G1QS/4L5ZEP0PJQEOB/5HPZAgZ2PhOFPbRXQjgGx8aEK+BOfjf06gX0xYZMZsz64UfBSw1xxpp4iRQFxswBxt5gsQbDD46O9Rbp2NmPRtGJH/N6KTdNKWOJNJsMxGArQtkCBArNLlSp1FHa/adOmtydOnHifHVY4dJ+YE3cSuvjZMMyCoDdw4MBbbm5u90uUKHHrjTfe2JYpUyYCDj3+TG5hkebE/neaYGPs+MfIAsVj1bPXSoYDEx1cZGemyhLkDgjrABgbjelCwFgg4Ow0gOwSnt+GhRPmbB0cCHTs4mB644JtLbmwvP8fmE4HFA6oJEFNXSW4pKvsyF1RAjOzW8QrZax6S3XYeuUhoxHyGNsWP0OyFfEn/bEUkwXSQs48jrcz92mxeKrsq1gXAC5/L5EJALtrBDqCXT+Rk7B3AXzxM1StpfV6iT/uGZ2cnFpkzZr1W0dHx3158+b9u1u3bpc43MdYSSY6sLyMBrqEIyaiMDGFQ7cEciYi1a9f/0yaNGlOp0qVajM+a9bUY2gHHTSJVQkW7F6rcicW2Z4N0OXOmnGYvg8ImwX71VWCdmJ6CIB2EVAXJcHhkNWY5MDpAXrlItwk8DiWX4/1zOJ68Lytu+ys7SYBFeiRqyq7cTcTpYNDTKijpBAv6Sm+ckp5x0yQ2oPHjCWKa3EobCz+pD/C/duHALs9tmLKALs72M8p2DfGdMWaeohk7y3yPuDuIoderVB3HpD3MZ7bZdFkLa3EpHTp0pUH0PEHfmGePHl2dOrU6Rp7HzPpgWV2GMSvlTjEZAyWWmES05gxYzhUexyfPTtrzEiePPmbadOmTYxFkjXY2ZeMJPSUsV2WRfybuZo141i0dyYer8HjUEwvcTg1amLDkwSH4wrmsNxd2FEsuxnvXQRwm4zH7+JxO0BgLYBiiRfu4BAT8pK8AKdvHoOdr0QAoL6DMRsyLkWw4zUzWApLSekgfbFPf6sYQBM4L8NGYf8YtB7jAtClhfUbIHKUQEewA9TdAtRN7q+brmtpxaYYOlMT1s/Z2fmnunXrnmXyzIwZM1SxXa3EL2YnE/CYvcyYvDJlygTgevgcxiRQuyh9FUPSYBdfqiiBqSpIQA72OwVsuVkkuKGbBHV3Ff+JgLCfYSGAuxuMgavyuLyIWWqEiQ58juWZ4HATdhrr2OMmwZsAdMvcJPAzzOtRCeusLP7FWJvOutn4U2tpCLg7rODOjG07DYB6T1hEOO5EsGNcJgPbM0kPyQ7o/BT7cV2BnblfR7GfA/E4RsEXQJe8r0gHgNw+W1cJPH8A+x5Qx/geLS2tmBe/X8rAOuXOnXt19erVH7799tuRS5cufcR6alqvpzjUPmnSpHAmxZQrV45DtexGxEoXTApN6NJgF/syHAhWrnI4LQvzusvWfOx76iIBHQFhYwFyiwBhoXh8B3AXjsfWJIddBodWnyQ4BDIm7j6mNwBwF/D4MB7/jvdPw+N+AMHGFWRLocJyOLkZE2fYQXJHFHlKFgDTu+IjFxVAcQjUW4JhLO0QV7KB3XswZlKywERJ7NM32I87ar9oPrIXsNcxpsqgeIkkBdg16CMSZMt+BdA9gv36GtSq09KKDzGkhKEN3tmzZ1+LH+8rvXr1usX6chxq1XFzWiwKzaHa77///lGTJk2uFy1a9IQV8NjLNiGXS9FgF5tizFpFCXAFqLUFfI0EiLHu23ZzmDToHKbXYQ8JcgQ4E+LYyYFdHJjkEMph1UjA2znYBsDbNxxSdZfAFpXEv7yr7Chgkd3ZCI3sGmHdrL3KAXBXANC0DNAUbgU7doD4Cs/jqkiwDeyGwVijit0Kk0hrYc295dg3M3u3rUTgebC0kkbioTKgX0kAOhfYrwC5CIIdCxHjsX8/3CGOtIvsai2txKVUqVJVyJw58/SsWbPu6dq160O27GLWJItKa2lFFTOe2c2GhZCrVq162dnZ+a9s2bLhK1tl0CZEabCLKblLaFY3QJyL7PQGhA2mJ80iweynuglAx56q5wFpYcxQtdWL+387RI9cBMDtJJbdaBH/H/D4I0w7YZ1N8Job68YxG9a6yYQpXyCTjxyRDgAoM2nhJOb5Sbs4KcT6T7CzyUeqwf5SQ8WMuWM7NC/5DdDH97y08O1QBPYjQO4BO0pwGBaPjwDq2gPq2ChcS0sr5sTvkXYpU6Zc06BBg/PsQrJ//37rT7iW1vN1+/ZtVQT5vffeCy9RosQBXEesTclixwlNGuyir0VJ3SQkFzNJGRcHcOsEiBvmKkEAuYBfAGPBsItmgsP/d28w7YhBuAOo3QPAHcd7tmMdy/CeGS4S9IG5vh31YCXZT9W60cSjNrgL8pEpmN54DFAsh+IbJ7Xtog7F/jNBwgf/vGWf8tqZ0EnP3Ww8Zv2jaGugSD5A3QRA3G0Ov74LA9yd6i8yGFD3OldG19KKcWXMmJGFaPvRS9etWzfj119/fRSpx1y1oqkLFy6EswVgnTp1wnA9LYc16NixYwLqMqXB7l/F4r8sNcLCvwQ5wBeAK7gLHo8DgC2EBQLOVIKDu3Uo1bQDADgmOLAFVxAgTtWUOwv4OwAI3InHK/G+KQDDPu4S2IQJFHaR4BBX8pHK4iUrFTyZ2ajhsOEAqtjO1P13sGMih6cMwL6ZcYDmvt0E3I1RMYLRUDeRzIC6kX1FLhDqrEOwV3rjjw0bj/f+tFpaiUkpU6Yk1H2QJ0+ev9nujX2BtbReVhyyZ69p9qNOlSrVn7i2mjVp0iSh9GbWYGeVQ0nZ61RGQlNXlc0ZOKzqLsEulVV5kICPYAsAZEGYXgWM3XeVwHACm9nFgQkOLP7LBAdmqQaEwZgIgWUDTsP+xPtmYDqQxX8ry65i2BaL/qYw4+LsLMkhLsS4Ni95E8B04THc+UogIIq9QGOzKvjzh2Jtaik5AHHjsC/3o8DdKcwbLL1frBWatazJAEDdUQIdjV47gN7nPXRZEy2tGFWmTJlyOjk5jcyRI8dplrJgWQt7EIsbs1Cuzbhf0XEgEi44PHj37t04iQ3kvt2/f1/t54vW8nv48KHaRxYG5vu5rzxuriehi+ecPYBbtWoVmSJFij/TpEnD1oAJ4fdagx0THABkFQFffi4S8AEA7Ec83gx424/5pwhzsAdPEhwOqKFUM8mBnRzMjFW875xF/BlPN4tDs3gvG+0z5q4oh24JjIRH62a1WklBgN03gKZIBU9tJQyP54tfrNYT+m+wo/ykOPZlpoK7JzXu9gA+O6qCy/8iDrEC4DoC6vbRU8d6dXh8B/Yj5peyLqalpRUz4t9j5/Tp058j1LHrgD3o1KlTxvDhw41SpUo9tgEDBqgg/RfVpUuXjK+//tpYsGBBnBwXIW3Hjh3s1qBizV5EXJ77yGxjQt369evVcxYFTiyJKoGBgYQ7Dsv+CmPpHHvX6wV2LDfiIkGVKklQK8Baf4DYJEwXAMbWY8rG+Gdh4eZQqhkPF9WqyjGAHFtxBRD4AH9sih/0MaDuHawL69xRzV12Fy8nm6I1bPdaitmmbaQOgCkEwBRhzZK9JF4yyLpEbOjfh2KjylsqwJZi3x6offMDgHrLTuxvE+zjMwGdyRAAuBawYCZKEOr6iTzsLbICUMc2NlpaWjGrmgUKFNjWpUsX4/Tp09af4vgTYYbdK8aOHWt06tTJGDVqlPHJJ5+orgcsikvY27Nnjyq18V/6+++/jcGDByvQunLlinVu7IqZw4Q1gumL6I8//jBGjBjBeEYjLCxMvS8oKEitJzGFN7KwcfXq1e9myJDhS1xz9p7AmODBjjv/D7GOG5viu0pwWTfxr2O2zgoY6CpBXwDGlrpKYACmF+mFMzNSo0KcLcFhL71wd7HsCYCfP6ar3SRoNuYB5Py7MXGikviXitMODolNjKnzlf6ApatRWnttxbQi4CmpdamY1IuDnSEO2Jfq2Ld1gLpHjxM9fORPzGcF+38MGQPo6vcX2WCLqQPUGYC6dTAur6WlFbPi78CYBg0aPAoJCWGihPVnOP7EIcm5c+cabdu2NX788UfrXFP0vLVq1cr47LPPlDfu2LFjyhtECKIIhbt27VLzbt68aZw9e9b48MMPDQbyr169mgV1jQkTJihvmA0Mub2//vpLwd9HH31k/PDDD+p9UcXtTJ8+Xb0+b968x69zSjD7/vvv1fs2b96s4Hjv3r3KQ0iYDA0NVc+5fXpE6Y07evSoev/58+fV/tWoUcMgWNPLd/DgQVX8l8dnE7c/e/ZstX0egy3+MTw83Dhx4oTy9nH9PM5x48YZq1atMq5fv66WsRfh84hk27l8+fIdwjVHcLLn0bcED3YTu4nhyGb1FgnJX0lCSwHkPABib7qK/xjA2HyAmD+e37ANmzIujkBHA5wR3iIBebcxPYflWfQ32CJBmwCBCwGEn7hIQFe8XrOa+OdRW9aKWc2QzIC6+QCn2wqefOQWwOlbzMtrXSImxaHQj2EDYC8G5G9LXezLOkCoGXPHcii+sgDwWc66hNJwkYqAuV+GAuboqQPcsbzJnyBIDXVaWrGhpFI7d55cvwMu/tv9FUficOZPP/2kwI5eOxbAtYmwRMD55ptvjDNnzhjz589X3q4NGzao1+nxIrhxHmGI4ERPX//+/dUwroeHh1GyZEmjT58+xr59+xTUMQasb9++houLi1G2bFlmcqp6bLauGtzO1KlTjXr16qnXAcHGnDlz1LrpZWvRooXh5uamvIlsr7Z8+XKDySes+0fP4rBhw9T6u3btalSuXNmoVKmSgi+CGyGuXbt2RrZs2YyKFSsqQCT4cZ83btyoQJXHT+isXr26Ubp0aaN48eLqde4Xh24Jvw0bNjT8/PyMRo0aGQUKFFDPmbjA47Mn0RPbrFmzi+nTp6dzoIB5EdqlEizYpXOUtFvTituSmnKnEaDufUDZHMDYTkzPAsxu0tsGYyJDpAlyZsFf8zGBjqaSHe4C3PbClsDGEQphVd1kW2FX2ZXbRXZmZ+04lh6BpWKmLKclZUOayrLFmR4762vaomksrFw4+6wsyRvlf9vB0/GAAieaj1xN0jr5W8Wdv8xUR649870vY6mldG1Hyfylo2T7KKM0KvGsZaKahxhpiuaYkdmpUa7+SVo7nVFQZyZ6MB5warrapQty/9qLT9F3JNOsnpImvK+kMXrDeorz+W6Sc4CHzMhcEut51vq1adP2MnYsXWlZlSFl8syf+nj73ty2bav1pzf+Ra8hPVxsVVWkSBEFMfRgEXCuXr2qgIuJBYQ4Qs3TYEcIGjlypAI7vodeLsIagY/erd9//93o3LmzgsPdu3crGOM2goODFTguWbJEgReXpUds1qxZxpAhQ5QXkDDFbdJrRvD6+eefjbp166ptXLhwQe3funXrFEjSk0dwY9mYmjVrKhikh491ATt06KCgkAkWK1euVNBJLyXXQa8kj2nbtm3K60jYozeP+8EEEsJs06ZNlXeO+zt58mQjT548CoLpuSRYEjJ5TC86HBxX4mcHcI0sU6bMXjBIXRNF7FIJE+yySI80RWT8n+VkzVU32X0QMHeBgEZoMxMb2MGBHjrCHD1zqqfqMw0w9wjTm5iegR3AYw67bsD6fsN0HZ6vN58H/oXpFiyzVVvMmUV2bamUbPOubOV8byVtncbWr9VIWa/wiRJZpm+rLIewXOA/3vcyVlE27CojS8+WlRWnKslWDsc/c7knFrjFTfb9WcFp455cJbvfS9rS2fTYYR8dvJJcz1KpeUDFpBu3VpaAwJoy/2Y9mWXUsVot+fF+Ffljj4vsYseQZ6xbmzZtL2O4kcff8o6tWR36nHuv3xTjzr2b1p9e+xABjd4uQkvz5s3ZbN4oX7688koRmGwiDHEok0OpFN/3+eefK9DicCW9anz8zjvvPF6GHkEO5Y4fP95YunSp8cUXXygYZCYqRZgjQNEbxmHV0aNHK0ji+yjCCV8npK1YsUINDXN41ibu36BBgxRs0is4cOBAo1+/fgpOKQ7Dfvzxx2o/6bXz9/dXz/k+eti4Tzym7du3K5Dk/hPaCJoU4Y8ex/fff1+9l6DIkiJr1qxRrxPueDxcx+HDh9U8exGhnYCMz/IhMMTPpBG7VMIEu8KyJrmL7FhXVU4b+OFX8XAmxNEL92yAe76xbAmBkLXo9mF9bLJvi7XTFttWVU4a1eSEUSrDPCOdh5vZQ7aNGI6emY38b7xruCffpZapKsef+f7Yt+Nq++VTrTGyVvQyxDuJ6kzh0CaJkaZRKaNogc+Myg6MyTxvVMDyNqsIc1Pv16ZNW8zaSfy9HTYqOS+4MX9GUNxkFbyECDqEJ0IKvVgEtPfee095swheCxcu/D+wI5QRBgliBDsbGBHemEhhW4ZeNyZkEL6Y6MAEjTZt2hi+vr4KuGwQt3PnTjWsyvc/Xb6E6yFMcZ8Y00bRk8isVhvYMd6P6+bwsS15g7DJ54Q5wtrWrVuVh5HrIDTSC8h95nwOXfbq1Usdk+39PG4ODfP9v/32m/LgERyZcEHxmOmN5PFFJ4M4rnTt2rVHgNKQqlWrEp7sVQkT7NwlKJ+rBG1hZ4d/88b9u9nq0O1RZUxYUFgDXfwYs42rOBw1ihT61EjRMh/AzkF5xVI1LGQUzvcxljmIZU78431xY8yGtsJd+jVG5qpNjaQ+GR63HUtdr7hRLMcXhiXpHix78qn3atOmLebtOL63Dxku6ZZcXfxt6JMofTsQ4YjeumcNI9IDRQgitBBgOGxKiCMEUQQyeuIIgU+DnS3j1wZGzK6lR43i8GzHjh1VjBq9ggRGesYIfUOHDlVg9TTYMfmCcWzMurV5Ef8N7GzlVghz3B96Aun5+y+w69mzp1reBnbcj2nTpimw4/YXLVqkYJfbonje+DqHk+0R7K5fv/4Ixx5Qq1Yte46dTqhgt7V8Ofk1wPSycciVzfKfDW/Pm++qigwHXHeVgDOYHsI0CNNtsO14bSem7CoRjGkoptpi2dxlX2jptAtDM1auc8TBO0m4imUD3GWo6vGwbOrlf7vJrpBnvS86Vkk2Hy4vqy+Vl7XnXWT7vmct8zxzk92hFgf/0CI5vgxMVb/waexbmJnskcRIV8PVKJltwoMqDjuPWyQE19Gz16FNm7ZXN3zfh1aUHbuyOwy6+H7/qZH3Hty2/uzGv1jclyBFexruCGcEFsISoYjxaAQvW4wdh1MZj8ZEBb5uG4plDBszYW3LMKGBMMThTg5dsom9TYx569Gjh3qNIMltcSiUHjrKNkTL9dNjR7AjGFJPgx1jBfk6h01tx8IsWXrYmCFLeGQmLL2OXAffH3Uoll5GPibI2t7PuEEezwcffKCycAl2jAHkeil7BjsOxTJZpUKFCg+AIb4mjdilEibY5ZV3MmSR5huLyeQwd9l7yTacaiZERAW4gEhzSsB7kjBhLhtIqGPMxkw3CejvLkG1K4l/MYtsz49pnsoSlJPtxFj7jp0o+JiJFBUkIEdl2ZKTr2uLSTuQs3zKdTlTNyhYW3wkSJUW4ZCnp+OlFPULfF4y91eFq8l+nPtnvffFLLPUb5xKCn2dWoqNyys9KzxrmWeb+Xm7yMXsbikX5ipVMeX4jA3kmoJPmINPUiO7R/oz5YqVG8R9fNX91KZN279bWVmfK4Vj7i/a+LW/HRDgb/3pjX/R60bvFWPTWB6DnirCGI2xbExG4HwmKrA2GhMhOHxKSCK8Mbu1cePGCr4IQQQzLy8v9V6ug54wwh/LlxCqpkyZouCI7+e26TEj+DHxgdsg1BH06EXk+/k6YYuZu9w+wY0JExTBjIDG5AlmxXIdvXv3Nry9vRXw8f1Momjfvr0CSMYEMgmD4Md94LFySg8eh5tZsoTHSlDl/tPrx6HpJk2aqAQOwiWHYnmuCEwU53311Vdqv+0txo4dNphxXLp0aZY8qW/SiF0qYYIdlCaJJN/sLBXn1pSzfq4SvIWwVlnVniPEqf6sEQC7267iH8bXzIxYM5nCjMULCMMyFzGlt24H5q/BdLZFdg51k8CWgLg3BL/Z1u1pxZUWiRPAbrB4y2UVb9dO7ksH+UOGSFnrEq+ikrCxsP6wl2rCP02kWG9HWVGvoDzI2Aj7Z02mSOYndx19ZLoq36KlpRXrcnKWJoWLFNg87uNxpjvKTkSgYV02Fih2dXVV5URoHColkDFxgR40euQIMEysYCkTAg6TGejR4pAnvXEccmWyAT17LFXCsiKEPb5OcGMWKYdfLRaL2gYhkBmrhDQOt3KIk+tlqRG+TqhiSRIOkxJAuW4OiVJ8D+PeCHMEuf379ytIJHwyfs/d3d2oXbu28qhx2xSBkcPA3D6hh8fH/aPHj9vncDKPkbXueC7YgYPHxKFmZs0SFLkPzOqleFz0dhI+bQkb9iLuj6en55UcOXJMx+VX1LwK7VIJFuxsdew+4BOL7K5rkcBZgLOzZlbsboBdUARA7T4sHI+PAeDWYpmNeH6OyRZmML6tKLHZVYLvxXLMkN3vKoG/u0rod5iOBhx2ZqFjwF5RFj/mNrViUT5SCGD3M6DpvoI7X3moatv5vnLz/BcvUPwMDRQp1Vdk4VCRW32Ti1GziBhpm5leO7WfbeUC9vOzGNhPLS2t/1Dq1KmzYjK+cePGEQQVexKHPAldHNYkWNGYAUrQiSruN71XHJpcvHixSqTgsCS9Y/QQ0fPF7FF61QhM9IYRpmwiRNLrxaFZboNlRZ4u7stYOyZR2PbBlohBiGJ8HacUYZMeM3rrOCRKLxpj6bh/hC0eC+P7oh4D4+rohePQKd/HrNGnO1fQ80cvHN/PY7ABG7dHeCQE0jtJEfYIeRzKtZeevxRjA5nFnC9fviO45hrDUvIatFMleLB73FKssgQUssjOgYCyjW4SdMfs6bqHQ66AvBCAWsBcvP4pIG2kRfynu0noarzGuK2/8dp9Qp0JeYdUpi2Ngbr08gHuVDN/Nwn4xiKhAywS1Brvq+ougcXLSbBuHxbzcgAcNQPghdqyZAFM5/HcRzxf6Q/qpcEOUFcAUDcV9pAFiFmI+K2UcjRXLVmBfb30GO588Nhb+onXy3kEtbS0oqV6xYoVC+bwIT1gWjEnwhU9haxFR1B9nUUPZqNGjR5mzJhxJq45ex+VSTxgZxMb7wPUZsMuWiQ40hx+pQeP3SX8V1lkuy+7SFSSPXkAg/UAbYMAe9/j9QA3CT4BgLsEuwMDGO4F4BEQbeVUzCFdLH8XxiD5H/H+9wB4TTh06yo7crvJtowecuJfG8VrvYB6S3JA0qfiJ/c41InHtF9h1axLvIxsYDcMloszXkTd8IfcR2RkP5HbbBdGA+BdHCIyNG9VKYl9nIH9eqD2k0Oz3nIIz73wRkfrKrS0tGJHqWDdM2XKdIlepae9VVovL3oG6WljLB49iK+rmETi5+cXjuvsD1glmL2HaCU+sGNcXHkJygfQegfQtRWA9vBJ5mzwPTw/yeb/AMDSJWWvUxkJTY1lMwHKCgDsPPCenm7iPw2gtxHLXcZ7HjHpglDHIV6WRqF3z1oz7wHsOl47h+X3Y/mlAL4x7hLsxz6yHrIhzUgxknCfrDunFR35SGVA0koFS/SI+akh2fHiKRmtS0RX0fbYLRJJCqjrAZA7ZYM6PH8I+2qMSA61UFupgH1dq/aRRgj1lk3YTw/1upaWVmwqN2x0/vz5z7GjAYcwtV5drMNHUOb5ZLzc6ygOlbM9XOrUqTfhGvOEJYRQrMQIdqbY6oveO4DcBMDaWRYeJpRxChC7gfmrLBLUjmBnfYsSW9YAygoC9ioB6Bq6StDbgLdJ9PYB3g7Rk1dFDquhWnOdZv07rhuvP4JdxPb2AyQ3AfIIep+4S1BnzKtWVQ7rYdvoqKOkACB1ACidUnDH8iLesg9/Xl7WJaKraIMdgM4LEBc6AEDHxv5Wb91izCtjXURkpCTBfjUVX9mu9tGEu3DYIuyrq3UpLS2tWFLy5MnzY/JpoUKFLrMO3KlTpyKtv81aWtFWJMT4w5YtWxrOzs47cW35lixZMqGE1yResLOJw6OwXgCtdW4SfJftxky4Y5Zs6AE3CZoGkKuDX+ck1rf8Q+bQrX9lmA/A7V2LhEwBFC4H5AXh+SV3YXeEYyom70kyxnG1HQAhe9YeANitw/tmukjAKMzrxGSMyrKrGHvPWjej9Sy1lRwApi+VF8wc6nykgIkJFtFXtMCun0it3iJ/9QfMMa6OcAeg24Dn//TEEUK95E3s6z4FdtxXX7kDsPsW+2rPGVRaWolChQsX5nfCsOzZsx9kpiV+mDXcaUVbly9fjmASSoMGDR7heloDa9mjR4+EFDOd+MGOGgloc5ed1V0l6AsA1kFCneltO6iGV90kcIOr+LdnDTvrW/5VhLHKElIO7/O2yM7hgLu5AESsI3CXRQL/BsgBIHc/5dk7gOdsf8aEDv/zWJZJHioZw8Usr+JeWfyLsW6elyxKat2UFuUHkPKRPZhGKI+Yr0qkGCWdxdm6xIvqhWLsRook6SviDoj7FXAXZoW6CDzfCWvUTZ4TO9dCMgHu+oi3/K3gztzXS9jXiQC8F47p09LSemmlhb2VNm3av1q1anWFXRjYUF9L67/EzFdm9Y4dO/ZRuXLlTuA6mg2rwosqgen1ADub6qp4uoCOgKqtbrL7NgHPjL9jweIAAFnwl4C2Kk8Pzz5fhoOXGEkLy+HkbHOG9zeiRw/rV8kYeH4Wj6/B7gH41LbMGD1bzJ8qnPwI276D5UMwnYtlhwH4mjLjlkWROTTsIRte72SM5vi8mWnqLez4YHrDfGQfnlfHq9GJX3wRsHMAxJUHwP0EuLtvHX6NxPPQ/iJtYP/uYW0pObBfH2L/LkTZ13OwoYA7PRSvpRX7SuLs7Fw5R44cP+bNm/dIr169wliCg+Uz2D1ASyuqGEvIEi4sG1O7du1rmTNn9se1w1Gd7ObllOD0eoEdBVBKVVFCXF0k9FNA3gmAFWCLyRDMet1zC3AVBLDq5SZ7ox2gj3U7EsTYnaK8BBV2E38PrP8drPMri/j/CXi7YLFm1nJ7NtCjWeHyAcDuqpsEs7zKPryHw70f47W2lWVnuRcHzkSolpIVwPQTACnSCkv38XwGYKmAdYkX0X8OxfYSKQ6gm9pP5K4tWQKPDwLsenUzM/D+W/TOecs07OONKHB3BtZF2snr+xlqacWdGFrDpIq2+JH+w2Kx3Bo8ePBddnd4XRMBtP4pZvsuXLgwwsvL606pUqXOpUiR4itcM1VhZIyEqtcP7GyqJP55OJQKkFphkcBIc9iUQ7PsXhF4zFX8p1eQLfUIa9a3vJQqywHnquJfEIBmcVFlUYKZrfsZ7BeA3n7MD+O2bTX0TGMyxiGCHhMyLmF/9gH2NmC6mMkYbhLQFa/VYGsd62ZeD3kC77xlrxriNMuKXBAveSsasPSvYNcT83rjmgLMXbbF1AHqzgL2hmJ+9LxtjKszQTTiccwd6/J5SwvrElpaWrEv3ozx775PwYIFNzRo0CCChXpXrVoVyU4LWq+nWIh5+vTpj9g1w93d/XL69OlZn641rDAsoev1BTub3CW4MmBpskV273aTIAAV69apDNdwN9n1J4seW2R7EeviMSICmbndAD8A3nuwGRYJ/gWwxmSMCyylYiZiRE3GYHLGYe7XAyzH7NzfXCV4Bt47jPGBmNbi8G1l2RLduLOEozaSASD3MaDuuoIlmrdsEF/1xf0ieu5QbF9cU30wHzB35l2rpw7Pr8PGvCOSx7pY9MShYh/ZqCDUtr9esjYa+6ulpRUD8vLyckqaNGkTPByROnXqpY0aNbrALg7smco6ZVqJXyzbwu4YbKnWs2dPo1y5ciG4Hr6B9QHYleZ1kkikwY4qKyHpK4l/O0DTCsDdFTNzlkavWeANzJ9WUQKqVJXdGaxviVGxnp67+JcCmHkB2D4AqDHWbotFgvZiegbbvxM14YPwae4fPYx7lFcPthnvnQkDiAY1w/G4ABaLMBnjVb2OdiVfqQRgWvoYlnwkDM/HqDi8/9YzwW4k7up7i3QF3J2MAnV38Xwmpnmti72cvLB33rJf7avptWMZlB9gL5Soo6WlFbNKliyZS/LkyccmSZJkVcGCBUPxI397wYIFqn0XEy0Yc6WVOMSetiy0TKBjAevGjRufdXZ23uLk5DTP0dGxGy6HxBj3nGDBLh0sxsCOYhIEYKiYi6p7x36ye8KY2UpwAiw9BOD5u0lIfyxTMLayVrleQp4ZBxiYF6BXn6CG/fkOsLcT+3AJ4HkTsMfCyNg3W8HkxwkgkXid+3oby+zC++YD8t53leDm5rHtzESPXmFZk9y6yYQoB4BSW9iFKLAUAuBrp177d9nA7vFQrDUDthkAjskRtpi6R3i+YlDUWnUvqwaSFh9sT+zjRbWvJoxexf5Pwj7rnrJaWvEjfgfmxI+7X548eebjx/5UkSJFLvbu3fsKe7wymJ5QwExJrYQj9p9l/9rLly/bOmc8bNas2fnMmTNfzpQpU3DOnDnH4XNnpivLlyTWzkAJFuyY0k6w+1Q9i0FVkL9yAIq8AEqLAUq3GXNnxt2x88Su84ClhQAknrhYl4dsSOZhehPzANBKYL9qAdy6u0jgl9i39bCztsxe09gCjZ68AypBA8vfN2Ew+Bj2exeWXwb7mEO3WF9FQGTC7GdKb5eXTAUY3VPxdm2VF2yVeEox6xLPU1SwUxlPgDp32HqAXAShjlmweL61l0gtI6ZaxzzJlL2k9pdw562SKXSmrJZW/IoxePSeu8O65M+ff27FihX/tlgshre3dxjAIGzXrl0KGLTsWwTxtWvXGh988MH9OnXqROBzfFCuXLnA9OnTkxMY21wKxpvp59asTSRKsGDHQpRbYJ/DYsH7NDIJ4I116t6zSPAec+jzoMHEBgBROMBoC6BpkKsEl7S+Ic5Ebx69hqx75yo7WrhJQG+AG5MxVgDe9sLucQi5qorPY1KGLTHjMGCPbdACLsP24bj+wLILcDwfu8nOrlhXrSoS+GrDjnElL0kKMHLDdLuwYDGb73vLNYDS+6rH7PNFsPsMNhiWFlf9GwA6ljUJJ9RxGLa/SAjMd2RMt47xkrzYx6+wv1cfw52PHAfYvY3X6IHW0tKKX7GUUVlYc1jfpEmTfunm5ra9ZcuW9998803VEH/mzJmRbI6v25bFv5gAsXr1amPChAlG7969jTZt2rBR/9lixYotx+c3GtYZRsh53cJeEiTYZYZxh7fDfoN5w2JFZluywLYAoBUAofPm0Cfj2vYR8C67StBcvN6Sma/Wt8SL3CU0K0EP1sZFAt53kcBvsb9sgRZkEX/2sVVZv1GTMWyPAYRsg3YE03V4z9c4riFYRxsce00mY1SUY/YJHQQ4T+mrvGAdAElmlmwwrLqMfC6UEex4wQ/yEKk6VGRiP5E79NLRBogcAeh1B+TFTkkSTymN/fsR+3ovyrBsMMDOD+ZkXUpLS8s+VBBwx0zJD2DT8XhRxYoVtwHyLrJt2fTp04158+YZ69evN/bv36/6qmrFvCIiIoyzZ88aLFWzcuVKg10hPv/8c6N///6PWrRocSRfvnzkgB9hvGnvBWNnoFiJh08gSnBgxx9cUji9dVNgP8NI5/zBjjUxPs1V/EcAgEIsEhpGsKO5AfQARLvoNassAYUYH2d9S7yKyRIW2VMCkNbaYiZjzMN+7nST4IN4fg52h947myeSdfzMIWdOVTLGNVfZudWiADFoAICvET2Y9BRi3Zkb2EuMXivJBzBaJu3kofKCmbXtvsf0eS28XGCjcWcwsb3IXMDcaZY1obeur8h52OBolzWJrgie3rJCfOVRlBjBjdJa6uHVmBn61dLSimnxb7NEihQp2qRPn358kiRJfsHzgCxZsgTXrl37YL9+/a599dVXxqpVqwwWQw4NDTWOHDlinDt3TsV86dp5/y0mrXA49dSpUwqUg4KCjE2bNrHOnPHxxx8/7NChw9ly5crtBmAH49xvSZMmzZwMGTLg/lzqw3RIyxMlKLBjwgJd5KtgdLPmg7GQ4E+wWbDoFKqNtthGzCLbGwF2lgN27poxd3utSQuB1wBLSzk0Wkd+txsPF2P0uN/0PDIZAzBXBxDa30X8AWwB22GXMe8OpmE4JgWqT5Ixggl4j8xjDbqBZfYCEBcCEEfgeSv2ucU608GY6MEg1PiAEiZStAYY7VSQZMau3RZPeUc4XPtPlcdt3BcgqI09RG7YPHUAuouwsQNetqxJdGQOI9eB7cR+m/vcBpDnLSthHAbS0tKyX/G7jg4Gfs9ziK9W6tSp++TPn//bwoULb82TJ8+J3LlzXyxfvvx5b2/v88OGDbs5a9Ys1VCeoEdwYVFcDuXevXtXwQzj916Hjhj0vIWFhRmsH3jnzh3j5s2byst54cIFIyQkxFixYgU9cWG9evW6Uq9evfNMZsmZM+cFnNsDOLersmfP/imAmklyFWCMleNIGYfPdQvO/1eCAjvu7FwYCwnaPDIccmsFs42px+pYOgEGcFcCkDMAFmB6vQhCCvAeYt4+wNBHFSTgZRrUx7pGipGEJVvY/gyAVxrT2m4S9Db2eTL2/TdMTxNUzWPap6Y2rx6HofH6A9glwN0RHHsgIRewNw7r6ghzjZchaS9JAyD6AJB0S0ESh2R9ZB3m/aPHH6itqofIum4it22JEv1FrgPqpsPiLg6jgRpG7oD9PKb21/Ta3YNNF99nd8TQ0tKySxEqOOzH7w/WQnOFNYJ1BfB9WKhQoXkWi8W/evXq56pUqRLh4eHBOLCITp06PQD0PZw6darBLFyWWjl8+LBqe5aY9PDhQ+W13L17t0G45dD1+PHjH/Xr1++Bj49PWJ06dYxq1arR7sCOAoh/z5Ur11QAHL6e8e0oUhNWEcbEOH43JsyEv7hVggE7lp34HkbvHGk9qggTvADWwYbAYr2/Gz1gFgluCMD5DtMr5nAmTRU2vghb6CrBfi6yP5P1LXYrlj7B8RRwF//KFvFvDVjri2OaZEJbAEum3OKxmQWSbfF5LJh81DoU7U9vJYA2cD1g70eLBI3Fe7q4yM7a1SQ0Vr2oj0VPFz1eNq9dG7kNSJoE6Ht8LXiJOHUU6QOouxrFU/cQNgdWwrpY3KkO7vh9cL2y9AmTP0xv42U8Hw7oi3Y7Oy0tLbsSPUlsaVYOVgfGWPCuMHzdyMikSZN+kTt37jmurq7rGzZsuN/Ly+tCu3btHnTt2tXo3r270atXL2Pw4MHGqFGjVHIA4/nmzp1r/PLLL8bGjRtVvBkLK7PuHkuzsLwHh3zpAYxJ7x+HkFnyxeZZ4zDpoUOH1FAzk0jWrVtnLFmyxPjuu++MKVOmcMjUeP/99xn/ZvTo0cPo1q2bwcQTPz+/Wy1btjxVq1atwBIlSqzImDEjCwOzXBkrFLwD6wDjiBxH4QhxjKXXoSkvpwQBdrwTmgZbCWvMGc8QU9YJdethDJ7890btMSQmFwBshgGCtrlK0D3Tu0Vv125Az649AJ4PLbKDdxsJSm6yLSP23QJA88OUMXrfu0nIGsBbMOaxYHI4Yc9MwIiaeXuUSSXMvD2OZdbjvHwNwB3kIoHelVTf3O0lXqYH73+KiQesY8cSIvSAmfF2h2HtrUuwXViT/iJbbQWI8e3Kxv6rMGWZg/gRvXMs29JGrqt9Nr2NpzCv2wsWXNYyxdhWlkBinA1/TNkWiKUNKsHoueVdP2MY+f3BHw96+cH6ONvsZyLSFsYhHl4v4H/pBOsSxRjX+yaMPz5chsvyfb4w/mB7wlrCmsIawvhDXh3G2F/+sBeHMXQkB4zeHX5f6R+t11f8/Hk90EnRAMZrbgCMo06TYQwtmgdbkCxZsiVZsmRZWbRo0d8BgVvq1asX4u3tfbRz587nevbseW3AgAF33nvvvYcjRoyIHDt2rILAL774wqAncMaMGca3335rzJ492/j++++NH374QU2fNs63vUZA++abbxRIfvnll8akSZOMTz/91Pjoo49YRuTRu+++e79fv34333777UsdOnQ43bx58wM1atQIKFu27F958+ZdmzZtWo6eLYLRCcOEhq9hLDE1HIavYfX3wr8N3kxzOFX/HcS87B7s2B2AF/tW2Fuc8S/KCiMA/gmjBy9my1U8VyOTAHhqAWJ+hJ0368qZ9eQw/x4AZ6mbBDUF1CTYYrSM1XORnUUBaC0Bbe/jmOZiGmCRUGbTXsDjOwQ6JmEQbs1EDMbpscDzboLeTdh2vO87NwkcbJFdDSvIttLusjUf1psJ609h3dTLy0fy4Gd2Aqa31dAmIamNLEnXVAqMwRdoP5HV7P1KqMNjQt0OQB2DbuNXvvIG9vkH7Os92JPsXk8cRUd59fOSsGWLZ+LNAKGIN3ls78cyQ4xHJLQRpAhY3VKkSDEoXbp0H+XKletL/BDOLVOmzKoKFSpsrFixYqCLi8s+2HGLxXIWP5BX8Pgm7C5ee4hlHsEiYWwzZOBH6h/G+eXLlze4DCwCFl6pUqX7WMdt2DWs8wLsNOwQ5ocyexLvW1eiRIkl+fPnn5k1a9bxadKkeT9JkiS9sa8ERNbVInASPgmh9FIUhBFMCagEVX7++ofv9RQ/e4448Lrg8G5dGG9IOuIa6psqVaoRuJ4m4nr/GvYjbBGg6pfUqVOvTZky5Z9OTk6bHB0dt2LZnXhPACwIxhZatNAoZpvHhIRABwcH/6RJk+7ge5MnT/4X1rUe21mDdS/DNuanT5/+O0y/dHZ2/hh/b0xc6A7j7y1vapiNWh7G65g3MIm9Xpy9yq7Bjl/odFsfgZH2XyR9+Q0Y7xhYCqUaLE6+FNkxgskJLhLQB/ASBMgJN6GGGaasexdwAkDzmasEl42trhVxIcYYlpHQ1PToMU7PVUJqWsS/L46PPWu3AN6uWCSEvWwjGH/4JBmDBZ5VDb0wLHfbTUIu4z378d7FLhI0CufGu6LsVn1umVnMLiDWTUZHDtIaXypMSiAg0QPWVo5laCRfdkkpKweJXCfUEe7eETnfCz+uMV6r7uXkgK/FqoC7pbBIK5RG4jjYA5cepsT+w87j4+dArxt/zOjN4DAMwy8I3h3ww/Jejhw5puXJk2dZ7ty5N2fPnn0vfmj+hp3H89OlSpU6Wa1atVPNmzc/w1IUAwYMuPnhhx8+mDRpUviMGTMiOIT1888/G7/++quxYcMGlbUYHBxs7Nu3T8U1nThxwvj7779VSYXz588/1xgrxGU4HHX06FHjwIEDKnaIw2JbtmxRw1IcKmN7qu+++y5yypQpj8aNGxc2bNiwO927d7/q4+Nzvm7duqcBfScLFSp0MnPmzGdwbOczZcp0BDAamDdv3t9wjD9i/jj8IPfAsdMLWBlGoOX3IUcimJFO4NU/mq+PbH8j/Nz5+fNvhLFmhH969vnbyLAf/t3wpoBODhqdCTQC4oua7T00roPr43q5ft5gcVtMHGEI1NPXpE5isA/ZNdjxLnwT7CsYh1ZeVAxcXQNbCOMQSJyptGzOUFl2VLNI4BSAywUz+cBWSiT0KsDmV1fxb5+YGvVXxTFbY/TKY1rPXUK64di/4LECdI8T6Fgw2TwXTwo9m7AX8BDLXsT5OgjYY5buMjwfB+Dr5C7Blblu62ZeTPRw+cgAXDmnrWAXlqq5XGuWQx72cxADt5eEuocNRJZVMItc24e64UvRUxrgDmGLgjtz3x/g8WrM5916YoQ7/hjwzr6mo6Njl9SpU492cnL6Fs9ZRmI95m3Mly/f1ipVqgT7+vqe6N+///WxY8eGTZs2TYHTmjVrVDD2X3/9pWJ9AgMDVQshxv+wcCkhjHFHzEBkBh4z8WI7+5DxSAwWZ7Yj452YAXnx4kUFjQRBlnBg9t/OnTsVCBIyf//9d2PZsmVquGzixImRgMC7b7311vmGDRvuA7DuzJAhA78DN8B+hc1PlSrVFylSpOCwHaGPw7x2H8erpaUVp7JbsOMYPGvUzYFFF85458D4md9hbCXyuNl7XIn13iyys4+bhG6wSNAjAg1hhhmnAJ3dgJeJLrIVx2gkuh9seiQJem4SUAXnwQcgOwjn4Qs3CVwBgAvBsV8j7FaV49a4PFsyxjHA3j4mn1wH4DEZgwWTZ+HxhyboqXZqAPz/8Hi2ldwAo5nSRm7S+5XUV4xSrmJ0S60SJu40FAnELyEveN6N2o8IpSzd4i27lceRCRV+qi7fAkzj9AYlFsQ7fUII49sYAzsKxlii2SxjUK9evV1vvvnmlb59+0bagsVZE+zHH39UBUm3bt2qvGP0mhGaEqMInQRBeg/pTSTwsX4X451YjJVB6UOGDDHeeeedu61btz5eqVKlv9KlS7cA53A6jF/ijDFm/B+/O+nhS+yeXi0trWfLLsGOMQXfwfil9bKB7XRRMyCVmbL9YXFevJBxaYCSuq4SNA2Qcpixd2bm7AHAXSC9VWvxWvtq4h/7tdPiWThm58oSVAmA5usiO4fj+H90k12/4RyEAuSYjPGAsGdC3iFl9PLxudnzNuAUlv0D53GGRUIHAJZbAx6rMXnFQwI5TPB/ytpQ2iRvJYescGSkai5G3cJy1dtRNmUz4zAHwjjsYF9iEoi39BC2GrMNJ3tLGJ5PFM+4v0F5SXE4lZ44/u0y7obJBx/kzp17dpUqVXY2adLkOsDEaN++vdGnTx96qSIWL16shjM5zKn1fNELePDgQTXky8B4Zh926dKFPU2N5s2bh9epU+dIqVKlfkmePPkEnHPG8jFQvRaMZTj+8XeipaWVKGV3YEfImQRjVg2Di19FjANgLRwO7bwNi5NM2aflKofTukhwV8DJVkDKbTP2jnXvdrFUyCl3CR4P2KkEEHxt6vMwVo+lUHBOmuMcvAdo+xEWaJGQk5iyl+1dwi/Pky1Gj+eLHk8r6N3G+wIAij9g2SFMxigvQSXweq5G8lX2Timd+5euKIecbAWAAXeZGsuR7IVlNjbPZByCnX3Wi+sszvg5HgO7bo23Y6bsJYDdAGmiYmvsTYyNIzTQS0SvnF/OnDk/L1u27KY33njjcokSJSLq169/p3///jdnzpwZzmFTDk+yWKlWzIheTALf0qVLjTFjxtzz8/O7Wb58+fDixYuzCfr+YsWKzbcO3zJZg2EtTETR9cC0tBKn7Ars+GXDLJu1MJYfiImMQAaW8u51BYwZRfES3AmQSWXWiQv+EiBylnFnJqyEGhYJvWWRoO2uEvQ2lnut7qqZKOEqO9Ky1y2LOltkTw2cnz4Atq9dxH8T4I7JGOx+oc6V2avXLJ7Mc4hlmahxHefwrKsa4t75c235YU57ab2vRcZ8DwtVTWo42OCOMWs1ZTuuKt448EeOwcH2qVZSEDA3S3yt+25myh4A3LHEhj2Iw3wMeWAGZ6PMmTN/kjFjxg2pU6c+DJg42q5du/OTJk16+Oeff6qhRVudLca6aaCLPbGGGeuNcciacYa7du0y5syZYwwaNOhG9erVT2bKlOm4s7NzaI4cOeYkT568Gz47JqgwAF4nYmhpJR7ZDdhx6JRFCtkDlt6UmKzhxfgkFjdmKzKWR4i3LzGLbM/PDFCAyipAS4Q55MjyICwJEnjMVQKmmrF3r688JCQ9YxTpxQTgNWRnDJybSQC4Va7ifxhTo4ocxnmzFYVmMsZhnENVHDrcXTbery1LjPpJ5hmlc/WJTN4kc4QCIw7LNktyVUo6MLGGYMdrzn7li8vFV5ZbodRQkOctmzB9Xi3HOJGTk1OxNGnSEAoY27U2V65c29q2bXtm4sSJymPE4qlMYrh06ZIVN7TiU4Tp48ePq0zgtWvXqiSNgQMH3q1cufIufH5MyljI0hmActbe0148La2EL7sAO979syK3P4yN/ekFiGnxQJlVxiLHT3euiHO5SUgVQMhki4Qe4BCjmS1q1r1zk9B1AJh+le20LVl8qIrqcxtQhTF6ALshFgn+yk2CV+BxCM7V5UqyJ7KSHDNc5CjsiFERZpFzRnmnDZHZy3tFJPFyVGDn4OsQkax2hgtZMjdfXkbmtXaT04UbyGFmZ9qfRuIGxEfqAea2KTA1CxiH4/kaTJkpG5fi8B2L+X4Im1utWrVdXbp0ifzwww9VcD8zPNn3USthiJnDLP8yfvx4Qp7RqlWrC3nz5uUND79/eyZLlozV/+1x2F9LS+u/ZRdgx51gUWF+scRW9h/hkcO7vEv9EhY3ra7+RRx+dJGArqYnKuiqrTcrvXh8bpHAKSYA7rBvz1I8qIz8lhqgV4GgV1H2Dq0uS/+qK9+F15SFRjX51agqW2FmMkbpTAuNtHUrGg5+Jtw5tspoZC/d9l4Fp7VbqsjJaTjH/cxYvx1uLMJsJmOMtI+hKU9JCZzywr9QaSORyuvoK/cAd/PwGgPiY1P0mrNrileqVKk+t1gs+2rXrm107tyZNdrC2cpIK+GLZWCYjPHBBx9ENG/e3KhaterNwoULsxYoky9YcJaJMFpaWglH8Q52zIBl9iu/SHiXGJtiMgU9gxzufR9mB8MOhkNVwASLFwPkTrvJrnAWNbbWeAuzSNAWFwl+h0O4CbmwcWyqt2TP0ltSTuwuue6+KdUMX+loNJRPr1WRdScssv9MpaRbr+QrOvBuisa5rV4vByNlwwJGiWxfG+4OuyNxziNYNBlwx3ZpcywSPNRFQptUlMDiAL3sZWVD+hjpjPGyaiepAXPdAXgHHg/L+shd2GTAXXTqO76oCHQF06ZN26NAgQJ/MQECP/g3v/3224esx8ayHDpOLvHJ1hN0w4YNkX369LkLkL9erFixI9myZZuK64HF3hmTykQZLS0t+1a8gh1LkDCQnVDHXotxAS5MTiDUcViWZRjsQtUkIAegwg9QsQpAd/cJ3AVF4jFbdi2sKAE1rItrRdFAke79RQ7BIvpLMqOXpAnvJoUmNZAJLq5yqlplOfpOudS/zEhfvfJxB9+kCowcvB2NrC6tjXJpVxpV5LgaCmenDADefXwOV/E5nMY534vHP7uJ/xgXCWiDz6IMk2Csm41bMVPWB9etj5x9DHd+cgPPR0mTmCtjkTx58sIpU6YcBajbWrZs2aPvvffefRYAZqcFltrQSvwi4LHZO7tyzJo1i2VUzmXNmnVvqlSp5js7O7N8DZNmtLS07FfxBna8+2OSBAGLzbXj0nvGemCfwZbB+EVlFyosa5Kb3RsCh7lK0AEz7s7s0gDoeAjQ2OQiOwfo2DtTM/AD01ekQx+RvbiQjMEwwN0jPP5hpNlLVKmZRDp7yI3CaWtVfFu8HQIUFAGOkrVKZ+Qu8c4Vl6Tbb1eRo2rY1lZDj4957i3iHwm4u2SRwH0WCdmI6WJX8f8E87rgM/HwkL1xVwuPdey8ZQLsjoI7s8bd3+IlPaWB6uLw0mJCBCZDAHbLq1WrdozFcH/77TeVWan1+ur27duGv7+/KhTdoUOHuzlz5tyM64ShLE142cC0tLTsT/ECdhwSZV2532CsQh8fJT6Y5s9CtUtgLKRqN+n+ZSUkvasEdwDg/WKR4Cv03hEyrH1nz7hL0A/uEtiirpxnmYLXUh1FUvQWaQ6oC+oHoHvXhLqHAL2VeM6m6v/UBEktrWQkAOmBLRkheaM8ZwrkG7mgihz/zE12sZ1ZEM77BdbLM2HPBnxmZwwz/jHgPpY5CND+zV1Cv3aRgPcBe+0xr1Yl8S/GXrrWLca8PKWYiq9j2zGb585bQjCf7aWirXTp0rFlG7u0zHR3d78waNAgBtVHsg2XllZUBQUFGZ999pnh5eUVmSVLlo24ZgalT5++LK8jLS0tu1Kcgx3d+KzFtRrGDcdnn0OWPmEhZHa5YGFVu5Kr7ChbSQI+skhgCABPtSUz+62yhltQCECiJ1tsvW6xd91wDQHq6gHi/oRFDgLUDRQJw+P1uEuoNfLfIL2CNJa6cliVDjE9d7cw/SRNE4/MHnK5OEvRANJGuIj/TzjvW3HeORx7lsPjrKNnK6/y5LOwAXcAh8v/wvQbfCb9K0lQUxcJqsTPp6psysIuJNY9eHX5SVXA3CYFpzwGHouP/C6tnwO0z1ehJEmSDCpRokRoixYtHtIrQw+Nlta/iYDXv39/w2KxXM6WLdsPuI7Y2SLR9L7W0koEilOwY2ZqPRjryc2FxXe2FQGAvSt59/kFrCjMrsQCvu4S2ATAscZNdt2iJ+lJYeOAK4CPnypKQCMG+Fvfktjl0Eekaj+Rn2GRHIIdAAPUbcX81nzdXOy5csFJXS4t5Z6CIg5n+spuPO7Idl6GGA4lZZGTWVB6az6AWQOA3iAA22ycb3/A9EXA3g08f4Bzj8/CVjB5Dz4T9gEOiOSwOZZjMsYuExDp0QtoXln8i7nI/kyVZYtz4VcpscK2Y/TQ+che7HekOg4flSm7AMfyBpb4r3PAmyuLk5PTnDJlylwfPXr0bRYQZmyVltaLiIWQV65c+aBJkyZ3AHehuJ7egsXHyIuWltY/FadgVwrGxvx/wOgtswdx2Kw77ADsU5jdAZIJd6GlYEMJCyZQ7FNQ4S677gEcDrhIwCjASF7rWxKtAG+lYD8C6O7SU9ffhLq9mNex24vV3SovGeRLZquoIVmCXTsJBxBtki5SwrrMY9HTZg6N78rNvrQcbsX57wH7Eo/X4/M4Z8I2k13MhBfTm8dkDLY+C7yPz+cyAPE44HyXqwQttcjOjy0S1A6fZ/mXHrb1kjQAubex3wfUMXBY1kduwSaLnxSxLvUPVaxY0RFA1xAPf61Zs+ZdFhRmey8tregKcBcZEhJivPvuu4azs/MJXFMfZMyYMTZqkGppaUVPcQZ27AE7A8bg2w6w//IqxKV4pzketh3G2k12E28XVWw3BpBo7CKBP1gk+A7jv2zDggCFc3htDswzsda9ewfXED6cGYC6G4ypo6cOQHca1gOvMVbsReSCK2+0ZMe12ET2AogeqtpwTEjwlZHS+L/Xw56+TGCpJP6VAW4tAGp9cP4/x+NfAHH7YA/YCcOMz+OUxji9w/ycYP7shbsXn+F6elzxeKyr+HfGtAYB0rqZ/5anZMR+v4f9Pq28doQ7X9VT9kNp9s8+uJ6enikBdexasa5ly5YR69evV6VLtLReRUywGTNmjJE3b96/cW2NLF++fD51wWlpacWX4gTsGEc3DPYXjCVG4qUZ/3+ImbLM9mJCBzO+7FYAilIAuI/cZM8OwEAYW2mZHiL2Tg0NwrwPK0loeeviiUKAuMwAuA/7AuqGAOg4BIvnl/F8xNAXhzrKAhsNGy51ZSxg6JC16G8kIGk/oKixGuqMpiyyO5uLBLmbZVEC3gfAzXSToFWAPdbGO08vK8Gu6v8lY5iP8fojLHcY7/kNsPc1Hr/H9QDQa9JLWEcCmWz0bHlJXuz3J9j/awrs6L3zk+OYNxCw9zTgezg6Om5s1qxZxM6dO60/y/ajyMhI1VN24cKFxieffGKMGjXq/2zKlClGQECAERYWZn3HExFQ2ReVHTBYqoNdMFimhcszEYT9avmcrz1LXIagy04MH3300eNt8jH35+rVq9YlX07c502bNhnjxo0zvvzyS9V6jft67tw5ta/8PFhehHXkEqJ4/nhsBQoUOIXrjN/1ujWZllb8KdbBjkG1nWDrYP1hrF1nryIM0avIhAo+tkvPHdVA1iQHEDQGDMwFSJzjMKAtmB/PH7pK0EJM61pku/02un9BcYgVENcddpZeOg7BAujuwqYPln96pv5DBDt6Z4dIGTxuL9MAQA+scWqEu58Ad49LpbysKkqgo6sElwSkeVlk53B8VvPwmQDEQw7w84Ld4RCuOWxLryvj9Di8TmMyRuAVvGezi/h/i894AICvUSXZWp49dOm55fC8dVMsGpQPQDdFDcUS7kxQ3Ydj6SAjH0NqobRp086yWCzG1q1brT/H9iXG+LEDgoeHh5EjRw6jbNmyRrly5R5b06ZNjcWLF6v4rqdFKPz888+N3r17G5s3b1YA9/333xvLly9XQ81r1qwxevbsqQL/n6X9+/cbXbp0MTJlymSULFny8Ta5Dz4+Pmo9r1LHj2A4YsQIte7WrVsrYJw3b55q7XX06FFj6NChxtdff/1c8EwIIty99957RpYsWfY7OTnFVV1SLS2tfypWwY5/2Cyl8DPsY1h0f4TjWgQ5FgGeA2MpFMYE2q2YDVtJ9uQBMLyLH/+D7rI7jH1nGeeFeeGAg/2wMS6y840YzcqMQ+HiSdpTpDWgbjfj6eipY606QN0SPH6Zz4dgNxH2LiybdMYfgI9sUUBki1Pzkj6wGPlR4nl3k20pOTxeXoLyuUpIPUDdQEDbd67iv9MCgHOT4Lv4nMLxGeKzi5qMoQomY37wXSx3He/ZDZuP93+A+S0ssq9IZbnszEQPx+ZZygHkVgLo7luHZQmpAZjWxG4wWaJHlSpVrs6ZMyfCXr1C9Gr9+uuvRteuXZX3h10u6NGy2aVLl4y7d+8qiKM4JWwR3M6ePWt8+umnRt++fdk5wXj48KFx+fJl49q1awqqfvjhB6N9+/aqCf6zwDA0NNQYMmSI0adPHyM4OPjxNtk2bf78+SqOjEBMzyDPH7fL/SHM2LpwcL3cJuGM8237yePauHGjMXr0aOWtI0SeP3/euHLlimrndeTIEbVtgp0t3pGQy9e5Lu4/jychCOcx8q233grPnDkz65PqIVktrfhRrIId0+Dp/aIXjDF2CUHMVmTmLsuxjIPZfTFggENG/PjXdZXgGYCFSwQ7en4YvO8muy8DCn51kUBvepGsb0kwAsDVB9RtwFRlwLIIMR6v6232sHwZ2cBuKCyr9Fe9WPvCbj+GOy/5E4DEazfGRRivKrszMOO2ggSUBnTXdpOg7viMpuCzW4fpadOTR7hjIgb7B5tePUI7wO4BoO4i7AjgPcgi/svdZM9HWNYva/nW/R28kvqLn0QouPOVcGxwpRSVdimSpphJj9WdO3fsthcYAYjg1a9fP1UQ97908OBBVXajcuXKxttvv20AKBSAbdu2TUHXTz/9xMxNBWZ169alJ0l5/f7880/rGp6ISQAjR440WJj56ZIvHDLl+lmwee/evcbUqVOVZ9Dd3Z39VRXM4bwa3377rVGjRg3l6SOc7tmzR8Ed1+3t7W3ky5fPqF69ugK4RYsWqSb89NgRHrmemTNnPh7ypdexQYMGal3s38rlEwLcAUgjf/nlF6NEiRJHcbmzN7fuc62lFfeKNbBj2YWFMBYA5o9pQhKHrzrDWAZlBCwjzO5VSbYUc5GA3hYJ2mIBBBAGGNdFUAAQsO7daDa6ty5u9+oPZgXELe8nEm6tVWfg8XbMa0FPnnWx6MoGdowDMj3IHHr1kWUAIVurrjt4/g2ex8kwtoecSFFV/Au6SUAVfE6esP4AdSZjrMDjPQC+O1XwWZoFks34PNOOKtij1w9gF+TisGNd/sKDTyRvnDtCDccSUj3lvmDldVvWO7h6+WrThWSnsoEdYY3DlP+m48ePq4B9Qg+H/1g4t0WLFuyOoDolsAUa50+aNEkNwxIWOQxNgDpw4IB1LU9kAzvG9tGLFlUEMIIaY/S2b9+uHrds2VLt57Jly9S2OETs6+trdOvWTW3D9jrB7fTp02q9tWrVUsvwPYwX5NAs10ew42OCIYGUw8UsFM3tMM6vc+fOar08DgKkvYvH26tXr9sFCxbkTb1dj3poaSVSxQrYsR7cbBjBiLEWCVEM/mWQ/Q7YYFj8NYGPhuiVc5GdTfBj/4ObBB+zFdWlBw+gcN8iIcsBCu0ryF85rG+xS/XAjQEAbi7g7i69dNZkif29RNqNfLGyJs/TP8GuIz5bH2kFOwKoi7RmyZ6EMTY0XlRRNmTG5+XmJoFtMR3BzxOf3a+YAtADzsIemeBuy7zl9Kjh6rjNyFOip+HUIosJqT6wFmLUHFTTWL99vfWn1z7FYU7G2DGmzdPTUyUyENhsxiQGDk9y6JOQQw8dvWcUh0cZp9apUydjx44dahiXcWzTp09Xw7RMjBg4cKCxe/dutfzToieOIEbPHiHLtk2C1YABA9R2mP1JaAS0qPm2mDsmPXDbXD+3Rc2ZM0d5B+l5pKeNyRuTJ09W3kMOJxMEuX9M7rCB3ezZsx97BLt37/54XRwS5va4DCHS3sUhacJrsWLFLuBSbmBe0VpaWnGoGAc7ejm4soOwnrBX6mEZz2KmLOPtgmFs2ZRg4tRqye5s7hLYEyCwBUBwxxyeNQ2gcMIiAR8y9q5ubLa/ekkB4IrApgHsVFkTQh0eH4W9A3vVOoNRwY6frylPyQKQGwcQumFNPiDc/WatCRfvpXk8xEjmIqFFLRLUymxhFjAXFoDP9gg+T3a9uIPHhpscMsql/MvIXvptw6F1OnofDWmVLLLaB7Uil/uvsP702qcYV0YAq1OnjpEzZ07jjTfe+D978803VTwaQYkQRNDhMKlNBD/CEmPh6DWygR2BjEOyBDJC37NELx6HWzlcCyB5vE0XFxfj/fffV9m6FIdIBw8erOCLcXQUY/roHVywYMHjYVwC5PDhw1WsIMGMnjt67b777js13Mp9ZcydDezoLWQcIDNnCXFt27ZVw688vtWrV6v102v3PDC1N+3fvz+yZs2aZzJmzMiwFi0trbhVjIIdh8d6wLbCGMMUdw3SY08usB9hjLlLUEPKDNqvKAFVAHezAAFXGYxvFtFlrFbQLYsE/wFQ6FROgu0mUxkgl7ufyBjYdQ6/WjNg/wboDY9Grbp/07PBjvKWsuKFa5clQ0xv11UA3kcwu0n6oUe2pGxIY8ZVhuR3l6DaALt+jK90kZDN+KyvVZFdEeXSLjAyuzY3HJqmNjJWzvPgq29mhd2+9/JZnXEhDsUyjo2AxVg3Qhw9XTZjwgGhjvBEbxoTDqKC2pIlSxQsPQ12fC/jvhhjyKHPZ4mlUoYNG6aSJ7hO2zbpIWMChk2EOAIlocsGcStWrFAxd4Q12zwOFXO4lQkd9B4yHpCQN2vWLOV1fB7Ycf8IjlmzZmXpEKNQoUJG4cKFjaJFiyqwZdxeQhCg9yGOf623t3cF66WrpaUVd4pRsKNXi+3C+MOZWCqQ01vDk7QYNhNWDJag5Co7ClQS/06AuN84hFdFDqihWbMFVtAxiwR85S7+BNh4FcGtv8gQ2IUoMXVXAXXjcbcQUzcJzwe7buIontIbIHc0SjeHM7BW1iXsUhXlWrrSciV3GTlaqrW8Nd5bOp31dBhiVM4w0MhXrLlRPa0l8qdeH0feOmcO7dmroiZPcCjzeeJQHxMQCFhMlLCJw5v/BXbP89j9W/JEVBHs6FFjHTrbcvQycig2KuxxeJbbJ8zR2/eiYMc4Pu4Dh2J5DjikSW/jH3/8obyKCSHGjjp8+HBEw4YNTwBQ61gvUy0trbhTjIFdVdgCWIKEn/8Q4+uawei1Y9xdAViCEstuuEpgNRcJ+gJAdzxqtiVg7zZ70WL6NktyWN8Spxop4gSI6zZA5Iht+BXPHwDqvubQrHWxmNDzwY6id85TpomftbYd4Y617VrF6D7EuCaJ5Bgq0n6wyPI+kvRqb8lndBMXwyt5JaOJ5Hk4zq9r2NEDe60/u/apqMkTzGj9N7F8CGPfmElKMT6PSQtMNHg6xo7eM9ahozfueR4vljvh0Clh0Rbb9iwR7Ahh9A7aII7ePoIdh0uZ/EAR8pjMQZBjLB5B77/AjnX3uB/Tpk1T62PhYps4JMtzwwxcexe9qqtWraKn8TIuTbav09LSilvFCNixoOv3MA5ZVuOMRCh2y2ArNMLdezB200hwArjldBX/nhYJWA+7bhbEZWHj/fTenQH4fW6R0KocxrW+JdZliDj0BTgD4ELoqbO2CouALesvUta6WEzp38GO8pY6sB3WDFnG210UHxkg7M9qZ2IiCc5XXUDwNziHFwnENjDGuTyB+YsqJ5VFLRo3PPLLavvOiiWcMZ6sWbNmqojvV199pcDMZvRoEYRs9eI4zOnl5WVMnDhRwRAzTjt27KggiHF1BC0WLeZwKtdrS8hgQeCnZctE5TAoofB5YnIHS6oQPG3JE9wX7htLmhDIWKuuTZs2KiaOyRBUYGCggkbuJ5enN45Dvxx65ZAzt83XONzM/efQLpMxeNw8Dsbc8Vj+bd/sRfRQ4njuFS1adCUu0Zj++9XS0vpvvRLYMaaOjdM/h62AsQ9lYhaTJxg7uAbGxBB21bCnnrcvrCoSXBaAN9lMpAiJMBMrVOZsuJsEbXCRwDfLyrZcrLtmfUtsiVDnDoj7AxCiYuoAcwS7rb3MOogxrf8Gux4AOB8ZDLurPHZmvN1mAJ49Zfg54Bxlw7l7E+bPc0aYo+FxGOaF4vHAbiJ5U6ZN6+qcPv1iDnE+qzivvYjZrgQdQlHx4sX/YdWqVVPQdP36dbU8Ewk4ZFm6dGmDmbQEHyYw2AoME5QIYExW4FArl/Xz81MZtU+Lw5yMiaPZigQ/S2z9xX1gLGDUYVF64Zj1ypIq3FceQ9R4PnrsvvnmG+Xp4/6zEDOhjR5EDhtzuxxKtnnpbB04uC6uk94+mzfQnsW6ffQs4jM5niZNmu64ThPkDbCWVgLXK4EdS2bQe8VkiTdhCTkD9kXFrF/2lP0D1hSWIMqgPEsusiG7qwS1N5MoAh+4yW6VXIHHEa4ScNEi/j+4yM7qEotw11ukJGwRIOW+zdsEKDkE88L82Lie/hvsqJZSVrxlIYDuoQI7XwnD81nS8ZWzcl9ZgDVHnBvW+JsKOwmQU8WbCXd4zq4cK/G40WDzxkNk5Eh2VHm3Ro0adxivZc+FbllDjkOhhw8fVh0aohrnEW6YPUtxys4MjF+jh45ZqiwlQnil94/P6VUjMPKYuSwhKuoQp018ncBFs63/WeL+cRlux9ZxwiZuj9437iu9VtwHm7h+vs7hW76PUMjnnM/luE7baxSPgUO0XBfXGTWBw55FbyiHyLNkyfInrrnCsAR546ullcD1SmDHgHv23cTvioK810XuMNtxZ+aMhCq2o3KTgAouEjDKVQIP02tnxt7tN9wk9C7mbwL89aosQTGeGTpApCgAZSqg7o4N6hhjh+e9RsZeE/EXAzsvcQLM1cX0kPLaMZnCW46Kn3RQde/iSV1EMuKcsezLVsDbDQ5bs86fFer24tyNxOvlcf6eLs1TMlOmTAtr166tvFdaWjEt1hJk4keePHmOp0iRoiOuudj29mtpaT1brwR2DLSvAkvQcPMSogeEwfQEPLuLu3oZAfAyA+I6WiRgpUWCb5lxd4etHrzg4y4S+K2rBDQmCFrf8koCgOQFiIzrJ3KVw69WODmN+cMwjc1OHy8GdhRj6rxlgrB/LGvb+Smv3QbMr4hnce6J6CXiivPzCc6bSjChDYXhHN7H/J8x3+s/zl2dpEmTbuMwYUKph6aVMEQPJmMiixcvfhbX2YewePdsa2m9xoqR5AmtRCJ3CXZxFf9xrhK4yyJBEU+8d3sMVwneYZHAHm6yjUMsLy16nQAh7wNCTtm6ShDwACcfE/isi8WWXhzsRgLgfaU8QO53aSvh1li7e4C7cYC8OLuZ6SmSE+fKF+doKc7PPZ4zwrA1JpHD1lOxTCXr4s9Vjhw5COWtHR0dtzLJgNmjUYcLtbReRoxnZNxhkSJFmAU7Pk+ePHbfX1tLK5FLg53W/4ulUVwksKWrBKx1k5Cb7hJqMLmCMXiAvkum925HrYryezrrW15YvUXSWocSDxNOCHWAlVuAFHaaiIsyOS8OdhThzkveAtAdfpwl643H3tII82N1qImxdL1EiuP8jMG5OcNzZTM8vw1bj/PWEVD3wgHqFStWTJU2bVpfBweHrQ0bNnzIQHdbdqeWVnTEmwJ21GCplixZsrB92MQCBQqwnaSWllb8SoOd1j9VWNYkt0hQGdgoiwQehKmsWTadZ+ydRQIOwD6oIoEv7GEDqKQCpPjC9hNOCHaAk7t4vgDGZuFxMbwZPbCjmkhmgNwMFWtnFi2OhM3BvFgr5eAl4gRga4LzQy/ddRvQWc/ZZcz7HFaG59T6lhdW7ty5WcqmZvLkyX+2WCz3P//88/vMHNXSio42bNgQ5uvrG4br6TCuJ1yWL/j3pKWlFdvSYKf1fLnIzuwW8W8IiJvrJkF32XDeNjxrkeCzmP8j5jf1kA3/mVDQX6QRYCTIBij9RCLxa7Aa07hsOxR9sKN8pCFsx2O4a6vajX2Ag4rxen84JyVwnj7ENBgWxnNFwzzGIW7AtAfm57cu/rIiRJdxdHQcU6FChcNvvvlmJLsc2HPGrJZ9iKVhWPy5du3at3LlyrUM1xE7DsVEuz8tLa2YkQY7rf+Wq+woC4gb6y67Ay0SZJjJFQcBdwGRbrJ7q6sEjqCHz7r4P9RbxA1A8qsN6pjNCTjZjml96yJxpZcDu+aSXrxxGOwfS7BjMoWP+APuYqzWXkeRFIDcxjhPP2J6zZYgYfXSncL8r2B1cS5jrAxM1qxZswHuuuLhTzVq1Lg6duxY4/fff1fB8FpaUUWg++6771R3j2zZsm3HNTM6Q4YMldWFpKWlZU/SYKf1YmLzecBba9hPALpzzJil566yHDLcJCgM8+a5SGD9qrIpi/UtSj1FigJIfgCcRBLoCHd4fgiA0t66SFzq5cCO8pFCsPmwSGttu7uAvW+lnWS1LvGycsC5KITz8zbOy47+OD+2pBI8foDXgmCDYP93XmNYb8DGODs7b6hfv/4ZZjiywC5rv2m9vmIJE9bSW7FihdGjR48HBQsWDEmWLNkcXCtesDjrTqOlpRUtabDTenGNFCOJm2zL5Sr+w1wl8JCb7H7IuDsmV+D5I1cJ2A3we99F9hf1kJEpRopk7AeQArTcJKhYoY4ZsP0BL2YB3bjVy4MdkyV8pDlg7oQCOzNL9jjmdwfcpbYuFS0B3FLCPHCOZuOcXCbUWYGOXrormLcAYFyfrcOsb4lNOaVKlap8pkyZJmfNmnWvu7v7mbFjxz5g/1LG4Nlz1wqtmBO7RzChhu3L2A2jTZs2l/Lly3cS18VaGG/GmDSla9RpadmvNNhpRV+Au4ysa2eRkB8xvWZ2rWDmbDBs76WKcmhJTfnprT7iOBqQcoywQi8UAIbZnGMxL74CrV8e7KhOkkV8ZTzsoipa3EYiAHfbXiaRoodIGoBbd9iOASJ36M3ksCuhDudpF6wvlsnH7FjrW+JKLEZd3snJaXCxYsX8AXh3O3To8GDBggWRCaUDgtbLi31zP/jgg/B69erdL1eu3Nns2bN/h+uhEYxljl7qBkZLSytOpcFO6+XlKjtKukhAb1cJ2kGwM5MrDhuVZHd4Zdl4qKX0vfCWFItkrBjg7iqgbjqHHa1vjw+9GthRHJL1lpUq1o5w5yP3xUtGw7Jbl/hXGaL641bHefgCUHeEQMfzQ/DF/HuwRbAWQ0zPSHyKQ781Yd3Spk07q2bNmifYdJ8N6xcvXhzB1l9aCV/00G3ZssWYMGGCip9jGZySJUuux+c+HNYCxmF6LS2thKMYBzv+GNWB9YAx2/HpEhbMnmQz9Xdg5WFOsNgQf2TZFaMALK49Hq+VSspeJ3cJbOEqgfMtsu9oJdkb7ioHVXmU6rLRaCQTjfbS+H53ybEQRJXH+rb40quDHeUlnQF3pxXYsbadjxyB+Ui3f7/W6KkEtL0FmPsVU5XxagU6eulCAHtjMY3LLOEXVWnY27CpsBW1a9fez56gbLTPxvYcrtUJFwlHp06dMv744w+VDME2YO3atbucP3/+Dfhs58JGJE+enN/R8X1joaWl9XKKcbBjgcrvYaxCPhb2dMB3CRhT5FnQcigstlrPVIVNhvGOU4NdHMhV/s7tLn8NrSqrj1aR7YaLHDBcAXeust+oIutu15QfZ5ZRsXcn4q3XKhQzYNdScgPsvgTU3VeeO8KdlywRTwVA/xAzXgeCgQFwY2FnCHOEOhpA7nofkVWAOm8uZ32LvYrt9MqkTp26n5OT03w83l6kSJHdb7311qVvvvmGtc1UL9rjx4+rxvZa8S/GRrI7xL59+1S3kaVLlxojRox4ULdu3cMpUqQIwme4Lm3atBOSJk3aBI9js52flpZW3CjGwY5u+89gK2BfwfhDahO9d61h82CEO/zWPa6az9cYTE9PGy1qLAdfYwYWf/QYRM4sRBrLPjCIl3CYDRY1qJfeus9hrWCMGeI6ua2nm6PTY8j35oCxFlPU1/kat8cvO26P+8QfNq3nqI9kbtRBqm1qLmMAc1tYzNiwqH6zu2GBN1wlZKWrBPtVleDYzPD8N8UM2FHeUkd8ZKP4AuoId95yE88Hi8f/X2PsDAGY84Ktht1ivCGHXwF0EXh+EcYh2TLPaNxvz+LfHv/eiidJksQ3b968X+fOnTs0R44cF1xcXM4B9C5//fXXYYGBgSrx4saNG8qjFxYWZsUNrdjQo0ePjPv376vkB8ZDnjx50li+fDlB7majRo3O5c+f/yI+oxOYrsyQIQPuL9T3JL//+D2nEyK0tBKHYhzsWMuMsRlsBM1hG4KVbTiW4IbfMQV8fL03zNZzkwVXuRMhsGAY12H74eX7OsA6wTjE+ytsG4xDQx6wSbAA2AxYORjFH/AJMA75joPxznQ5jMPEth9QfpGxuCbXxe0SOOvCbKoHexe2EPYHrA0sPjI5E4RwokoDWBYNFoer70hew0e8jVry/UM38QfUmf1mLRISbpHgY64SMNld/NltIq4Vc2DniZsNX3Cbj9xWYGfC3SZc8Y9r81lbgn0GiDsKC7clkWBeGGwt/hg64CJ+tf2IfxEK2IGECSSMyesOyJsBwAt0c3O7U6VKFcPLyyucXqL58+dH7t69W7cxi2ExTu706dOqBuEXX3wR1r179/u1atUyLBaL4e7ufqJEiRIrUqRIYYuZY19hjqy8cCs6LS2tBKUYBzt+uXOItT+MYNcdxjt7eroKwniXOAKG3zU6MxTY0ZtGSCOYEcL4w0uP3xAYX6fHbBRsAYxfTvT0MVOLRTI57AueUHC3FEaQ4xcW92M6jLDG93KbrL/E4Vl6FTk8S4jjPk6DjYT9APsC5gqjh5AwuRhGsOO+cL69D5XFi0DohfCBzsaH/gAnSg0x9pKUh1rJO++5yq7PXCXkrJlYcVDVvbNI0E2LBC63iH+nyhJEj2pcKebAjvLBD6Q3rhFfeWjNkmVtu3nly0sZnIOWgLl5MFVsmEDHc4PnZwh7uPjdE5iX7kWVBlYSxhsj/g3hVMiEQoUKLalTp84eHx+fu126dDH69Omj+ozOmDHDWLNmjbF3717jypUrVlTRepbojaMXjskO8+bNM8aPH28MHjzYAMgZ7du3N5o3b36mUqVKfzo7O3+Nc87vPH7/8uaV131c/p1paWnFn2IN7OhZ+wBGjxe9aAQlgtRbMNZCItRxGUIdPRwEs+YwmwhrBD0mWHDYjkBISGsKo9gwfhOMsMahWHoNuC1uswiMnsOZsB9hFWGUO4xfeL4weoveh9GrZxte5Y/ReBihk0OvLMJJgGwL03qO8MuRFSfs474it+mRItTh8QVA3pANAOFSEpnNRYIGWCTkL1cJvMWkCgKeuxqeDTniJoEAv8BqXrIoLoaCYhbsGkhygFx9AN4uQF0kMMZw8JZLJVxlbu8kspPnglDH84Jzcg/nZAvO1UAmUVjX8LqIf+dVkyRJ0hFT3kTRaz/H0dFxWYkSJf5s1qzZgZ49e94g6LE48vfff28sWLDAWLVqlbFp0yaDXj4G/CfmenoRERHKk8l4uMOHDxs7d+401q1bZ/z888/G3LlzjZkzZxqffvqp8e677z5o167d3+7u7juyZs26GueRN7zfwsbj/PK7i7FyjGXWscVaWq+nYhzsCHHvwThsSrc/79Z5x8i7RQ7D+sA4fMovIIIdsyS5LAGM89iihkZA+wbWGMb4N4LdaJht+I5gRxjsrJ6Z8XEc2iUQst4Shxv4eheYLZ6Lw7309vEu1hNGiCP8NYQx1oT7OQX2MYzZtNxXQgC/KLWeIXyAafCh9sEHd45xYwQZQMttPJ/cz/zcrDKSVJLgym7iP81VAk6YRY33wdhzNiASYPc7zKuybMF1YjydSR2TilmwoxaJk7TD9eon59hqLImPGLlritE2gxhDHR63TzuNczIL0xq4+BOjl+5lRE8+vedNnJyc+mbIkOGL9OnT/5w0adItmBeExyElS5bcXa9evUNvvfXWhREjRtybMmVKBD1Va9euVYkATNTYs2ePand15MgR48SJE8aZM2eMixcvqhgzghJj+wiDjO8jPMWmOCTKODf23GXXhtu3b6v4wsuXLytgI5weO3bMOHjwoPJQ7tq1S9WN27hxo0pqYALKJ5988rB///43PD09T1oslr05c+YMxflhqMjOlClTskjw7DRp0tAbxxtOflfmhun4OC0tLZtiBezoCeOdOb13BC/CFYcx+YPK5AmWcyDk2cCOX1A7YKdgR6x2HMa4NsKWDewIZfwSo3hHyiSNN9Uzc/g1Kti5wAhu9ALa4uIIazaw43p5l3sRdtRq3O4+GMGOtdYYU0fAJPRpPSUv/JgAVjrC9gPmlFcKJ/8RgG4OPlx+Pk/JcGDSRCUJ6uQiQdvdJMTatYKxd0ERALy/LeL/dWUJcq8ogbHlbYhxsGNduiJuUsepBa5hczjWSN5aDJeyYryVWpU0CcU56kXP5kidfPMsEXTp0U8LY9gFb8R4E0ZoaZUsWbIemTNn/rhQoULzihYt+meRIkV24fEpAM/1XLly3SpRosQVNze3iw0aNLjo5+d3qUePHteGDRt2Z8KECeFff/11JL1dy5YtM3777Tfl/QsICFAwSK8YQYvARfBiFi9BkDD2POPrN2/eVJ5DtltjdwZmABMsCZnbtm1TZURWrlxpLFy40Jg1a1bk5MmTIz766KP7hLVOnTpdad68+SUPD4+LZcuWvZQ/f/4bOXLkuJ03b94LOK6DOD5mGa/A86mpUqXiCARHNzikzRtaJjkwNIUjFEzkYgKLvp60tLSeVqyAHWGIX0j84SRY8UeUgMf4tmowDpXi918NxzLomuDHIVLG2dHLx/fwy4xeN37J07gO8MPjOBEOmzLrle+lCHb4/fyHx46AaQsS5pcjS7AQADnMygQOxtTRe8ft0jtIbyIBkD8yjA/idjmEq/WUcLJbAuC2EuqsnjrGjy2D/SsIl5S9aSrLTnc3Cf4EMHecQ7KVlfduD2zXTczb5CIB75SWzfTCxrRiFOwWAW5x7HV6O8g8jyJyJWMTaxIFLE0zMdxKyUpsqCnOU2yV9UnsYkwrzx3/7vl3zRAL3rTxGmOiBr3pfjB+dwxKnTr1h1myZPkcwDSrdOnSy1xcXP6sUqVKQLVq1fbXqFHjRK1atc7Xrl37GqZ3MH0Ii4AZderUeWx8zsSDmjVrPjY+5/yoy0Z5Hg67h2VuwS5h+b8BboexzVCLxbKlfPnyawBs8wBwU9OnT/+Jk5MTrz1+B/GmlMll/K7j9yKvTYae8KYoH4zfe4xX1N44LS2t6ChWwI4JDgQ7/jDzC4vJByx+yaFU/pjybpwARrCjN45xc/SScVmbCGH0qhGyGO/G4V2+x/Zj/F9gx/1g8gR/xLkOiutnnB5hj15D3hHTu2gTv0CZNUu44/rawQip9BxoWUWvE36VagJW1gPmHjGGDNNInPyNsLr05FkX/Ve5SUguiwR1cpPANZiGVZFDKrGC2bMuEniYmbOAvLoN5DA9EzGlGAM7DjXjeHtg+hcuuoe9UojhWlYMJx8r3LUVI4mnLHNsrSv3x4Ho8ePfLD36/Pvn9wdHCWrAGGrBGzdvGP+mGfrBWF967vkdxO8N3mjyxpHfH/TqM4SEowQ243POp3EZLstRh14wjjwQLPldxJtBgiZHJvi9xu8TQiiBrTiM3330vPHGUQ/Ja2lpxYZiHOzoKSOkdYVxWIWZsL/AbsC6wfhlxlR7/rDyC5PQxh9YfrkSxPjFyS/MRTDGu/EOnV+E9K7xPbbOBSwEy+QKfqlSHKIgqHEZxt8xYWI2jDF0tkSNL2GfwvilT1jgF68tE5evExQZ68cvZu4XfwDGwKrDtEyxHZYFH9YK/BI+JNThVy4S8/wBe81h0YYwAF4VE+KC91okMLKyHFAePDyHhW7EvB6VJSCm2pC9MtjhIk5lPQfjMT1JbyUuZAN3CEarLHI1XSM5pwoWA+wAeOfEFzcHXsrzoqWlpaWlFduKcbDjXSlLjnA4lUMovJPm81kw/qhSvGvlMAS9erZK54Q9ZqgesJpteQbS8+6Wd9d8DyGP4g89s295Z0xxW1wfl+HwLj16vMsmnPGHfD+MJVQ4jGMTIYRxdKEwbpNeRQIp47vodeIxcLu829aCeomUBdDNhql2WKBw1mTbDcDp/DJQZ1Mx2eLsIjvbWCRgrZsE3+DwLHvP0gB9l9wkaCqHbytK4Ku2OXolsMNx58CxdsAxb4CFA2rVOeD5wON9nVPKxKx18QflI1cV2DHmzlsCxFMN82tpaWlpacW2Yhzs2K2BP770UNgCe5m8wHgRW19YghNhjWYbtuOy9JIRDBljwiFa21AFX+M6oy7PdRAKbZ4QLmNbJ9/HbRH2uG2ui+sk8D09/MEgZEIlX6d3MWoBYq6b243JocAEKwBNfsDM5P4idwkzhBp6rDCvP71Y1sVeWh6yIYWrBJcF3I2HnQLgKbBzA+QB7O66in+QqwQOqiT+r9Jv9mXBzgHHXRjH+hmO+TQeR/AcEG4BdQ8wbxWmTXGnkSFNC1xLPjIHdleBnY+EA+x+xC1EbMQMamlpaWlpRVWMg51WIhRAJmNvkdGYXuawI6EOIHMF80bACO0xJsbeuUlgS4sELYTdNYsas3MFAS/4bxcJ/MFVAuqJjHyZjMBog90QwD2OsT3gbTnsqm3o1Qp1pzHvU0wr/V+x4TZSU7xlnwI702t3CoDXRTrrziVaWlpaWrEqDXZa/y4ASwqATc8+gBjG1NFTBZi5h+dfwegFjRVZZEdFiwSMdZPQXSyLYsbeHTJcJZBtyf4C3L1bRUKim5gQLbDDcZYDtH0MkN0NqFVAR8P8uzj2NbAuODe2EjxP1ERSAeY+EV+5qsDOTx4B7PwxT5fO0dLS0tKKTWmw03q+mOEKsPEEyOyhl45Qg+eP8HwRprGe7VlWNqR3kcC2FglcDKA7z5IoJuDtB+AF3cL8Hyzi39BNttliNf9LLwR2ONbMALYGALefcKyqTRqP3RpPd4JQ28Nc1/PkAKgrA5hbJm0AdYy3Y7ast3yG+bY4US0tLS0trZiWBjutZ4tQ10ukGkBmM+AmgkOPMELdZoBNVSwSmx0iosqhigTmdRX/ka4ScMBNdj20JVcA7Ni5IsRNgvozc7ak7LXFcT5P/wp2HE7tKVIUYPcujnE3TB03oba/yF2cixDM6wXAYzzof8tL2gHmDiqwY6asrxzBc1/x+Eesp5aWlpaWVkxIg53Ws9VbxA0QswwgF05PldVbtxPzWs6Ihz6UJWVtRosENXOT4CWAvNtuEmqFu2ADjy+7SuAvfL2BrPm3ZJd/Azs22qzLYwbIXeHQK4+bUIdzcBE2A8dfDefhxePkGkgWwN0UBXWsbecrEeIjizBlWSAtLS0tLa2YlgY7rX8KEFMOYPc9QOa+DeoAOrsAPZ0wZQmbeJGXGEkriX8pC/jSIgEBTKioopIrDgLwQiIAdoGAvhGusoPlbp6lqGBn62LCIop5Yf1x3FtxzOGMJaTRW4d5AXitRw+z8G305YM/Mh/ZApiLtHruruPxJ+IZf+dRS0tLSyvRSoOd1v8LIJMfNhUAdy1KXNlxgF7vd8xuIvEudqOwiH8rVwmc7yah5+i5I9y5yz4mV1xyk5AFbhLQpqIEsnB1VNnAbgjM2RBJxlg6HO+3sNM8VluCCI75POYt6iXSqqPZ2url1FbSird0AtydU1679jAf2QVjKyktLS0tLa2YlAY7rScCzLAA71hA3YUoGbDnAT/v9xDJbl3MbuQioUVdxX+YqwTssEjwPSZVEO6YYIHnRwB571kkqAQAzzZ0zGLT7DQyxB1v/0DEF8e8lcdJ75x1uDkcxxzIY8Zz9jV+dbWVHIC7HwFz4SpL1lfu4vFcgB57gmppaWlpacWUNNhpmWImKKBmEEGOkGOFusuwiQC9F6r5Fh8itAHgqtF7Z5HAG2bs3R5lgLobsGVuEtKyslx2TgaYSykyvpDI9DdF5uIYjzCGjseKY6Td7iOyCtaoW0zGEXpJUvGT+spT19Y6JEsPnq/0kQaqqLaWlpaWllZMSIOdllmrDjDTBXaGkEPDY9aqmwXweZVOD3EkI4mL7CwKuOsHuPO3SEAEh2eZPQuoe+gqwSdc5fCYktK0V3WRlR1FTuHY7hDqCLEAWkLsYUw/xPwyMQp1NrE4sS/+0HwBdAQ7XwV3O6S1TqTQ0tLS0ooxabDTUnF1LWDBNk8dQQeAs6w/S8klIJWVkPSAuhqAuy9hlyrLYRV7ZxY23nPRTebvbSHNL/eWdCqWbqh5rGwJtri3SHM8Zvu52JOPFBJv+VnF2hHuvCVMPGWcNE8I8KylpaWllQCkwe51FwCuKqBmvW1IkgbQ2YRpLesiCU4W2Z6/kuzpV1GOr6kkBy65yD7DAsCrKqFGHVlitJJ+RicpGzZAHPwBeKMBtOWsb419+Uh72HEFdmZtu2OAuy4yUte209LS0tJ6ZWmwe53FYrwAuwUAOVWrjobnB/uJeI8UeZlerHajkrLIqakM71VfPjvmIb8A7HYZrqpjxQH2nDXqyvQHLeV/7Z0FmBT148a/wBFH3QFHSncpSBwHSJeEIA2CoIA0EoKkgEoIiKCiAjYqpSACSouIdHcKIpLSXcf833dux//JD5W42J19P8/zPrM7OzszO7t3+9lvdvysvun5mOcpMUNdkxEyNxxydzVSyd1c0zAG5VIIIYRbkdj5Ky8bkxEC9z6k7hyrYBncPtLFmA6ITzfox/knhKSW7W7izOpkgm40M/WsyuYrCN0GW/BKmG24vf52CbPmt+Jm68hiZu/jOc3efxvYOGppYEpC7H6029lFdKQ4C7l7VTNSCCGEeEgkdv4IxCcjMhQid5KldGxvhttHkf7t73W6LC+luzE58ToGIOvZy5Wvr6tJYrU2j9+qYfpdLGEWX46QO455Z0ve6VCz/pcSZm3bUmbXvc8q8TA8aRJC6l6A0F2whz+JkLv1kLsapm3Mz+ohhBDCNUjs/A2ITprOxvR60ZgjjtT1gOBh3ehOkWZj8DU4ty1k9SlWLUPojvK1cVw6lkTi/uHeeH0VTPEBWUyXuQXN1wdKmE1WabMf2eMZGmXd7lCz4U12vihnlkZ/yVkDkw0yN800NZdsuXvGXMX92bidzbOFEEIIcb9I7PwJiE4yyE8HiM4up/oVty9AhsZ3MCafZzOfA+efq6sx7ZBf2AmEssrgtd3GY6u7GdP9rYger3mQISGm/qeFzbyZpcyubSXMBntAYw5sDKm7HmY2Lyhu1nRgBwx759EFq13rm/KmkVljt7Wj3DUyF5COppZJ7NlKCCGEuB8kdv7CIGMSQHKaQ3Y2OFOFQYSuY92XSFHPZj4FRRWvoTxkbjyWJyKPS4fXyYn7Z+F2Tbx2pwQuFBmB9E5tGhV6whxsGmrWLwwzG89FjHvHqck4a8W6P5Exxc2mwqFmdXS2N4xjGpv+yClb7BqbcIjdCqQs3jCf7rwihBAiVpDY+QMUmy7GVIXArYH4hFN+cPsmpGc+5KekL/aAhbilxLm3w+vYBEm96gzXgnXhyDas74PXlz2S1BFnrtg+SNqGxkoAcSsUZta9HWrW/hlmNt/moMaeqtnLbHsXajZ0xjYZses43EGU08gURGaaZ8xtu+SO0441MmOxjN4SQyGEEG5EYucPQHRKIAshQ+EsrWOJFsRnNVJlujHxPJv5DHw9ENV3sTxAoeNrYnD/NvINXleNTsak8mweGUfs+iF/DUYcarZkLG42PlPCbJgVatZ55pzdDrnbZEH2fi9h1n9ezGws59k8auF0Yw1Nc9PEbLPHtaPcNTJHIHbPebYQQggh7hWJnduB6ORBJiG3nHZ1EJ9dSHN2OPBs5hPg3NPhvNtDUBfg9Vzka6HQ4T47gGzBY29AWv9tiq7IYnfH/LdWnKJmZWioWTukhNm4qyTkLmLWir0QvA3XIXeLS5q1nUqZtWynF7XUNWkgc6/apXX/P7bdLNx+1LOFEEIIcS9I7NwMJCc9BOhNCI89L6pnWJNjuP/SIOM7DfRZVdzFmMdx7kPxmg7xdTildLh/FvkWaYbHgz1P+Sf+RewiCDMrU0LuWoWadfMgeCdYLRsheNs5Dt5xCN5Hxc2GJ0uZX6J2aJQmENKG5pe/xrZrYv5ERmJdkGcLIYQQ4r+Q2LkViFByCFwf5K9OBVieh/yMeMmHxqpra0wIXksd5Du8lit8HWxLB5FjW7o/sO4d3M/v2fy/+E+xcyhhVuULNetfh8jtCDNbbjidK8LMJra/W1/crGvPtndFzfqoGXeutklmGpk2prH5wxa7iF6yu3C/jjpSCCGEuEckdm4EEpQQwtMZ2U0JogxBgm4g7yFRX5UYPcTBueZDhuN1/AqRu8HXwuD+VWQpHnsO6+9n4v57FjsCaQsqbtbXDTUbvg+NGArFI3cbLUjfCWQqJK9GUTM7ako/Od1YI/MxZC5ibLuIjhTTsMzk2UIIIYT4NyR2bmOQMYkgPE0hPpud6tfuxlzD/amszvRs5tVYkDoIGwcbnoFzt2fHoJx6qpKPYP3ITsYUwfoknqfcK/cldiS/2W73nIXE9YXcbaHc/f+4d5uusfQuzKzvh9tR04s1Ymy7raYFLkNER4rjpqHphNspPFsIIYQQ/4TEzk1A6jhWXS1kFTsUeKSOJXXfIyUpTJ5NvRace0HkZZzvKsid/RoodVgXjteyDHLaBcno2fx+uW+xc2DpHcSuAQRvCiTuNOUuou2dPbDxUWRSMbO23qNm68MJGKcba2xeh8gd97S1Y8ndVtPUVPNsIYQQQvwTEju3wA4GnY2pCCFaQCHy9BYNhwQtRZ70bOa14Hw52HB1nPvnWJ5jKR1fA0sdcf83iN3HWFZrax5qLtUHFjuHkmZtQUjcq8gGSN61iKFRdiBbrVCzcUsJs75PcbOmAE77wSWaY9s1NF9C6sL/6iXbxLxvWpp0ni3E3+FYhawOp1Sz/SjFPwfCtpeFkeJISaQMUh7hP74qCP8uqiM1kVqe1EHqIvUihfe5vjbCbbh9DYTPr4pURioiHBKnNMLPWRGkIJIbyYKwyUAIwk43CREhhIgOJHZuAeJTFOIznSV1lCIucX891jfxbOKVeOZ4TY1zfQHnusE5fwodwirkTXisG27zS/FheWixI5xLFvJWrbhZ+3Wo2XA6zGyB2LH3LMe+W3+ebe/w+JNPmOUPXnrXGELRyOy0xY5pYvZjXWt7KjL/gcPxUIKSIikRShvnM2abw+wIh4OhrFG2mgUEBHRInDhx7xQpUgzLmDHjBzlz5pyaN2/eH/Lnz7+sQIEC6woWLLgd2Y/7v+P+MSxP4fFzuXPnvpQrV64ryNUcOXJcz549+41s2bLddML7XI9cw7ZXkMvIBTz3DPZxEvs6ghxEdmP/m7BcifWLsM3MrFmzfpo2bdrRSZMmHZggQQL8bjHPI/URyiCH5mGbV4ofZZTizs85e0IHIlHTMUcI4U9I7NwAxCgHvjE+gRBdcaQO9/dDip7HbX5BeCWsOsb5lcN5foz8wfNmtSuXkLnLyDS8tqoszfM85WGJErEjlLsSZmOuULPu5RJmw1YInS13EbNWbLiG+3vw2HD2rvU85f5oYFJD5IYh4XaJ3TP2dGNzTVN7WjS3wlJOhm0ncyGUtgaBgYFdU6dO/SYE6auQkJD5QUFBqyFxO5F9KVOm3AXx2lm0aNE9lStX3t+oUaNDbdu2PdGnT58LQ4cOvTpmzJgbEydODJ80aZL19ddfW3PnzrUWL15sLV++3FqzZo21ceNGa9u2bdbOnTutPXv2WHv37v3H8PHdu3dbO3bssDZv3mytW7fOWrlypbV06VJr/vz51rfffmtNnjzZ+vjjj2+PGzfu1ogRI64PHDjw8osvvnj62Wef/aNWrVoHSpcuvTdfvny7MmTIsBMSuidu3Lh7kyRJsgmvYyle40y8xvHBwcGv4HVzgGpWv7NdLIWWPaO9vimFECLWkdj5OhwOBFLEgXnPRqq6/BP32U7tv8Z1izU8pXQv4jxXIpcppJ42gU5J48sIq7KicqiPKBM7h6JmfUhxs6ESRG48ciqi3V1E9WwJs+lPyN2MEmZt4ypm8/129GCVbBjyk2libnp6yZ5H3jQtTSLPFr4MJYXvQRjSCJIGpzejkUnIN8ic9OnTLypWrNiqunXr7u3YsePp/v37Xxs5cqQFUbMFasaMGdbs2bOtBQsW2HK1atUqa9OmTdauXbusgwcPWkePHrX+/PNP69y5c9bly5et69evW+Hh4VZ0cePGDevKlSvWhQsXrNOnT1vHjx+3Dh8+bO3bt8/aunWrtXbtWlsoFy1aZH3//fe2CE6fPt367LPPrLffftt69dVXw3v06HGhZcuWf1SsWHFTrly5foLUzsO1mIVMQcbHixfvVSzbIKxKzotE7XiKQghfR2Lny0DqEkOCurG0i2JEscP9y5CmsZCl+xkGJMZg1SvOrTTOcwRygDLH9Eaw/gLWTe9sTL2OEdVvUU2Ui51DmNmes4RZ0yfMbFwJwQuP6FyxB3K3kdlQ3KwbWsKs4/HvnVomsWlgnoHMHbLFLkLudkD2qvlYlSzlg+3dKCMtELzNhoLybsaMGaeVKVNmVaNGjY60bt36Zvfu3a1+/fpZQ4YMscaNG2dNmTLFWrJkibVlyxbr0KFD1vnz5z0a5S6uXbtmiyBLBSmo3333nfXRRx9ZFNmBAwdavXr1sjp06GC1aNHiXI0aNXYUKFDge0jfR7iGIxD8+Zh2CNsCskSX1dVCCP9EYuereKSuMaRuD0u5KHWsioXUTcF6rxyrDueWEfLWEpmH877OalcG53sLr2EXlm9hGZ3TaEWb2JEnzQ8JS5l1NULNuk+Q30p6hkZhCR7u34b0fYdlgyJm3b1Ld02TAjL3iWlirppn7bZ2VyB2M7Duwap4o58ECMWC72NZhJ0Puj3yyCMfhIaGLq9YseKJKlWqWLVq1bJatmx5e/Dgwdc/++yz2yzJYinbzZs3Paoj7uTUqVO24M6aNct66623bnbp0uVm/fr1rWrVqlmVK1e+XLZs2R358uX7OmHChINxzVsi7NjBjiPsSKIZTITwDyR2vsggYwIgQbURe0gQltYhN3F7DtbdX6lQDNAQX/aQuvydjRmF87NnwvCcM4cxuYDMw/qGkNXo/vKJVrGLwIoTZuanLGHWd4TEbQgzW68idts7iN3tULN2XwmzYWio2VionFl6L1Wqcc0zpjJkbqVpZm7b7e0am3O4/xIurDd8WbODA0vkUiM5kdqpUqV6LVeuXPOyZs16KFOmTJdLly59ul27dmfeeeedGz/++KP122+/WZcuXbKuXr1qV1/eunXLun37tkdfxH/B6mQKMEv5WPVL4WMV9OTJk2/379//Yp06df7E9b+YMWPGs7lz516XJUuWD+PHj48/L7uzBjtosFOPG6rzhRD/i8TOF4HAVYYMze9uzC3KEUUJt5dAnp70ton9mxuThNKG852LnHWEzlNtfBLnPKKTMY+2jJkvmhgQuwhKmV3JSph15UuYzeNDzfrjnIosYr7ZTciWM5C+5ZyT9kmzN7nnKf9MF5MQEtfbNPFMN9YUaWTWYcnhNWIT9uCsBJEbnDRp0h8CAgI2Qea21a9f/7chQ4ZcYUcFdkxgx4M//vjDbuumErnog+0IT5w4YR04cMDu4LFixQprwoQJtzt27HgyNDR0V+LEibdC8Fbg/ZqI2yzRY8m+P/WyFsIfkNj5GpC6YhCkryFzVyN1llgPQWoUQ3J0z+C8CuNcR+Ict2B5O1LV6w2I6Hysa4tk9mweE8SY2DmUMKtyhZl1LSF5izgVWWmzF4K32y7Bg9ztCjMbRhU3azjG2r/zjMkOmZtqt7Pj8CeNzQ3cfxvLqJnx4t7hUCMcQodtu6alSZPmR4jcoUGDBlmffPKJ3ZmBvU0pciL2YZtESh47bEydOtUaO3as1b59+4sQvXV4/+YgH8aNGxd/kvY4f6xGF0L4NhI7XwKClBf/gT+DFF1gZwNPVeZu5HmI3X+X/MQQPBecJ6uKp0BEL/NcnRkksO4AMhbblIuFmTBiXOwcSpo1lSByH5Y0W/f9/7RkOy0I36USZuscyF37x80Kjmf2zzSCUHE8O2dsu6bmN9zvYhpGeykt5ZsD8uKjZ8YVL158VePGjW9269bNevPNN21pYHWg8H5Y5c0euhz+hZ1U2rRpY1WvXv0QBH063lt+ETRHOLiyBlEWwjeR2PkKEKTsyNvIRU9HCVuSIEjdBnmJ1LHtXztjcuGceuDc7MGGnXPF7UsQ0HVIV9zmYLOxQayJHWGniRJmbcdQs35RCbPhXMSMFdsheew9u+HPULP2TSyLljNL794juInJYBqbgchFW+w4n2wjsxThF3FUw3NgB40nkyRJMqxIkSKbS5QoYTVo0MB67733rnNIEeH7cGiW2bNnh0PSr5cvX94qVqzY6ezZs0/F+86BlIsi6mErhG8hsfMF2huTBrI0ELJ0maVerH6FIJ1AXm/lJeNYNTAmENJZGec4Ded1gVJHocM651w/xWPlIX+c+im2iFWxI/nN9gRhZsujoWbde8hJ3A6PGNiYs1asuwzpW1rSbGhVyvyCL9S7TEvWwDwKsVuI3LarZRuZs8go0yzK5J4DWqeNHz/+s+nTp/8+W7Zsv1epUuX0u+++e5NDcVAE2GhfuAd2XmH7PJa6zps3z2rbtu2lRx999FiWLFk2BwcH8wuC07Lx8+VV7XeFEHdFYuftQOgSQo46QYz+oNR5ql+vIuN6ecmvaYhmCM6xK8RtLW5f5TlGEtANWN+uozFZIHVROdjwgxDrYudQ2qzPXMysfb6E2bAg1Ky9TrGLkLsN4ZC9QyXM+s9Kmo2lPJv/P21NfEjdc8jRv9rbNbLHtnv6YQcuhshlTpo0aZ8ECRLMy5Ur19auXbte4kC6nJXhzJkzHg0Qboa9lNlrme0k33nnHatq1aq/4TOxKlGiRB+lTp2aM2EIIbwbiZ23AylqCLnb5ogSS8IgSywV46wMsUpbY+Lj3KriHD+A2B2k0Dlt6XD/LNZ/heVTWH//sy5ED14jdiSn+SEhO06EmvWvlzAb97FKlh0r2MEC96+FmnWL8HiHx8zqbJ6nRBBRJcux7c7bcseZKTjd2LP2hPMPAjtEtI8XL96XYWFhe/v27WtPv8USOuG/nD171vrpp5+sd99912rYsOGltGnTLsbnZChSnh8aIYRXIrHzZiBNnEf1J8pcpBIw3o/tYS5YSpcJ59Ieyx8hcHZbOga3w5G1SH9vkM878Cqxc4C8pSphNrQtYdYvhtCdZtUsBY/j3+H+oeJm/QRs82SY+f3/5/1takpC5pbaw58wjcwlrOt6P1WyqVKlYjX+k8iowoULc45VNqoP5zRcQkTml19+uc0ZMGrUqHEzefLk7E37QrJkybxyIHQh/ByJnTfC3qIQIw4V8h2W1z0dEG7j9jbIXh2WlHk2jXE44wXOIT/O7Q3kqNM5gulmzBmc42ykthdUu94NrxQ7hxJmddESZt1IZBeELtyZc5aCF2rWr4H8PV/MrM00yFgR1/YZ86JpaM7YYtfYzmqkuhl0T9c+Q8KECTvkyZNnLWct+OCDD9SzVfwr7FHLsfFeeOGFW4UKFTqaPn368fgccQqz///BIYSIbSR23ghLupBJEKRLFCbKE6RpJ9a1jM1qTchaCM6pBc5jCZYXHaHDbZbSHUKG4zwLsHes5ynehleLHSlnticNNesaQO5+DDNbrpU0WyB3nLViEztXHGXbu1JmW4W2xopvOpjsELnPTFMT7hn+5JZpZCaaBubvVbd/h9LH6b7eh9Qd79ev3yUOIMxZIIT4LzjrBQeanjZt2g38ILgQFBS0Ep8ljmvoFZ24hBASO68D0pQLgvQWlhciSd3+Lsb0QGJtWJPukAGc09tY/orzu+2cG26zI8cspD7O897nQI0dvF7sCKcaK2bWFi9hNg0uYTbsiJi1gqV3FLwtlyB3G8PMhpfrBFnBprOpCKHbiDhVskdMQxas/i/Tp0+PlyZNmsq4OaN48eLnP/vsM+vw4cOer2wh7p3Lly/b8/u2b9/eSpQo0U58pnqWKVPG2//+hfAHJHbeRE9j0kHeXoM8HWObOsoTZOkYpGlQx4g5HmOcPsakgLw1RKbjXM6zcwSFjkuc50Gc28jOEdUxvoBPiJ3DY2ZFmlCzviHkblqo2XCltNlvj3nHwY2x7ncsxzyaek6DeHWChkHsLv7VS7ah+QGCV8izG5uiRYuy+p5tM2dXrVr1FieS5zyjQjwMHM+wd+/eVvr06Q/is9UzW7Zsafl5E0LEGhI7b6GtMUGQpJcpS5QmSh3un4PovYnb/1a1Fl3E6WRMEQjdaxC6rTgvW+g8snke5/Yz0hn303i29wV8SuwcSpk1hUuYNaPCzJZNEL2bnLEiYtaKTexB+2PuDKMnBNRJtcM0M9dsuWtqTpvG5j1T92/vDeV7duXKlW+wp2NUwyq6/fv3s4rOWrp0qV1ddycHDx60x0n7+eeffXr4FLY1O3LkiDVnzhxr4sSJdq/RyPnqq69s4eH4cNEN5ZwzSWzfvt0eqiQ2YGebAQMGWBkzZtyDzxj+ZanNnRCxiMTOG+hoTFL8N2wFYdrvyBOE6iLuf4xljPc8wzGDIXXVIG4zkHCWHjq9cvHYIax7H8sSsTAl2MPik2JHipr1iSF1T4eZdTNKmPWnSpqt9rh3LMErHvDLuUx5um0KeDr4NOTOGbj4MASvvufpaZIkSfLe448/bi1ZssTzdRy1cNDizz//3MqUKZMFebQb2UeGk/9PmDDB4jk0bNjQ2rhxo+cR3+P69eu21JUuXZolVVbevHn/lqeeespiiWhMiB0n/X/99detkSNHxmo7yZMnT1o9evSwUqRIsTlBggQ18Znzxs5TQvgDErvYppwxAZC6OpCl7RQ6BrdvQpxmQewKYJOYlKc4OH4WHLs3shnHv+FUCUPqwnFem5C2ON/U3DbiKT6Fz4odgdzFDzMbcpYw6wZA7vaFmU23naFRiiRYcjWk+NOX4zaIf9MWu8bmFsTua9POZMVTm5UsWfJPTtLPGQaig0uXLlnTp0+3KlWqZJUpU8YutaLMOfz++++2gBQrVsxq1qyZtWnTJs8jEdLH51+8eNE+v8jPoxwxLI3iY9yOYsVSs8jwOXyc++A2kfdBWKLI0i0+Tgl19ht5PzyGcx48xj/B/VDcWrRoYQ0fPtwe748dUJxwgF9Ovu+cN48dGZ7bna/ROfc75YzPdbZ3tuH587yZAwcOWL169bL69+9vy5Xzenj+3NbZ553XKzrge/r888+Hh4SEzMJnzuf+voRwCRK72Aai9AQkagkkyhEoloothzxV8GwSI7AnK86lFo79Dc7hj8hVr1h3Ausm4JyqIl4xL+0D4tNi51DSbE5T0qyvVdJs+DTUrDtT2uyzh0XJn3ri7aSVCoabZz1t7Rqb03FqxhmVIDjBtHYvtLt1t+rRqIJTjc2dO9fq2LGj9cwzz9hVlMeOHfM8alkLFiywhgwZYj/OBveO2FE82ImD85SWKlWK46TZJXuUGErNjz/+aH366afWqFGj7JK+cuXKWT179rS2bNliP59QYr744gurdu3a9j4ol++//74tOoRytWjRIqt+/fpWxYoV7cnvP/74Y+ubb76xqxEJl5xpgefBkrhBgwZZhw4dsh+7E4rd7Nmzra5du1ozZszwrP1fWDXN84hcSspBfynYHACa502p4744By/PvWXLlvasDw6rVq2yrwdTp04d+9xeeOEFu0SUpXWjR4+2cuXKZeeNN96wXzOPQYnmtk888YTVvXt3u6o2uuFr4fXAuexLlCjRM/io+vL/CiF8FYldbAJJyo9MgTiFU+jYtg63d0CqmsTkOHDtjMmK476IrOB59PbEI5kr+BhuP+isBt6EK8TOobRZXqCEWde7hNm4xp5vNu52K3O+rlb8eqkixK6JseLUiHO8eN3ix7+e+vXfi7CiGIodpx9jdRxLkN566y1r2bJl9mMsbXrvvffs6kIuO3fubFfFslSLJXtNmzZlSY/VpUsXW15atWrFAXFtuaP0Pf3003bpWJ8+fawmTZpYoaGhtsSwdI1t9aZOnWp16tTJat26tb0PShIl8IcffrClbvPmzfb6evXq2ZJDsaxZs6ZdysW2cjwPlja2adPG3gfFiY9TRI8ePWq/hsg4YtetWzfr22+/9az9X1iSR5F9++237ddCdu/ebR+fbfF43JUrV1ovvfSS9dxzz9nnyGrcDh062OfMUjbuv1GjRvY14fN4fiwR5bG3bdtmffnll1bZsmVt4eW1ZMko2znyNXA/7dq1s59Dmfzjjz/sc4hOWILYtm3b89myZZuMj2j+iE+qECIGkdjFFi8akxnC9A5ymaVirPKE0B2C6HXhIMCezaKVXsYkw/HK4RzeRY7wHFhKR6HDOR3tFtHGrhY29cVq17vhKrGLwAoobA5WL2IOfFTc/LGlYLIfL6Uu3tSK0ziuLXamobFCu5a0Zi2Z4/nqjR4odpQdih2lZdiwYRYHPWapFEuRKHXjx4+3pePFF1+0NmzYYJ0+fdoWk0mTJnn2Ylk7duywG+J/9NFH9uMULoodS6YIRY6ywn1QYlhqxbZ9lDgHlhRyFg0ej2LG/VN01q9fbz/OUsBnn332L3FbvXq1LaOUHweWtHEbdjShHEaGVZtsY0fhogyy9C9yWDrI60Fx4+sePHiwLXR8Hs+TQknp/fXXX+3rxNI1vlbCkjiKLl8TxXX+/Pl21fVrr71ml8QRPoelj3w9LGkcMWKENWbMGFsE+XoodCx9dGD1MEtMebzohtLL0sjcuXMfxoezSsRnVAgRg/iM2CVEUiH8Ms6CZEdyesIeo5kRDgcShHh9o91OeC0QKg7me9zpmID7ZyFR/ZAYGS4Ax06PY7aB0K3B7dsemWMJ3XWcw1YsB+I83VBKFxkXip09xmBgHTPg0YpmylsVzPJjBdK+YyWqkdsjdgFWwc6h1sfzvvR89UYPFJnvvvvOriZllSzFgsLCUiKKE8WMj7NtGkum1q5daz+PIkBBYy9ShiL38ssv2yV1TmkcS6f4XEJRpCwNHTrUrup01rFd286dO+19UJ5YSkWho0Cy9JBVuU7VMHvn8vzefPNNu4SJVbIsMaSQsocp90MppRxOmTLFri6ODI/H18iqznTp0tnVoBCZv8LncXxAbjd58mT7/NkbmKWDPCaPzcd5DShhr7zyii16PHcKI0v5eM7cns9jCSdlyWl/x9fFa8jqbF5fCirljo9Tonlt2PaP+6dQUvbulNPoZNu2bbdxbY4lTpyY09UJIWIWrxc7SlrmwMDA+qlTp34TmZs0adJ18ePH3xk3bty9yJ6ECRNuDw4O/iVNmjRT8VgfbP8EQsHzSvAlnBJC1RPy9BtFiiVkuM0J89/sHEPDmuAcHsXxWFr4uyN0lEvcv4bMxLpKWAZ7NncTrhK7QcYkxntXEGmC92xkF5NsbStT/mq1BL2sTI82t+LUTmYFlUt//c0J46+fuhC9w4tQ7FhtyJIvljrNnDnTlhOWKrF9GEuU2F6MYkdRcUrPWOVIkcmfP7+VJ08eK1u2bFbJkiXtkjy2CaRYvfrqq3/1sqUIUo5YFUtBI6zyZOkae6RyHzly5LCKFi1qV02yxI0lZBRLlu4Rtp1jaR7XUexY0siqzMyZM9vPd86DHT243Z1iR4Hic1h9SqlitTIlywlLxih1LEHjYzw+S/IoWqwKpryyepqPsXSOx6Ic8rhc5syZ0x4bjsJLsaMsU/wcOeO1oSzyWNyGpXmUOZ4n27lReHnNHnvsMTvcV0yU1jngfbsOeV3QsGHDop6PqhAi5vBasYuTKlWq8vHixeOX8Bz8Cl6NX9TH+E/0ww8/tKtz+MXBhrr85z1u3Di2v7lRu3btvUFBQcvwnGlJkiR5CdLHEj2vAV/EybsZ0wYit49C5Rnk9zxE7yPcj/bSMRwnNUvpcPz5OI+zkateIXJ78djruP24Z3M34utiFwfvXUG8VxwweiDew8n4/HA8wd24fQq3b3YzcawOJqtVN1k567Esla1SwY9Yc996J9rH3YgsduvWrbOlhdWpFBqWLrEDBEup+HfL+xQ7ShUljdWkLMXi9hQSlnixVIoldhQ7/t07HQpYPckSO4odpYYldezowH1QHnk8ll6xmpT/GyiTLL3iY47Y8XmUTUfsKFossaMc8f8Lz4MlhYsXL7b3T1mKTOTOE3w9/warWHl8Vsey1LFv375/SSrbEfK1Urx4PjwuO4GwNJBV0hTIyLLsiB2vDY99p9jxPXDYt2+fvR2rlHl8tm2M3OEkOoFw33r66af3QpQrej63QoiYw/vELnXq1Bwx/6UUKVIsqFev3kVWU/AfHqtznB5sd8Jfx/z1vnDhQmvs2LH2P70KFSqwjcdnyDP4BczhOWIVSFNCfBk3xpfvJqekDrev4Ut5GtYX9mwWbXQyphiONRLH3E2R4/EZHPs8MhPn16x1DFUDxyI+JXYtjUmE9yYP3puqeO84zMxw3J+OrEfOUMz7IE5nF972DG59tatJvq2uqbK4rElxYHT3zuGnPe2zoos7xY5/qxQwNvRnhwhKEofpYLUn28dR7NhxgH+rlDoH/g2zBI+C44gdq3QpaOROseOx2AaP/yMcWP3KkjBKGkvnuORxKDuEJWfsbMG2aqzKZJs4ChfP0YHVoGyXxudEHpqE3GvnCUIpZAkbz7Fx48Z/nTehmA0cOPBvbftYysdetBRjHoclnCyx4/RddxM7iidlmKWjPBarYlkV7RyD8JpSftm2MLrhtWK7QPwYP4uPMMezE0LELF4ldnEDAwPD0qZN++Fjjz12jv948c/s7wNA3SPsgcYvhrp161rZs2ffGRQU1AuJjdkbbBoaE68z/slBqpbyy5hi182YW/hy/h7ronVYEwhBWhzjSSy/xvGu84uf54B1lLoDyFjc/tv0Uy7Gq8UOn4skkO5MeE8K8z2DyHXB+zYRWYFc4PvGOFLukTi+j5fx+O9YbsZyHvIORK9FR2PKpg9MOPKp2rUPL4SkRCdOz1L+3VLYKBkUp6RJk9rDn7C6lLAUjR0OWAJHaaKUsLSMnQUoBBQd9l5lKbzTMYJVmRQbwupGih5LwCg1rHZk9aZTykfRYokdftjZssPz4kwX7FVKeaMosfSOksX9sN0d4/TWpSCyPRvPkefFKlAKaWRYksaSOgorj8saBL52JyxxY9s2R8QoaRxmBT9W7RJFp60cO0PwfFmCyTaAPC47jrBXL68TH2etBM+Ls3k4++M58rgUWLaf4zVjm0K+TvaU5X3KIPdHqeR1oCA7VdfRCa9lv379rkHs5uMjXSTiky2EiEG8RuziBwcHl8uSJcviatWq/Ylf9eEshXsYOAYW/8kMHTr0auHChY9kyJDhXRwnVkqk8AUdhi/dBfhStifPx21mFWSvOh6Olh6nbXFNcaz8OM5gfNHvwdI+NkvrIJWXsG4l1r2Ac4v10swYxKvEbpAxCXD9k+O9SIvPxmN4P55DxiI/4T06jtzAbVvC+d5R6ngb299ELuDxE3h8C25/inTF7fLtjUmDHxIJOFyOZ2aQsOTJk3/LDgkQg2gbpZbCxfZglCUKB2GJF9uhcUw7p9cnOwdQ1FgtyL9RlnxVqVLF7nTAcehYusZqSVYhstSM4sPhQpx98kcbH6P48XH+n+Bx8X/DblvHcfD4OIWRcsR2etyGksN2dBQsVn2yBIsyxephwjZoHE6F7fTYxo3SRkFjCdSdg/tSsFi6xyFR2D6O20cOhx/ha3CqRk+dOmVLLodqiTxGHaF4clt2xOBz2b6Q50+p43E5hAyvKZ/nlByy1JM1GexswevB68vXz3WUXdZuUKa5P7ZdpPiyQ8idryOq4f55XYoUKXIwbty4+F1hd3gTQsQs3iF2SZIkqZQ5c+aF+BV9jr/MnV+0UQH/qeIXbnhYWNhv6dKleweHSx9x1JgBX7i58OX9Fb6ErztfzPgC3ov1z2A9e/tGCzheTRxnDkTuFGWOYsDguBzGZEwHY4pzKjPP5v6CV4gdpRvvTR6kId6LIcgPuL0L780fWLJq3H6vWCrnyDiDx697tpuK9MNj1XE/Hz5Tj3Cu4X8Y+zAB0r9SpUqXIVo3nVKfqIaSRklhCZIzZhurTVnVSUnh44SiRSFjNSOh/LA9GataKXv8e+X2LK2jkDm3nX1yP6xuZJzXwscoLiwp5D74GJ/DqlynfRzPjR01WAXM0ivKDku+uC3hfil5FCjuhyVuzjneCQWG581tWK3L7SOHEsrX6Byb+2bVNKuF7/a/jdLLalU+l+fI83bg9eI15bV0xIzXhPvnvriO14yvn+0Fec0YDnHC/VHyWFIXXe97ZHD8cPyAuJ0mTZrl+MxxKkRNKyZEzBP7YpcnT55iKVKk+BS/fi+tWLEiWn5S4h/h7fHjx98uWLDgQcjdSzhmBs/hoxV8+aZFRvPLml/QFDvcPo70wJd2Ms9mUQqOlwui0BPHWIWEs7rOEQSsZ5Vee6znNFP+SKyJHd8XiPxTuPa9cHsi3ov5uL0FOUHZZxs5vldOeB/bcBgc/giYjdsjcbsNllWx/aO4fT8lrYXTpk37HUuzKFH+BCWHpYJsc9e8eXM7rOpkhwzKDx8XDw/FkZ1RsmXL9ntgYCB+N5r4ER89IUQME+tilzBOnDjDS5cufRz/fKN1ZHz+yh06dOiVzJkz78Zx60QcPvroY0wqfCG/jHA6LvvLGl/IZ/BFPgLrorxKGOKWpJMxtfHF/zlynCLHY/LYuH8Ix/2C7fxY/ed5ij8SI2LHqlBc/2y45mUhYM/i+r/C9wXv+0rkT74n7OjgdHzgkvKN7TmG4AFkGW5PwnNf5/Nxu+R9itydsEq2Nr5wt7JtltPezR9g+zi23WOVMKsnGVYFO1W74uHhNWav50KFCp3C52w0EsIPnRAiVohVsQsICQkpkzJlyhVs7BsTsP0J29gEBQW9nShRokye84hyWBqHL+N2+IL+laUxLKnDF/0F3P8YX/AcXDlKwX4zY79tsdzAYzEUBRyborAGUsBx8ziIs78TLWLH3qu45unwnufD+1AGyxeQsbjmS5DTznvivC8MxRvbcNzAY3ifdmK7ZQg7SnTFPipC9lJ4dh8llCtXLjh+/PjPJ0yYcAN7nbKRfXS3uRLuh9XIHEy6YMGC7AX7Xp48eR6N+MQJIWKJWBW7lOnSpRvXqFGjk+zxFROwTcr7779/LSwsbHvixImf85xHlDIIwgqRaoYv6A0smeEXOL6obyKTsS5KB+z0DIdREvkAxzzqHI8yibCDxHedjKmCx6KtLZ+PESVix/cY1zcQ1z0YsdvK4VoPw3vM6tXfcPsylnzP7feDQsf3ButuI1fx+DlkN25PwzZ9sKzW0Zgs2DYJS1T/oa3cQ5MqVSpW/7ek3OHv7hbbYEVle1bhP7DdINtPssdtpkyZzuFzNQ4/HArgoWjpDCaEuGdiVeyyBAQEbMA/hvB/aqQcHeCf0a169erdjBMnzlue84gy+IWML+qa+NL+GV/k4SyZ4Zc57s+FXJWLyi9s7C81jtUF+18PybhAcaBA4D6zDekLWShACfE8RUSB2HF2EFzb2nhPX8FyOpabsGT16WkknCLH953vhSN1eJwdH35FZiGsXm2A96wQHs+GZUoOh+PZfUzADjNPJUuWbEGFChVujR8//sqlS5dUdCfuizVr1lx7/vnnb+XKlYvjhb6CRHlNhBDigYg1saNslAsJCdnlzAEZk3Bwz3jx4n2Bc4jKHrKUutL44l4AybrB9m24T6lbgS/yJ9nuyrPdQ4P9cfgUDovxq1O9x7ZauM+SoilI7bZq53I37lvscF0z4z2sgnTGdX0Ly1l4X9dieRT37et+ZyBrfC9+QxZi23ex7Ib3rA5uF+tkTIx03PkPKJIl8TcwJjQ09FcOGMyhSZyeq0L8E+x5y3EAa9WqdSl9+vTz8DlqgXCebiGEdxBrYhcUN27ctmXLlt3NaXViGlYfZM2a9XucRxkkSkrR8EVfFJmBL++bTqcFfKFvwP0GUSV12GcmCAIb43+HfV91SoZwn8fbjuOPwvpon8XCh4ksdv8j9Rz3jdcY17AEUg/XtSck7QNc16UUOb6nkQWOnR74XmPbW3icAwSvwnO+wZLvQzukPO7H6PA690PKlCkfSZAgQbc4ceLMfvLJJy9wBghOXaXqWXEnHOePYwFyMOXMmTNvwcdnbKpUqTRlmBDeR6yJXfrkyZMPevbZZ49s3brV868j5uDo8OXKlVuD86iPPHRVZSdjckO4OITFX1Vw+KLn/J1to6Kaje2uIAmFsc83sDxMwXCOg/tnsP4HHIu9J904cX9UwjaO/MDj8pk00/He4FqG4L3LgTyO69eU15jXk9eZJW+8xk6VKkXa897exOOnEFavbkC+xPV/Gft4Ett4Q4ncfREQEBCWKFGid0NCQtbUrl37KGd72L59+1+DCgv/hEPBsMMZ20D37Nnzat68eXcmSZLku/jx47fCxyZKO/cIIaKMWBO7zKlTpx6NX3+nOJZUTMOR6mvVqrUN5/Es8lDjLeHLPDVlAF/yl/mlT+nClzzHqusNIUvk2eyBwf4TYv+1sL85zjGc4P4RPDaKYkn58zxF/AMw+DC82aPxpgwqZ8wTr+APANdwIK7hLCz3Y3kWuYrbtyPLM4Ud6zjbA6fu+hW352D5Kt6bOljmwv3gtsYkjuG2clEJS62TI6VSpkw5PkuWLAcqV658asyYMTf498k2sM5gu8L9cPgSSj1nvWjTps3ZfPnynUyTJs2ypEmTtsZnhNWu6owlhPcSa2KXKSQkZFTHjh1PcPT2mIbTGlWrVm0TzqM58sBiR5nCl353fLkfoQRQBnD7KtaNRh66Cg77KID9DUG2Qh5uRCqlo2z8CLFo1S4ax2NzE30h4DWM6VjZmKUNjNncMaLXMquvTyA3nRI5p3rbudZ4jG3p5iGsXuWUXyU7G5MXj6XhDBKe3bsJDl79RLJkyV599NFHt1eqVOlGu3btbs6aNesWZz8Q7mbr1q23hw4derNOnTq3SpYseSpz5szT8HlognAYE8q/EMK7iTWxS4tff30bNWr0W2wMFMqqpuLFi/+M8+BAxQ9cygK5aoYv+h0UOgoBq+4gAl9CuPJ7NnkgKAyQh3rY99c4xilKBttycYn7B3GMMThGOQ534nmKuANcp/S4fmWRVnhfhuI9+oIyBxHmeIL29Yw8QHCkTg8sBV2G2x9i2Q95Bu9FaTw/E0Teb6ZICgwM5A8G/n30CgoKmoIfQr9zYnzO2MCSHE6RJdwB/wdzvtoePXpwVo6bBQsWXI73fSSCfzEmFBFC+A6xJnaJ48aN26xQoUJ7fvrpJ8+/l5gDv0gtTrGE8yiC3Pe4SxQviENlfOmvxtKWOnzxs6puSSdjSno2eyBYGoT9dIRgrKUwUkA80sjBhldg+WLfaJi5wteBtHGA4MJINVyn9nhfRmP5A3KQ19Hp6MBQ4rjEthTxY9h2E5bzIcvsKNEd1/hJbKMBnT0EBAQUw98rfleYrxIlSrT0qaee+pWT6HPO1YULF9pzprL6TvgGx44ds+fmnTlzpvXee+9Zbdu2PZc3b162OZ6DjMaP7npYqle9EL5JrIkdCQsKCtrKnlYxyc2bN60OHTpYOP7HSEr7TO6DQfiewxd/OUjBQuSWp8ruFm7/DCmoUu4BO2NAKpLz+ZCMz7GvM5QRTwmd3WYPmQzpq+zS6r/7gu8BrlEwrllGXLOCuC5PY/kq8i3CNnC3eP2ca0gx9lSrWhDA68hZPHc37s/CciBSB8nhw23kYopASF7JkJCQgcmTJ/8+QYIE2wsUKLCXbWUnT55sl/zs27fPFgdV23oHnMOV7eXYCWLnzp3WokWLrDfeeON6zZo1DwYHB+/Ce7gqderUE/B+srpVzTqE8H1iVewewT+WRfjlf/vEiROef0PRD798ateufRPHH4zcd2kdpKEEJGsqpOAmZYHBOo5r1mTCA0pXJ2NSQSw42PAW7O+qIyS4z3HwNvIxJCOFxvMUv4PSRamFpGXA9amCa9ML+QrvxU7kBG5fRGyh88i2XbWKx5gbyG9tcC1rGrP+CWO+rGXME9gmDa5rcsnyfeF0tGAb0mLI81mzZv00V65ce7Jnz36hbNmyZ7t163bhiy++CKdIsCSPvSv5g0pTmEU/7ORCmeN1P3nypF2iOmLEiKsNGjQ4DQm/gPfoZJ48eRZD5DiocBWEAwvzB646RAjhDmJV7JKmSZNmIL4I9s+cOTNG/uNzfK6BAwdezp0798/4pVrbcx73DMQhH0TrQ8jDRUceKBZY17aVMZyu6X6J4yn9YxXgAUoJS5cYrLuOTOlsTHUs/XYYE86ZitfPtnIdkPeQBchmXK8/sLzK94FVq851Y/i+4HEOA7MU24zDde3A61zKmOapjJmQyJgB2HVQxBHEQ8LPfW4EvmyeRnrmyJHjq3Llyu2oXLnyzZo1a1qtW7emXFyfNWuWtWfPHlXbRgP8cbx8+XJr4sSJt1566aWb9erVs6pWrWrhPThetGjRxcmSJRuB94aDCfOf/uMIxVzTfwnhPmJV7AIyZMiQJ3HixLM6depkHT16NFrljqUFq1evtsqUKXMZx+6dNm3aNBGncW+wxAySMBaScIrtszzy8AfSHevuuz1KB2MyQdpexHOXYL/XKCjcr6eEaT3WDUb8brDh9sakwesugWvTFMsBuBYfYbkY15nDkdiDPzudHRjephDjsRN4j1ZjORnL17BsjedWRLJH6vSQDxmO4Km+N96cj0Bh5niBHCMSb4MZinyAH1NzatSosbtVq1bX2Eh/8ODB9kDhrMJdtmyZXYV77tw5z1+ruBss9Txy5Ihd6zB79my7wwPbC/ft29fq2LGj1ahRo+NhYWHLg4KCJuGaj0b6IpwTmwMJs7ezEML9xKrYObQrXLjw4TfffDNa2+Xs2rXLwpcKR03/Cce8r8n4WWVH0eoOeXCkDvdP4ltrEITsvqbTgXRwXLqiWI7EPo5FLm2ChJzCYzMgNQ1xrEDPU1wNpRjXIR+uRzm8/mZ4/cMQtpXbg/t/dXSIHK7H438iO/Hcn5BJeH5ftrXjmH6eXd+Nh54rVjwQWZDKAQEBHeLEiUPh+BKZnTRp0oVFihRZ3aRJk4M9e/a8PGrUKOuLL76wOM0gx5qk8FFiOJYefvhZ58+ft6sZ3crly5ft3sYHDx60tm3bZq1cudJuEzd37lx71ocPPviAQnyzbdu2JytVqrQtU6ZMS3Edf0C+QSbg+vJz3QAphCRGhBD+h1eIHUu7hufLl+/S1KlTrYsXL3r+zUUdv//+u/2rNlGiRL/iWPc120RHY5JCHFgNeMypfoVQXMD9Dyh8ns3uCcgHBzNugufOw/IK98fSJkgce9QeRUZDTvJ6NncdLDnj9eR1wGvOCUGriryM1z0Z2YVwDEC7bRyvi3O9cb14zS/jsZO4vQ9ZiH2MwJKlevkowZwOzHOYf0NiF7vwPWLpKf/+2LObvW0bpUyZckD69Ok/SZs27SLI3tbAwMC96dKl2wvp21u7du2DnTt3/nP48OFXP/zww9uUPk57xvZ7nOaKnQL4982SLFZHnjp1yi754/8RDqzMal/KINuexUQbP863y5I1titk0w/K2oULF6wzZ87Ybd7YseSPP/6wDh06ZM+7ypJKyivbwrH0cuzYsTf79Olzvnnz5n+wmUrOnDn3BAUF7cM12ZUiRYpVuE4zcJ3exP12uH6VkZxIEoTXVVWrQgivEDuTIEGC/PglP6FAgQKXP/nkE/uXeVTBf/6s+sGXxx4cqhNyX22rIBMNIBU7KRoeyQjH/a8hFvc1Vh2eUxDP5cT9R7DPm87+sP4K7nMKK05n5cphTChdbXHd8RrL4rqxk8hHeK1r8LoP4zbbwl2nzFHkHNnFYww7j/DxZcg72LYV1hXDPjJi+5QPMI6fxM67oIjwPWQbUn72MyHZkIIIG/Y/ix9jPSF5Y/PkyTPjscceW4nsLViw4J+5cuW6njt37pvFihW7VLly5XP16tU716ZNm/Ms+Rs6dOiNcePGWZMmTbKH9FiwYIH1888/W+vXr7enSuP/hMOHD9uidfbsWbumwOngQTH7pzgdEyhslDX2NqWoUS7ZdnDTpk32MCJLliyxB0HncDCQUWv06NG3BgwYcA2CerFZs2bnatSoca506dIX8DquQdxu5c+f/wJe1++FChXajP+BC7NmzfpxsmTJBkN6KW91kTAkB8KSTzYhSIUkRfy2M5UQ4h/xDrGDf/EffAHkbfyzO9+7d2+OjfVQdS74dX4b/1yvN23a1MKv3J3YdwfkvoY3gUiUh1D8RMlwSpBw/0cKimeT/4Tyge0bYh/fQkbOONWurFLE+t+xfhhE5XHEVb3SKHJ4TWG4Xs8jHFOO1atr8JoPYHmJUntnFavn+p5DVuG5n2DbHsjTnY0JxTIrnsOSiYdBYudb8P1mqThljzMfcIxItherjlB4OHMM5adnvHjxBgcHB4/OmDHjRIjS9NDQ0IWcD7pSpUrbq1WrdqB69erHatWqdbZOnTqXkZtPP/20VbduXYudDOrXr2+nQYMG9pLr7syd2zjbcT/YXzhyDfu/ULNmzZM41u9Vq1bdU6FChY2lSpVaBmGbnT179klp0qQZFxgYOAzny7Zv+Iib55FGyFNIVaQMwmYieRAKHIVXPbaFEPeDd4hdJPirtHemTJlWtWjR4vr48ePtDg/304vu+PHjdsPiYcOGcdqw4wkTJpyBfTYuWrTo/ZbUFYFgzIBQhDslSbi9EZLBwTvvqcrDs49ByAaWSDnygv1cw/3FWHbANg899Zg3wN6rFFS81roIp1kbh9f3PZa7sLzhdHZwgm82W3Dx+GleV1yHmXj+W0gnrKvBKuloGIZEYuc++LfInrks8aMAsiS9OFIeqYmwzRnnhOY8px0RfNwM/gztDjT8HHDYDw599CrCf4SvI0PuEq5nuB23H4j0Ryhp+Cgb/ElzfHH+prE7LHBcOM7cwZLHUgjbvbH9Z0aEPzA1t7MQIjrwOrEjcVOlSsVhEz5PmTLlegjemffff9+uTmE1BxsVs20K26mwbY1TBcKu/hxO4fXXX7fKly9/KG7cuD8mSZJkBH4lPxax23sH/6Fz4r//Z5CNy5QPTxUsS5qex3/t/2yUjG2DexhTC8+fittX+Xzuh6V+uL8f8sJhO8pG6q3pc/A14nXkwLIE8jTSH9eHr3cblva8tnzNDIWWS1wPitxZbLMft1fh9izkdaQJrlHBaBC5O5HYCSGEcDNeKXaEv8JTxIsXr3qGDBkmQvS2pE+f/reiRYseaNiw4eEXX3zxTO/evW/16tXrygsvvHC0Ro0ah/Lly3cA2x1ImzbtCjyHv6Y5VtN9z6UK6ciKsC3caaekDuLxO+536xPRtuUf4QDC2D4dpKULsgW5Tamj0CHXsA8OY9IOQuRrk2lzvL3ADhGlchmRckgXXJeP8Xo2I5eRmxQ3p8qa4X2sv4blWV5DxG4rh7B69jFcmySUuRgUXImdEEIIN+O1YufAEhxWVbLNSTnkucSJE/cKCQl5N0WKFCeQDcjgBAkSwB3sKheOhM9eYvc9VRhphy977GgQZOSEU8oGATnaCRcIy3/t2OBpS8d5StnD8xirXik3FB3cP4v9ftoRF5y9Qj1P8QkgXYnx+ovhNbSFzL2HJQf93c9rhNtX+Dp5nfhaI0kshe4KwjZ1E7BdR48M5sDttBQ6z+5jGomdEEIIN+P1YncnTmNqVq9uRiYi/IJmSdpDVeOxNKqzMd0hYL9TUCgqkBb2yHybgwl7NrsrkLV02O4lhD09r/O5rH6k9EBsVmFdJ+yDg+N6PZQuCNjjOG8OJfIaMg3hWHF78fouUNqcdnJ8jVx6BPgStmFbucnYpj9uN0bKcly5B5yVIzqQ2AkhhHAzPid2DuxBuhLhqPYPjae07QWI2A5KCsUO968iHJaDQy/clUF4HkuisM1obPs7n+sEgvMn1k1BarOK1vMUr8Mzrlx+nCdLG1sjb+D214hdxUpxizzTA0NxxWOcm3UHwjH5PkRexn4a4BoW4nXx7N7bkNgJIYRwMz4rduzhuhoZad97CChdkJOnIWKbWALlqTrlgMHfsgrSs9n/gMcz43kv4HlLcTvcKeXDOs7xuh3rXmfPTs/mXgNLz3juOLdCOM/quM0erJ9CyjZgeZmvg2LK1xJJUnlNOCjzISw5TyvH3XsLeQ7X6/F76VDiJUjshBBCuBmfFTuO7xQlYgehKQVRWdrd09EBskKJWYElh0v4n2FNIIIJ8Lgz2PBJiiCfx2D9BUgQx2ur5S2yw/NlqRwkNRXOqzjOrw3Om23lVmJ5Bvev4nY4q42d1+GpQr6FsHqVU3etxnIC0gHXK6wlrj+2CYyBXqxRjcROCCGEm/FvsWO7N0gL25DdiCRnOyEvje4mLdguGGmBzIMQnXWew1ItrPsD64bg+TExbMd/wupQnFtBnE9znNsoLFnKtg1h71QK6F8lciydYzyllSxx3IbHv0B6QuBq8DWxnSGui6/15r0TiZ0QQgg3479i186YrBCVdyEtlyg0bDsGkaH0dL5baRvWF4fwjIUsbacUOVWVWH8Fz5+Fx1pAgmJNFqYbEw/nVQDnwwGCOf/qxzif+ViyWtiWUKezQ+TgvK9zGyxnYvkGnvM8blfjvrDkdXYTEjshhBBuxmfFjvyCcBT4+6avMWkhMRzW5JRT4jbAmB1DbH/7O5C8EKysi22/gezYMyhQkCh2uL8Hj7HjBIUhRmFVKJITKYfjswfrAJzLl1iuxfIsz+9unR7wGIch2YtzZ9tADs3yKm43w7I4q1g9u3crEjshhBBu5qHEjkOPsHMAx5erEMPh3Iqc/3VqpHX/FbaZK50RAvOCMQMhMwcodUwnpA5EMWfE3I1PIGGBxhTDulKQoL6Qnr9K6Vi61wVpbczhjhBBDpOC7aMdliJyWBUcPzeOT5lrh3AGi19wfvYwJM7rcUoTuQ6PXcG5H8NyD7b9CcvxeD7bypVCfL1q9X6R2AkhhHAzDyV2HAh4BLIL2R/DOYhcRc5GWvdf2RcfzytszAnYmz0JPQWoszG3qhlzMbUxR7HNbmRPAKQtuzEnGxrzJ6ToUndsx+25bG/M5ZrYz2O4cAX/Y9DihwHHjsdhWJzhSHAez0LKOJn+EgjaYdxnL9UbFE7ntfD8sM6uXsV6ezgSbP85lj1wvyJkLwNlDuFwMfc0363LkNgJIYRwMw8ldhx0Fp5kT7TNErSYDCfY3oNwgv+7PX5naiaFK5Uy5uNnIHIsyWKJFmTnKiTn28oRE/uzRK9SJmM64Kr83NQjSRQmhvIESVoN0Wr3RIQgZECiHAodB/XFeTVABiMzcR7rcOxfsTzjnJNTHewE629hG1YNf42wmrkeXl8xJDuEjzNx+KPI3YnETgghhJvx6TZ2y5HBETf/mw+NKdrfmNm9jblIKYLwhEN+FkB6wjybmPdxexC++PGtvxHbXON2FDpsexzbfgZhqsHhQzybRxnYby7svzqOw/lX38ZtTo7PceXs4VTubCvH+9iGosnq1bl43tt8LiSwDqSwCJapPbsWf0diJ4QQws34rNjdV69YiA7byn1PSWLplqft2S9Y8gJwGq0suN8ZcrSS1ZlOiRju38D6FQinC8tl7+whYfUqj4dzCsM+6+J2d5zbh8hy5E+KJOWNx2d421Midw3b/4YlpyhjKd5buN8at0uzg4dn9+LfkdgJIYRwM+4XOwhQHkjUFxQ2Cp2nHdpWpDFuB0KOnMGGj1OqGG4HYTqNdTPx3KqeXT0QeH5CDg6MfWXFsThAcEvcppSxrdxp55y4pMBF6vTA8eROIb9hH2uxZIkh57KtiO1ZtSruH4mdEEIIN+NusWtvTBrI0BjE7izhkTp2POjU2ZhsEKZWCEvKLlOmuA22DUdYxTmQU4INuv95XuPwOezFiuPlxP4bYH9DsL/vsdyP5WksOeTIX50ePCLpHJszQexHvsZz+2NZA8sclENsn4Rt8DzHEfePxE4IIYSbca/YQYYSQor6IEcdgYI8nYNQ9UU4R+oo3D9AoeLjns4Ul7F+KmUKue8er5RFPK8W9t8byy+xP0rjLuQk7t92qnh5LIa3PbL5K853DpbDsd0zyBOcFQPrUkMS43p2Lx4eiZ0QQgg3406xY8kW5Kglss+RNggUqzWnYV0/LKdAus47ksVtcH83HhvWw5jHPbv5T/A8tpWrgP29gOe+jkzGbbbJO0JhYycHp+ODs6RI4nG2lfsR27BtXX8sm2BZslM09bQVfyGxE0II4WbcJ3asAoVsNYI8baVcUdqQ87i/HvJEodtJuXKEDutYNbqgszGtWd3p2c3/gP3GbwcZwL4fx36fRDriue8gi5HjrE51OjwwlDgeA4+xA8YRHHMTbs9D3sM+2Pu1Uk9j0nl2L2IGiZ0QQgg34y6xY9s2CFMtSNRPlDdP27WbWLcP2Qipuua0peMS9w9AstiRoaBnF39BkYOcBbEUjdWi2LYhth2KJdvKcU7Z2xRHRx6dtnJ4/BZyHsc9giUHCLZLCSGONfH8jKpajVUkdkIIIdyMu8QOIlUWEvUdROsGhYtyh3UskTuB5VWKF4PHbuOxVVjHifv/1sPUI4eZkRrYhtW23yCcSP8olucRe4BjihyFzpE7rL+JHELmYlt2luAAwQWQ9BREiqLnECL2kNgJIYRwM+4RO8jUY12MmQ7ZukzhgljZwXr2Mr0ZqUTtEGTrbxP3s/csHquC9V2x7Xg8thC3WXXKUrdbTkeHyNWsPAa2/YPbIhwupR3uV4LkFaLMqfeqVyKxE0II4WZ8XuyG8c6giDHiPoVUXfK0a/srLE3jOsjWRWzzHdK+kzHFOhpTGOsaYBv2kv0I65diSen7W2eHOzo9UPRWIF9CIodj2Qopj/WZeR7C65HYCSGEcDM+L3aDcPZBkLfXIF5X75Q6BtJ19aWIKcHWs40c7nOA4P7IbNz+jaV4fJ4TlshxicduY5sT2O9OLH9GOEAwh0+phUjkfBOJnRBCCDfjs2IXhKxIYMz4QcY8B/k6QkFjqRoEzE6k2xxDjqVsi7DkwMMXkZt8nNWpkapoKXKXEQ6LcgBhW7lXkboQx5ycCsxTvarJ9H0XiZ0QQgg347NilwRZWtCYP/oas5rVrQxk7G65gbDTA2OLnCNzHqFj6dwxLBdD9kbjdnOsfxz3s3L4ky7GJIw4pHABEjshhBBuxmfFzoQaM79ZhJyFRy6puzMUPoqc0/GBtyFvpxBWr06AuPVkqRxul3jJmCwNjUngOYRwHxI7IYQQbsb3xK5txNhyzyB7KWl3ltTxPqtY2U6OnR48j3O4k3XITJbKQea64HY1LHNoXDm/QmInhBDCzfie2EHaOLH/EAjbCYpd5LZyDOUOj5/Gek64z9kmpiODkXpYn8uzG+GfSOyEEEK4Gd8TO5awcdy5Zp7ZJVgih+VViBsn+P8dWQKBG4k8g/UFuhiTnO3kNK6cABI7IYQQbsZn29jFy27MQsgaq1w5of4EpB1ErjSWeToakw7CF+jZVggHiZ0QQgg347NilzyuMb/kMmZ+b2Pq9DAmt0RO3AMSOyGEEG7GZ8WOAxSvQV617wlxb0jshBBCuBmfFjvOPDHCvifEvSGxE0II4WZ8XuxG2veEuDckdkIIIdyMxE74FRI7IYQQbkZiJ/wKiZ0QQgg3I7ETfoXETgghhJuR2Am/QmInhBDCzUjshF8hsRNCCOFmJHbCr5DYCSGEcDMSO+FXSOyEEEK4GYmd8CskdkIIIdyMxE74FRI7IYQQbkZiJ/wKiZ0QQgg3I7ETfoXETgghhJvxWbFLiqxBRtj3hLg3JHZCCCHcjM+KXWpkFTLKvifEvSGxE0II4WZ8UuwSIE8jvyCTkPyIEPeCxE4IIYSb8UmxK4n84MnPyFgkFSLEfyGxE0II4WZ8TuxYOjcR+QapjXRFFiI9kYSIEP+GxE4IIYSb8Smxy4oMRVhSV4MrQAqkP7IAaYwkQYT4JyR2Qggh3IzPiJ0jcHOQ5xC2s3PIgVD4ZiEsxVPJnfgnJHZCCCHcjE+IHUvh2iLzkN5IfOROciKfIl8hFblCiLsgsRNCCOFmvF7sWPrGUrilyFtIeuSfKI2wmvYzRD1lxd2Q2AkhhHAzXi92VZCVyFSkMFf8C3GQpgjHt/sc+TcJFP6JxE4IIYSb8Wqxexyh0K1AqnLFPcASPn5pb0ZeQTj1mBAOEjshhBBuxmvFjqVtYxBWwT6F3E+HiLTIQIRC+CwSiAhBJHZCCCHcjFeKHXu89kHYXo6dJhIj90tuhNONzUaqIfEQISR2Qggh3IzXiR2ljsOZcFgTDm/CYU4eBLa3K4iwpyxTBhFCYieEEMLNeJXYsbqV1a4sqRuCcEDihyUU+RrhbBUFuEL4NRI7IYQQbsZrxI4lbBWQb5EPkXxIVFEPoSxyTtkMXCH8FomdEEIIN+M1Yscv3C8RDkLM8eiikrhIF4SdKQYg7Fwh/BOJnRBCCDfjFWKXEfkE2YI8jdxtZomHJTUyDNmDsEOGesr6JxI7IYQQbibWxY49XnlwlqZ199yPLjgbBdva/YhQIIX/IbETQgjhZmJV7FhF+jyyBBmMPGgP2PvhMYSDHk9DwrhC+BUSOyGEEG4m1sSOPWA5m8T3CE8gOxJTlEW+QcYjObhC+A0SOyGEEG4mVsSOgwWXQyYj7yGFkJimETID4YtPxxXCL5DYCSGEcDOxInZFEJaWcXy5okhszArBtnxtkAUI2/axc4VwPxI7IYQQbibGxS4T8jbCdnU1EY5fF1ukQji7xXKkFZIEEe5GYieEEMLNxKjYBSNvIWuRzkgAEttkQ1h6uBppzhXC1UjshBBCuJkYEztWfbZHtiGUu+SIt8A2fouR+Qg7Vgj3IrETQgjhZmJE7FgyVwv5CRmDeFtPVA67wunM2EP3CyQme+iKmEViJ4QQws3EiNhxvDiOG/cRwo4T3gjl8xlkNjIcCUKE+5DYCSGEcDPRLnaFEQ5pwh6wnAM2NnrA3iusHmZ18Q8I2wCmRIS7kNgJIYRwM9EqdlkQfol+hzyJsMrT2+GYdi8hHAalJZIMEe5BYieEEMLNRJvYcXqwgQg7JLTmCh+Ccse2gKyWrY94Q+9dETVI7IQQQriZaBE7tk9rh/yCUO4CEV8jLzId+RZhxwrhDiR2Qggh3EyUix3b0DVEtiPvIxwnzlepiHDwYvaWzc0VwueR2AkhhHAzUS52LN1i54OZCL9EfRlKaltkBfIOkhYRvo3ETgghhJuJUrHLh3yCzEXYAzY2pwuLKpIinZCfkR6IhkHxbSR2Qggh3EyUiV0ahDtih4PaiJs6HGRAeiPsKdsU0ZyyvovETgghhJuJErHjkCAUn1kIO03ER9xGVoRCwA4VdRBfGLpF/C8SOyGEEG7mocWOg/o+h7A0qxfi5kF9ORXap8hXyBNcIXwOiZ0QQgg381Bix5K6JshSZBSSGXE7ZRCWTE5GCiHePJOG+F8kdkIIIdzMQ4ldQeRt5Evkca7wE1hCydk0uiDqTOFbSOyEEEK4mYcSO5ZYcVaJokgCrvATOKtGTaQ5ovlkfQuJnRBCCDfzUGKXEOFwIP7YkYAiy9euqljfQmInhBDCzTx05wkhfAmJnRBCCDcjsRN+hcROCCGEm5HYCb9CYieEEMLNSOyEXyGxE0II4WYkdsKvkNgJIYRwMxI74VdI7IQQQrgZiZ3wKyR2Qggh3IzETvgVEjshhBBuJtbFLgDhTA7ByJ2D/XIQYE7ZlQTxx0GQRdQjsRNCCOFmYl3sMiKvID2QVFwRiUeRTshTCMVPiIdFYieEEMLNxLrY5UA+Rd5G0nNFJEohPLlWSGquEOIhkdgJIYRwM7EudtmQcchwJC1XRCIUGYQ0Q1hdSwogLN3j9n2Q4kgcxCEz0hrhi+KXdyHEgXJYAamL9EckjP6HxE4IIYSb8Qmxa4pQ7FiiR6lbhKxDliN8PBfCNnjcph3yA7IW2YKMRR5DKH+FkfHITGQ18g6SBRH+g8ROCCGEm/F6sRuINEFYstYcGYZwfTIkH9IGqYYkR55GRiP1kcRIeeQbpBfCxyl47yFjkJII93Fnhw3hbiR2Qggh3IxPiR2rWLldbsQhpSesgh2MvI5Q+AjFbYAnbMtHsXsLeQlJgwj/Q2InhBDCzcS62GVH3kd4EneKHdvPsccsq2LZY5ZyxqrWz5DZCKtZCyKEvWv5hc0q1sXId8gcZDsyGSmKUOxGIiz5u7MHrvAPJHZCCCHcTKyLHb9cWX3K0jaWvEWG1aVDkZaI03mCJXM82ekIBa8bwmFRKIiUtnnI1wgfp9Cx6vV5hMd5HOE29RBWzQr/Q2InhBDCzcS62HEAYnaAoHBRziLDKtgvkUYIx7Gj1GVAHNiZgiV6HOuO1bPs6foiErnkLxPCDhKJkGIIj9MA4XGF/yGxE0II4WZiXewSIuwA8SHC4UcobhQzDmsyApmCFEECEW5HkcuPsASP67sj7DTBEjgOZDwKaYxQBPk4x8d7GWFVLe+zdJCiKLHzTyR2Qggh3Eysix2HIaHIsd0bhyHZhGxE2FbuXaQcQqnjcCYcroQdLXYi3IZt6FjNyipc7oey9gKyAOHjW5FJCMeuYy9ZttljuzxH/IT/IbETQgjhZmJd7BxCkIYIq2UZDlHCmSfuhO3uWGrHbdoiOZHIsGTuWYSP90ZKI/ERwp6w3Cc7YXAeWuF/SOyEEEK4Ga8ROyFiAomdEEIINyOxE36FxE4IIYSbkdgJv0JiJ4QQws1I7IRfIbETQgjhZiR2wq+Q2AkhhHAzEjvhV0jshBBCuBmJnfArJHZCCCHcjMRO+BUSOyGEEG5GYif8ComdEEIINyOxE36FxE4IIYSbkdgJv0JiJ4QQws1I7IRfIbETQgjhZiR2wq+Q2AkhhHAzEjvhV0jshBBCuBmJnfArJHZCCCHcjMRO+BUSOyGEEG5GYif8ComdEEIINyOxE36FxE4IIYSbkdgJv0JiJ4QQws1I7IRfIbETQgjhZiR2wq+Q2AkhhHAzEjvhV0jshBBCuBmJnfArJHZCCCHcjMRO+BUSOyGEEG5GYif8ComdEEIINyOxE36FxE4IIYSb8Rmxi4skQBIhiZEkSFJPeD8Q4WPxkTiIEHdDYieEEMLN+ITYZQkMDKyfJEmSwQkSJPgM92cji5AfPVmAzEiUKNH72K47bpdFghAh7kRiJ4QQws14p9ilTJkyORa1kYHIJwULFlzWtGnTo926dbMGDRpkvfHGG9abb75pjRo1yho2bJjVr18/q3379tdr1aq1J3369HPwnHeRrsmSJQvDUggHiZ0QQgg343Vix6rUUOTlvHnzroCohXfs2NEaO3Zs+LJly6wjR45Yt27dsu7k0qVL1t69e63Zs2dbgwcPtlq2bGlVqFDhHCRvGvbVAsmJCCGxE0II4Wa8SuyCkQaZM2f+sXTp0udeeeWVG1u3brVu377t0bd75/Lly9b3339vtWrV6lKhQoWOBQcHT8C+iyJspyf8F4mdEEIIN+MdYpc2bdo0WLwMATsAGbu2fPny22fPnvVo2oNx48YN68SJE9ZXX311q1y5cpfjxInD9njVEZYKCv9EYieEEMLNeIXYJUO6Qu4ODxw40Nq+fTtL6e6/mO4fuHTp0u1FixZZDRs2tHCcn5FyiHrO+icSOyGEEG7GK8TumezZs+/u1auXdezYMY+ORT2//PKLVatWLStlypTsVVsg4tDCz5DYCSGEcDOxKnYBOXLkyJk0adK5bdq0sQ4cOPC/vSKiEHa6WLJkiVWqVKnriRMn7pssWbJUnvMQ/oPETgghhJuJVbFLnjp16iFVqlQ5+N1333n0K3q5ePGiNWTIkCsFCxZcERgY2MBzHsJ/kNgJIYRwM7Eqdo8kTJhw1dChQ29xuJKYYvfu3eFPPfXUdRx/eMRpCD9CYieEEMLNxJrYsWdqhQwZMuyKqdI6B/bL6NGjhxUQEPAlziGTfTbCX5DYCSGEcDOxJnYpAgMDO1esWHHPypUrPcoVc7zzzjtW9uzZ5+M8KiKch1b4BxI7IYQQbibWxO6RFClSDG3Tps3RHTt2eHQr5pgxY4YFqVyH82iCaFw7/0FiJ4QQws3EmthlSpky5ZvdunU7u3//fo9uxRwLFizg0CfbcR6cbkxi5z9I7IQQQriZWBO79MmSJXutdevWx2KxxG49zqMREmCfkfAHJHZCCCHcTKyJXVBAQED7MmXK7F2xYoVHt2KOMWPGWJkzZ56H89AsFP6FxE4IIYSbiTWxYynZEyEhITtnzpzp0a2YITw83OrSpYsVJ06cz3EO6e2zEf6CxE4IIYSbiTWxI+kSJky4fODAgTfOnDkTZXPD/hdbtmy5WaNGjSsQuyGe8xD+g8ROCCGEm4lVsUuWIUOGAU888cS+KVOmxIjYnT171urTp8/lvHnzLk2VKlUdz3kI/0FiJ4QQws3EqtjFy5kzZ8ZEiRJ906JFC84I4dGv6OHGjRvW3LlzrWLFil0ODAzsnj179iDPeQj/QWInhBDCzcSq2DnUyZw588YOHTpYBw8e9GhY1MMhTsqVK2cFBQVNwTFzRRxa+BkSOyGEEG7GK8QuEfJ8ihQpdnXt2tVau3atR8WihvPnz1vsoPHkk0/exHHmIGFYrZ6w/onETgghhJvxCrEjyZDWiRIl2tq0adPr8+bNs44cOWLP6/qgXLlyxfr111+tiRMnWiVLljyL/c9ASiKSOv9FYieEEMLNeI3YEZbcVXnkkUdmFypU6FjXrl0vcx7ZixcvWtevX7eHKfkvbt26ZV29etU6ceKENWXKFKtevXqnc+fOvZ+zXGDfrH7VvLD+jcROCCGEm/EqsSPxkHxIaw4gXLZs2atNmjS5PXTo0JssxWMJ3OXLlz0a9/+cPn3a2rx5sy1zPXr0CK9Vq5ZVokSJo8HBwROwr1qIvsQFkdgJIYRwM14ndg4JkbJIJ2RMgQIFFj799NOHn3vuufDOnTtbL730ktWrVy87EDmLHS+aN29+pWrVqjvSpUs3Dc/hC2qOFECEcJDYCRF1JEBSIJmQ3EghpBRSFamLPIO0Rjoi3ZCXEf7tDUReRTiW6FBkODICGYXw7/OtSOH9kQgf53bc/nVkMPIKwv31QroiHZBWSFOEw1lVRsKQxxDW2PBvnqMhaBpJ4Wa8VuwikyZx4sRPJkqUqAduj0Y+Rr5GTiE7kS+Q8XHixBkaP358/hMphlAMhbgTiZ0Q/w3FhwLEvxHWoIQi5ZHqiCNsLyCUtQEJEyZ8IyQkZFy2bNk+L1iw4KySJUv+VKFChY34ob2nZs2ah2vXrv0nfphfqFu37vX69evfbtiwodWoUSOrcePGVpMmTaymTZv+Fd7neid3Ps44jzVo0IDNbcKx36t16tQ5/9RTT53A8Q5Vq1ZtF46/Piws7Mf8+fPPyJw586epUqV6F98Pw3C+fZEXEQpgE4QC+CTCggR+d1BQOSNRckRNd4Qv4hNidzf4T2c1wl9yQtwrEjshIqC8JUFCkIxIdiQPwhIuylv7oKCgwTly5Pi0UKFCi4oWLbrl8ccfP4zbF/Lly3f70UcfvVWmTJnLEKmLzZo1u9C5c+eLAwYMuDp69OibH330kTVt2jTr+++/t5YuXWqtWbOGM/5Ye/futQ4dOmS3geZg8ZcuXbLbT7Nt9L3A7a5du2a3uz5z5ox17Ngx67fffrP27NljN8VZtWqV9eOPP1pz5syxm+VMmDDBGjly5I2+fftead++/UVI4oXq1atfLF269BUIaDheRzhez7kiRYr8hte2Aa9pHuR0YtKkSQfg9bdBnkIc2cuG8H9GSiQxIukT3orPih07WqxE+AtMiHtFYif8EY4EwPbL8RHKXA6kYvz48VuFhIS8kSFDhm/Spk27Mnny5HuDg4MPZs+e/deyZcsebN68+VFI0cW333771uTJk61FixZZmzZtsg4cOGD9/vvv1h9//GHLFUXt1KlT1rlz52zp4ogEFDAOCk8Ze5jRDe4HdrDj8XhcHp/tsS9cuGBLJM+P53n06FH7vHn++/fvt9avX2/Nnz/fmjRpkkUpfemlly40atToSKlSpQ5kzZr112TJkh3EddmdLl26nx955JEpkN3X4saN+yyuXxkkCxKI8Lry+mrEBeEN+KzYBSMqsRP3i8RO+BP8AfxovHjxGiROnLh/nDhxPsT9mciC9OnTLytfvvym1q1bHx00aNCN8ePHWzNmzLAlxyll2759u13CRimiJMWUoMU0FEIK6cmTJ+1B8rdt2/ZX6R877X399dfWuHHjrP79+19r0aLF7yVLllyfMmXKn3Ad5yNf4/q+nyhRIrbzYwkfSz0peULEFhI74VdI7ISbYZUq28I9h/RHxiZNmvTL0NDQ5Y0bNz7KjmcDBgywRowYYY/v+d1331nr1q2zS7BYJSr+GYotq31Xr15tD3j//vvvW8OHD7f69etntW/fPrxevXqHChcuvASS9xmuO9uCs6NIM4SdSdIiQsQUPit2rE5YhbCXlBD3isROuIl0yOMIe6G2YOeARx999PtKlSodrl69ut25oEePHrfHjx8f/tNPP9nVkCJqYSkmSzUXLlxovfvuu/aoDZA8znRkVaxYcX++fPk4MP4ghD11+YX7KJIKESK6eCixY+Nbti9gcT97ocZU2MWev4DWIvxlxPt32y4647xutanwLSR2wpfh/zpKATs6VA4ODu4PcZifO3fuEwULFrxSt27ds6+//vqluXPn2m3fbt68GaNt3PwdXmdeb153lu7NmDEjvH///hdq1KhxFu/TlTx58hxGZgYGBnbH+8deuJkRdsbQ8CsiKnkosePYRTU9qRGD4Uk3RHYjHPaEVQ/srn63baMr7CJfDmHvKOE7SOyEr5ImXrx4T4WEhLybOHHiVUFBQfuqVKlyCCJ3dcGCBdbu3bvtDgEcrF3Vqt4BZ0H6888/7RK9HTt22FXfffr0uViyZMmDSZIk2ZM8efKlKVOm5Bcwv9PYvEiIqOChxI5VAGzj9rknbFsQE5mITEZOItuQD5BPkLttGx3huHmfIhzDiYNzCt9BYid8ieSQOM6cw/+zczNmzLiyZcuWJ999911bEtjAn+3jhG/AThrsnPHzzz9bs2bNst58802O53cYcrcc7++3ceLEeS1hwoQVcJsls0I8KA8ldvxifBrhoMAc84fLmMjzSGfkV2QewobCHGzybttGRzgwJ4+pEjvfQ2InfAHO4NACeSNXrlw/NmzY8GrPnj3tBvtsvM/qPuH7cBw/tn0cM2aM1bVrV4tV6RkyZJiL952zanDwZM6WIcT98lBiF5toHDvxIEjshFeSNm1adgjj1Ff1UqdO/XFYWNixOnXq3B40aNBtjrUm3A1L8zjMDAQ+vEaNGreLFi16IGnSpGPweeBsH/lwn2PlCXEv+KzYJUPYK5YnL8S9IrET3gar3UKCg4ObZ8iQYWHevHlPNm/e/AzHTmP7LA62K/wDdr5g+0hWr3/yySe3ateufSZnzpzHIP0zAgMDOUaeOlqIe8FnxU7j2IkHQWInvAmW0nHw4G9y5Mixq3Pnzpc4uwN7VHL2BuG/cMBkzozBtngtW7Y888gjj2yD3LEtexVEbfDEvyGxE36FxE54BWnSpCmJxahUqVKtatOmjTV16lS7Z6sQkWEpHufB/fTTT60mTZpcg9wtCQgIGJQ2bdoCEZ8kIf4HiZ3wKyR2Irbh/66GISEhs6pXr35u1KhR9lAYQvwXnOZt0KBBVvny5U8kTZqUozNwYGq2NxciMhI74VdI7ERswrE/u2bMmHFP06ZNrSVLlmjAOXHffPPNN9dq165tpUqVag0+Ty0geSH2p0uICCR2wq+Q2IlYIXXq1DnjxYs3Mk2aNCf69+9vt59iT0gh7hfObLF161arXbt2VrJkyQ4kSpSoNz5fnF5OCCKxE36FxE7EOGnTps2KxdDs2bPbgwtzui8hHobb4MCBA9bgwYOtkJAQjunaHZ+zNPYHTvg7EjvhV0jsREzDoZn6Qur+eOedd6zz5897vpp9ixMnTlhffPGF1bp1a6tx48ZWw4YN/0q/fv2sLVu2eLZ8eNhhYMmSJdbkyZMtysu/lWxyOBiO88fOJ5xSzd84fvy4NWDAAFbL7sXnjAP1q8eskNgJv0JiJ2KU+PHjN4HU7X7llVfsISx8FVb9tWrVysqVK5dVqVIlq06dOnZq1Khh1axZ0xoxYoRdvRxVLF++3Jo5c6Y9zypF75+g9H3zzTdW+/btrZ07d3rW+hcsAX7hhResTJkycWxXfqkL/0ZiJ/wKiZ2IKeIg6ZMkSfJtx44drb1793q+hn2TjRs3cgJ7a9iwYdbhw4c9ay17QN0ffvjB4mtkiZ4D24Ft27bNnjLrbnPaclo0jte3YsUKu8Tt119/tY4ePWpPs0VZO3PmjH3/2rVr9vanTp2yt3P2x8GbuR3PZfjw4dbTTz9tl9qdPn3a3p6PcV7WX375xVq2bJm1Z88eez3hPrnv7du326+Lj/G4vsyGDRs476wVJ06c9/G5S2p/AoW/IrETfkVRZATSG1F7FBGdBAYHB7fMkyfPNgrHv5U6+QIUIFa5cuJ6SlZkWFLWpUsXey5bQqlau3atLVs5cuSwChcubLHEkiLnXAfKVPfu3a38+fNb1atXtziWX69evWxpu3r1qjVjxgxr5MiR9th+Z8+etcdxK1++/F/7++CDD+zq4dmzZ1slSpSwgoKCrFq1atkSx+Nz/5xft0CBAlb27NmtZs2a2efJxyiRQ4YMsSpXrmyXNrIzS2Tx80X4ujjn7COPPLI8WbJktfH5U5Ws/yKxE34F5+IcjvREUnCFENFE+syZM0+F8Fz29dI6smnTJlvsKFsUqsgsXrzY6tChg/Xll1/a91lt+9JLL9klfN9995319ttv29W4Y8eOtY4cOWKL2kcffWTL3HvvvWfNnTvXqlevngUJtm+zFJCP9+7d2/r555+t+fPnW6+99potLtwfpY7SxupalsqxAwGrhD/77DP73CiDo0ePto/Pc2JbvRYtWlgvvvii/RgF79lnn7WqVq1qTZkyxR4A2FfbPkZm3bp1FNizISEh4/D50/83/0Vi94Dwj4a/ioYirNpTfCNfIeuQ5cgEzzpFiY58nipVquMUC6c60ZfhIMoslStevLgtYRQldqRo27atPewGS+vYxu7ChQu2SPExlto58DqwhI7rWKVKSaSIscqWUP6efPJJa8GCBfb1mjRpkvXqq6/anSgmTpxoDRw40Nq3b5+9LVm9erVd8sYSwDlz5tii57TxYwkpRZLTszlMnz7dev755+0SPYonpbJr16526aBbuHz5st3WMX78+GxrlwER/onE7gHh8AXjEUtRFOVuyZEjx7k1a9a4YhBilnJ16tTJypcvn1W2bFm7tIvVnClTprSFyZEulphR0qpVq2aX2rFEjr2BKYUUwu+//94WL5bwrVy50m5rRyhhlD22oaOgUOwoc6yaZckcq4BZasf9ffXVV9a5c+fs57FXLPfXuXNnu+SNfPjhh1aVKlWsHj16WOPGjbOlk50rWFU7bdo0Wy779u1rV8fyWG5i/vz5V4sWLfpdmjRp0uIzKPwTid0DQrFjI9W7/kNXFEUpWbLkwb179/puV9hIsCrWkSFWf7JNF6WL8sbOC05pGdvfscqU1arsQZs3b167HV2RIkXsUjRKGqtZW7Zsad/mfsjChQvt/UcWO4oeOzgQlrRxaBXuj6WGn3/+uV2ly2rbO8WOpYNhYWH28SmiTKFChSzO1vDtt9/aYjd06FBb+vh8NwEBP9OrV693nnjiCVXF+i8SuweEUwPx2KeQ64rP5AZyy5O7Pa4oUZWr6dKlu7xo0SJXTC8RuY0dx04jlDK2eatfv77d7o3VmuytyhKzbt262aVzFD6W5rFtGztPsPcpO0awGvTHH3/8q8SO1al8ztKlS/8mduy0wVI5rmPPWu5v3rx5drXurFmzbLljKRxLBFnFSih9rGrl42zfyOewcwTPg71tuR3b5bH0z21iB6kNT5s27bLEiROnx2dQ+CcSuwckEMmHcBLmGorPpDsyA/kcedazTlGiIx0yZMiwk9WAbmiY75TYsaSLgubAzhCvv/663TGBVatsM8cOEGx3x1I2B8rY+PHjbcFiKRzbz40aNeqv4UkocUWLFrW3o8hR7ChfrKJlBwd2oHDa41EeKYZff/21PTYgS+wodrt27bIf57ashmXpnAPb6nGoFg4LwsGUeXy3ldidPHnSrr5OmjTpYnz+NMWY/yKxE35FboQf9q5IIq4QIpoITJs27ej69eufpEz4OuxxSXnj0CDstODAzgusAmVnClbLckBhlqy99dZbdtUpBY9DjdStW9fuqcpq3CtXrtglfU2bNrWaNGliV+WynR47T7BKlp0n2GGCw5+wBI+CRlFjT1buj9tyX5yVgiV+LAHkkCncntLGEkV24OCgvdyWz3Ha3HFsPW7z8ssv22Lpho4tDhTaypUr/5YyZcoB+PxpLDv/RWIn/IrIAxSr15iITjiOWLnUqVOvYckQZManB7KjRLEUjb1L7xzuhKVmrH5lBwen1Ixyx6pVp6MF5S3yHLmsWuWAxs8884w9JRZL51jqxuFNWKXLalo+zmnCWH3LY3NcPO6PVb/sFevAqlXug9WzHPCYsFSPnTYoi3wOpc4ZdoaljOyAwapipxTQ17lw4UI4pTswMHAuPneFkHj8EAq/RGIn/ArNPCFiksRJkiQZX7t27SscxsOXYckc29QxdxtsmespSU5nCMIqVUoaE1mgWEpGuaKQsTSTs0NQ7FgiyNK0yMdyYMkcn8d9cRn5HHib+2e1qtNmj/D23Y5/t/37MnydrK6uUKHCuYCAgIGez57wXyR2wq+Q2IkYBV+0YUmTJl3EKsfIVZj+DEvOOPgwZ5B4/PHHrYIFC9rTYVHw3FQ1GlNwXEDOypE4ceLJ+MjljfjkCT9GYif8ComdiGkCkGdSpEixgW2+nGFB/Bl2mGBVK6tvJ0yYYLen432W8In7gyWerKKG1C3F54yd+YSQ2Am/QmInYpyaNWtyTLHnkiZNuqFVq1Z/m5FBiAeB1cnsMUypixs37hJ8vmq3bds2sf2BE/6OxE74FRI7ESuUKlUqGRYcYmdl48aNb/3www8cU80djbxEjHL06NHbHOqlSpUqV/B5mofUhNTFx1IIIrETfoXETsQmCZFqgYGB34eGhp56//33r7D3pqogxb3A9ofsJTx06NALBQsWPBkQEPAlPk/8nxaXHy4hPEjshF8hsROxDUtW8qZIkWJInjx59jZq1Og6B/RVpwHxb3CQa06VVqNGjcu5c+fenCRJkpfwOcqMSOrEnUjshF8hsRNeQWBgYEYsmmI5uUKFChc5BtsPP/wQrtI7EZkLFy5wyrRb7du35/y3f+Iz8wFSO1myZKn4ORLiLkjshF8hsRPeRjHk5SRJksyqVq3aSQ7ky4Fzjx496vlqF/4IB4SeOXOmPUVYmTJlfgsICOBQJi8iGs5E/Bc+LXZrEImduB8kdsIrSZ48ebF48eK9GRgYuLRUqVL7XnvttducTouT53OWBuF+zp07Z8+jy/lye/fufeOxxx7bmSBBggWQukHJkiXjdIhC3As+K3bsYbYSGW7fE+LekNgJbyUOwuEqcqVMmbJfxowZV+bIkeNwo0aNzkyePDmcU3SxnZWbJq0XER0iKHQcvPrDDz+8UaNGjVNZs2Y9lCFDhiXBwcEd8XlglX0gIsS94rNilxLh2D2v2/eEuDckdsIXSI0UQBqkS5duQqFChQ6FhYVZrVu3vgnJu8lJ7oXvw+rWjz766EaTJk3CixUrZuF93gmZG433vSaSD2HNlBD3i0+KXSKkO7IDWYxUQYS4FyR2wpdgKR6/4OsifZInT/55xYoV9zRv3tyeYP+9996zVq1apR61PgI7QrB6ffTo0fa8uI0bN7aeeOKJzQEBARPw/vI7jUKXHRHiYfA5sbNHcEd+QMYiX3kShgjxX0jshC9TKH78+G2x5P++r/PkybOsZcuWfw4bNsz69NNPLQ6bsmnTJotj44nYhx1gOMvIrFmzWDJnvfrqq5S5wxkzZmSBxBRkJN7PFliq/ZyISnxK7JIjlLrvkf5ICFIU+Rz5wnM7HiLEPyGxE24hE1I3ODj4zYCAgMXx4sXbWLBgwe2tWrU6PmbMmPDFixfbkrdnzx7ryJEjdmkRp6ESUU94eLjdTo6DB+/atcvauHGj3bP5jTfeuNG0adM/cubMuS1u3LgbEiZM+ENQUBC/bKshafkmChEN+IzYcSJt/rL5DmGHifQI4eCM5RGOwP0RwqEDWH0hxN2Q2Ak3wcGO2ZGMY5oVgDw0z5Qp0zt58uT5OUOGDMczZ858vnLlyse7d+9+5sMPP7y1cuVKW/IuXrxo97RlFe7NmzclfPcIrxOvF68brx9l+dChQ9ZPP/3EavHrHTp0OF2mTJkTjzzyyIWMGTMezp079yK8DyPw3tRHcnnep6QIv8+EiC58Quwoag0RSh0blnK07cgkQCh33yAcvJEld0LcDYmdcDNJEP5/LISURfh/8+WsWbN+EhYWtq58+fJnK1asaNWsWdNq06bNzWHDht2cNm2atWbNGlv4xN25deuW9dtvv1m//PKL9cUXX7BK9cZzzz13s3r16laFChUsXNeToaGhv0DmxuN6s60c20SWRgoi/D/DduFCxBReL3b8ZfMUQqkbg+RH/omqyEyEcvcoVwhxBxI74W+wycpjyJNIS6Qr8mr8+PHfy5s376wqVapsadKkyenWrVvbDfpffvll67XXXrPGjRvHGQ/sxv7btm2zONzKpUuXPKrjLljyxmrUzZs3W4sWLbK++uor6+2337bbxPXq1cvq0qWLBZELb9So0QmI8focOXJ8jWv4NjIQ6Yw0Ryoj/H5ST1YR23i12HHC7OrIDIS/hO5F1ljkTQnkH11OrhAiEhI7ISL+t7L3ZTnk2bhx4/LvgR0yPkOm4/53mTNnXliqVKnVDRs23N+5c+cz/fv3vzFq1Chr4sSJ9pylU6dOtb799ltOg2YtWbLEYjUv2/RxQGWWbrEEkJ042PaM1ZYcfy+6qnzZxo3VoxRPHu/kyZO2iHI4kZ07d1obNmywVqxYYbHdIdu+cUaHKVOmWJMmTbI++OADtoWz+vXrd619+/an6tatu6d48eIrMmTIsADXYhYyDfkUGY3r0gvLJkhJhG0c1aZbeCNeK3ZsO8ISuKnIJKQwcq/w1xN7zbJtg7qOi8hI7IT4d4IQDrFSAWmSKFGil1KlSjUGmRwcHDw/ceLEnMpxe0BAwM6QkJCtOXPm3B4aGrq7WrVq+5s2bXq4Y8eOpyBJl4YMGXJt7NixNydMmBBOgZo+fbo1Z84ca+HChdayZctsEVy3bp1dSsYSwR07dvxnuB3lkT1N+XyWJi5YsMCaPXu2Xbr42WefWePHjw9/6623brz++utXe/fufRGy9mfjxo0PValSZV+RIkV2ZcuWbVvKlCnZmWEnXsc2vJ4VuP89XsskLEclSJCAJZoNEFZls7cqq7eF8CW8Vuz4S5LdwdlurjjCThL3CkfpboVwAONXkayIEERiJ8S9wdIoluyxsT+rF1mlmw7JgGRDWL1L+WFTmeYQvY6QpL5p0qQZmTVr1o9y5co1PW/evPPy58//M7Ie2Z4vX759efLkOZQ7d+6jEMI/c+TIcSZ79uznIVsX8ZzLWbJkuZIpU6aryLVIucr1fJzbcXs87zT2cZL7wTF+w773Ituw/7W4vwzH+B77n4rnTYCwDcd59cb5dcB5PoPUQNj+jQNAZ0H4ethDla+Pr5Mix9et0jjhq3il2FHkWPw9G6mIPEgvV4531wlZjgxC+McrhMROiKiFtSuUIf7PTYNwCqwcCEv9KH/szMa/u1JIGYQ/2lkayC8fDi7PmhkO/8GwHeA/xdmG27M9G5/P/XB/TyCsHg1FiiBstsPJ8lljw79znheljVO2qUeqcDteJ3aPI5MRtm9gz6KHgdOOcby7XxDKHX+RCf9GYieEEMLNeJXYUerYePdnhA1UowLKHV8g24X0QfirUvgvEjshhBBuxmvEjt3EJyIbkGcRtnGIKjiYMXt8bUbYNV1y579I7IQQQrgZrxA7dhv/EOGk/i8gnDosquHQJ+8ju5A2CDtYCP9DYieEEMLNxLrYsTfSe8gmpCcSHVLnwAa1nyDrkNaIej35HxI7IYQQbiZWxY5SNxRZjwxAolPqHNjFncOosB1fM0TzyvoXEjshhBBuJtbELjXyMrIGecVzP6bgYMccTmURUhNRyZ3/ILETQgjhZmJF7DjgZReEw5BQ6jjuUUwThnyFzEU4DpLkzj+Q2AkhhHAzMS52nEGiHcJZIYYgsTUrBEWOg1tyzDxO6MzBLYX7ccSuL8Le0kIIIYSboNsMR2JM7DiUyXxkNBLbU31xxHSOfE6x43y0HLVcuBuW1I5EuiOaA1IIIYTboMu87km0wk4KdZA5yLsIp3vxBji9DKermYWMRzgFjnAv/MB/gaxE+Dl0PvyKoiiK4oY4fQhGINEGBxtmne+3CL9MCyHehCOdlLu3kdguSRTRBycvH4iwfSd7Y3NAbEVRFEVxS9YiHP2jJRItsESMEzZPRz5A2CPVG4cY4XlyGjPKJ6uJ1bDenbCNJycC5+wjnDtYURRFUdyUVAiHj4vKGbz+BhvxfYlwDtiiCL9YvZVkCNsAsrqYxZmcEUMIIYQQQoDSCDslUOzYG9EXCEKeQ+YhrLLLjAghhBBC+DVFEJbScay4ilzhQ7Cqri3yPcIZMTIgQgghhBB+B9vPsXMEe5h+g1RDfBG2ueuG/ID0QtgmSwghhBDCryiIsGcp26lxui6OFeercJyz/sgCpCPCalohhBBCCL8gDzIWWYjURxIhvg5nJ3gV+RFpg0juhBBCCOF6siBvIRSg1ki0dbONBTj2GYdAcV6bZiwQQgghhGvhmG+ccPZnhO3S3CR1DjmRichihIP+uaE0UgghhBDiLzgmHWdpGIRwpOM+iJtLs3Ij7OXLkjsOZqySOyGEEEK4Bo5u3BPZinDMt7SI2+HMGTMRlk5WRXy5c4gQQgghxF9wrDpOMjsYYVWlv8AhXDjnLaudU3KFEEIIIYSvw1kZSiH+UFIXmXgIewCHIaqOFUIIIYQQQgghhBBCCCGEEEIIIYQQQgghhBBCCCGEEEIIIYQQQgghhBBCCCGEEEIIIYQQQgghhBBCCCGE/xEHKY30QV73pAfCacpikmRIUaQQEsQVQgghhBDi3glGKiDvI2uQ9Z6sRIYjeZGYmlw/A0Kh7IBk4gohhBBCCHFvsKTuaWQSMhRhSVmIJ2WR0Uh3JBvCbRMinI81ACFxkURIYoRztjokRShpjyAURz43MiyZ42MMj0Vx5DYFkGHIIISlhTEllEIIIYQQPk96hNWunyGFuSISCZBGyFsIJS8QqYJ0QXIhhM+vj7RAKGkkDdITYenfFuRthKV+DimRfshmhI9TKksgXN8N+R05gvC4OREhhBBCCPEfsISMovYe0hVh6dudcF1+JB3CkreWCLdnOzjCkjyW6LGELTuSAmmGfICw5G0w8i3yBpIFYUleY+RdhEI5EBmLsOqV8lcTmYPMRp5HUiNCCCGEEOI/oLQ1R0YgT3KFh7RIXYQdKSh81T3rKG1NkJEIq2wJZY1S1gvJipRE3kQogA4UvU+QikhGZBTCEjsHyhtLBPkYb3N/rRCWBgohhBBCiHvAEbvXkPJc4SEPwrZ1rCbdh/yM1ELYS5WlbRRBR+wyI20Ril0OhO31vkBeQaoi7JTBatlPkWcRVtdS2liSVxsph/DFQn/YAAACGUlEQVR4Tls67o/bd0ZYAiiEEEIIIe4Bil1DhG3gmiJOBwdKViqEvVJrIB8hbEfHqliKHatVH0MIS+zaIxQ7ihhL95YgbCe335NfkVXICwg7XjAUtw3IHmQCUgxh5wsek/tiOz6KohBCCCGEuEfYYYJixx6xybniDthJYgwSWew4BMqjCGG7uAEIq20pdtyOokZxewphm7nKSCjCXrIOrNrlepbwUeJYSsdesCzRewlRiZ0QQgghxH3CYUrYjm4WwmrZyB0oWLLGXqrzEbat4xAlLHX7GmFbOsKq1KkIO09Qyp5A2GmiDuJAQWPJIEv52I6OMhe5B24phFW3ZRA+TrFrjVD+hBBCCCHEfcD2ci8j7J3aH3nRE7a9+xgZgrCqlMOfsGqWvVY5PEobpC/yDUKZYzUqhyx5DhmPsCSP+/kKYXUuxY0dLDgA8USEQsketexI8QzCEj0OlcJzmYZw/6wSFkIIIYQQ9wGHIWHv1eXITk9+QihXkatoWR3LXqsrkGUIhyth6RplzhnHjoJG4duIcD+UtEqIQz6E1b98bDtCoXSqdjnYcQOEx+ZMGM54eUIIIYQQ4j5gtSw7Q3BQYMYZd+5OWEXL3qssfWMJHe9zO2c2CkIBZBUs98Mx8CLPIMHqXs42wcfYQYKldJGfy/Ng6R+fx1JCIYQQQgghhBBCCCGEEEIIIYQQQgghhBBCCCGEEEK4DmP+D1rU1Z8m8K2fAAAAAElFTkSuQmCC;" vertex="1" parent="1">
          <mxGeometry x="580" y="250" width="630" height="735" as="geometry" />
        </mxCell>
      </root>
    </mxGraphModel>
  </diagram>
</mxfile>
